  0
SECTION
  2
HEADER
  9
$ACADVER
  1
AC1009
  9
$EXTMIN
 10
0.0
 20
0.0
 30
0.0
  9
$EXTMAX
 10
1000.0
 20
1000.0
 30
0.0
  9
$FILLMODE
 70
 0
  9
$SPLFRAME
 70
 1
  0
ENDSEC
  0
SECTION
  2
TABLES
  0
TABLE
  2
LAYER
 70
1
  0
LAYER
  2
0
 70
     0
 62
     7
  6
CONTINUOUS
  0
ENDTAB
  0
ENDSEC
  0
SECTION
  2
ENTITIES
  0
POLYLINE
  8
0
 62
     0
 66
     1
 10
0
 20
0
 30
0.0
 70
     1
 40
0.283465
 41
0.283465
  0
VERTEX
  8
0
 10
2.22678
 20
2.58908
 30
0.0
 40
0.00393701
 41
0.00393701
  0
VERTEX
  8
0
 10
2.33122
 20
2.58908
 30
0.0
 40
0.00393701
 41
0.00393701
  0
VERTEX
  8
0
 10
2.33122
 20
2.50917
 30
0.0
 40
0.00393701
 41
0.00393701
  0
VERTEX
  8
0
 10
2.22678
 20
2.50917
 30
0.0
 40
0.00393701
 41
0.00393701
  0
VERTEX
  8
0
 10
2.22678
 20
2.58908
 30
0.0
 40
0.00393701
 41
0.00393701
  0
SEQEND
 8
0
  0
POLYLINE
  8
0
 62
     0
 66
     1
 10
0
 20
0
 30
0.0
 70
     1
 40
0.283465
 41
0.283465
  0
VERTEX
  8
0
 10
2.391
 20
2.58908
 30
0.0
 40
0.00393701
 41
0.00393701
  0
VERTEX
  8
0
 10
2.49539
 20
2.58908
 30
0.0
 40
0.00393701
 41
0.00393701
  0
VERTEX
  8
0
 10
2.49539
 20
2.50917
 30
0.0
 40
0.00393701
 41
0.00393701
  0
VERTEX
  8
0
 10
2.391
 20
2.50917
 30
0.0
 40
0.00393701
 41
0.00393701
  0
VERTEX
  8
0
 10
2.391
 20
2.58908
 30
0.0
 40
0.00393701
 41
0.00393701
  0
SEQEND
 8
0
  0
POLYLINE
  8
0
 62
     0
 66
     1
 10
0
 20
0
 30
0.0
 70
     1
 40
0.283465
 41
0.283465
  0
VERTEX
  8
0
 10
1.5695
 20
1.55225
 30
0.0
 40
0.00393701
 41
0.00393701
  0
VERTEX
  8
0
 10
1.64942
 20
1.55225
 30
0.0
 40
0.00393701
 41
0.00393701
  0
VERTEX
  8
0
 10
1.64942
 20
1.44781
 30
0.0
 40
0.00393701
 41
0.00393701
  0
VERTEX
  8
0
 10
1.5695
 20
1.44781
 30
0.0
 40
0.00393701
 41
0.00393701
  0
VERTEX
  8
0
 10
1.5695
 20
1.55225
 30
0.0
 40
0.00393701
 41
0.00393701
  0
SEQEND
 8
0
  0
POLYLINE
  8
0
 62
     0
 66
     1
 10
0
 20
0
 30
0.0
 70
     1
 40
0.283465
 41
0.283465
  0
VERTEX
  8
0
 10
1.5695
 20
1.71642
 30
0.0
 40
0.00393701
 41
0.00393701
  0
VERTEX
  8
0
 10
1.64942
 20
1.71642
 30
0.0
 40
0.00393701
 41
0.00393701
  0
VERTEX
  8
0
 10
1.64942
 20
1.61203
 30
0.0
 40
0.00393701
 41
0.00393701
  0
VERTEX
  8
0
 10
1.5695
 20
1.61203
 30
0.0
 40
0.00393701
 41
0.00393701
  0
VERTEX
  8
0
 10
1.5695
 20
1.71642
 30
0.0
 40
0.00393701
 41
0.00393701
  0
SEQEND
 8
0
  0
POLYLINE
  8
0
 62
     0
 66
     1
 10
0
 20
0
 30
0.0
 70
     1
 40
0.283465
 41
0.283465
  0
VERTEX
  8
0
 10
2.03629
 20
2.54243
 30
0.0
 40
0.00393701
 41
0.00393701
  0
VERTEX
  8
0
 10
2.05208
 20
2.54243
 30
0.0
 40
0.00393701
 41
0.00393701
  0
VERTEX
  8
0
 10
2.05208
 20
2.48936
 30
0.0
 40
0.00393701
 41
0.00393701
  0
VERTEX
  8
0
 10
2.03629
 20
2.48936
 30
0.0
 40
0.00393701
 41
0.00393701
  0
VERTEX
  8
0
 10
2.03629
 20
2.54243
 30
0.0
 40
0.00393701
 41
0.00393701
  0
SEQEND
 8
0
  0
POLYLINE
  8
0
 62
     0
 66
     1
 10
0
 20
0
 30
0.0
 70
     1
 40
0.283465
 41
0.283465
  0
VERTEX
  8
0
 10
2.01079
 20
2.54243
 30
0.0
 40
0.00393701
 41
0.00393701
  0
VERTEX
  8
0
 10
2.02647
 20
2.54243
 30
0.0
 40
0.00393701
 41
0.00393701
  0
VERTEX
  8
0
 10
2.02647
 20
2.48936
 30
0.0
 40
0.00393701
 41
0.00393701
  0
VERTEX
  8
0
 10
2.01079
 20
2.48936
 30
0.0
 40
0.00393701
 41
0.00393701
  0
VERTEX
  8
0
 10
2.01079
 20
2.54243
 30
0.0
 40
0.00393701
 41
0.00393701
  0
SEQEND
 8
0
  0
POLYLINE
  8
0
 62
     0
 66
     1
 10
0
 20
0
 30
0.0
 70
     1
 40
0.283465
 41
0.283465
  0
VERTEX
  8
0
 10
1.98519
 20
2.54243
 30
0.0
 40
0.00393701
 41
0.00393701
  0
VERTEX
  8
0
 10
2.00092
 20
2.54243
 30
0.0
 40
0.00393701
 41
0.00393701
  0
VERTEX
  8
0
 10
2.00092
 20
2.48936
 30
0.0
 40
0.00393701
 41
0.00393701
  0
VERTEX
  8
0
 10
1.98519
 20
2.48936
 30
0.0
 40
0.00393701
 41
0.00393701
  0
VERTEX
  8
0
 10
1.98519
 20
2.54243
 30
0.0
 40
0.00393701
 41
0.00393701
  0
SEQEND
 8
0
  0
POLYLINE
  8
0
 62
     0
 66
     1
 10
0
 20
0
 30
0.0
 70
     1
 40
0.283465
 41
0.283465
  0
VERTEX
  8
0
 10
1.95958
 20
2.54243
 30
0.0
 40
0.00393701
 41
0.00393701
  0
VERTEX
  8
0
 10
1.97532
 20
2.54243
 30
0.0
 40
0.00393701
 41
0.00393701
  0
VERTEX
  8
0
 10
1.97532
 20
2.48936
 30
0.0
 40
0.00393701
 41
0.00393701
  0
VERTEX
  8
0
 10
1.95958
 20
2.48936
 30
0.0
 40
0.00393701
 41
0.00393701
  0
VERTEX
  8
0
 10
1.95958
 20
2.54243
 30
0.0
 40
0.00393701
 41
0.00393701
  0
SEQEND
 8
0
  0
POLYLINE
  8
0
 62
     0
 66
     1
 10
0
 20
0
 30
0.0
 70
     1
 40
0.283465
 41
0.283465
  0
VERTEX
  8
0
 10
1.93403
 20
2.54243
 30
0.0
 40
0.00393701
 41
0.00393701
  0
VERTEX
  8
0
 10
1.94971
 20
2.54243
 30
0.0
 40
0.00393701
 41
0.00393701
  0
VERTEX
  8
0
 10
1.94971
 20
2.48936
 30
0.0
 40
0.00393701
 41
0.00393701
  0
VERTEX
  8
0
 10
1.93403
 20
2.48936
 30
0.0
 40
0.00393701
 41
0.00393701
  0
VERTEX
  8
0
 10
1.93403
 20
2.54243
 30
0.0
 40
0.00393701
 41
0.00393701
  0
SEQEND
 8
0
  0
POLYLINE
  8
0
 62
     0
 66
     1
 10
0
 20
0
 30
0.0
 70
     1
 40
0.283465
 41
0.283465
  0
VERTEX
  8
0
 10
2.43761
 20
1.42665
 30
0.0
 40
0.00393701
 41
0.00393701
  0
VERTEX
  8
0
 10
2.49268
 20
1.42665
 30
0.0
 40
0.00393701
 41
0.00393701
  0
VERTEX
  8
0
 10
2.49268
 20
1.34402
 30
0.0
 40
0.00393701
 41
0.00393701
  0
VERTEX
  8
0
 10
2.43761
 20
1.34402
 30
0.0
 40
0.00393701
 41
0.00393701
  0
VERTEX
  8
0
 10
2.43761
 20
1.42665
 30
0.0
 40
0.00393701
 41
0.00393701
  0
SEQEND
 8
0
  0
POLYLINE
  8
0
 62
     0
 66
     1
 10
0
 20
0
 30
0.0
 70
     1
 40
0.283465
 41
0.283465
  0
VERTEX
  8
0
 10
2.26042
 20
1.42665
 30
0.0
 40
0.00393701
 41
0.00393701
  0
VERTEX
  8
0
 10
2.31549
 20
1.42665
 30
0.0
 40
0.00393701
 41
0.00393701
  0
VERTEX
  8
0
 10
2.31549
 20
1.34402
 30
0.0
 40
0.00393701
 41
0.00393701
  0
VERTEX
  8
0
 10
2.26042
 20
1.34402
 30
0.0
 40
0.00393701
 41
0.00393701
  0
VERTEX
  8
0
 10
2.26042
 20
1.42665
 30
0.0
 40
0.00393701
 41
0.00393701
  0
SEQEND
 8
0
  0
POLYLINE
  8
0
 62
     0
 66
     1
 10
0
 20
0
 30
0.0
 70
     1
 40
0.283465
 41
0.283465
  0
VERTEX
  8
0
 10
2.43761
 20
1.82032
 30
0.0
 40
0.00393701
 41
0.00393701
  0
VERTEX
  8
0
 10
2.49268
 20
1.82032
 30
0.0
 40
0.00393701
 41
0.00393701
  0
VERTEX
  8
0
 10
2.49268
 20
1.73779
 30
0.0
 40
0.00393701
 41
0.00393701
  0
VERTEX
  8
0
 10
2.43761
 20
1.73779
 30
0.0
 40
0.00393701
 41
0.00393701
  0
VERTEX
  8
0
 10
2.43761
 20
1.82032
 30
0.0
 40
0.00393701
 41
0.00393701
  0
SEQEND
 8
0
  0
POLYLINE
  8
0
 62
     0
 66
     1
 10
0
 20
0
 30
0.0
 70
     1
 40
0.283465
 41
0.283465
  0
VERTEX
  8
0
 10
2.26042
 20
1.82032
 30
0.0
 40
0.00393701
 41
0.00393701
  0
VERTEX
  8
0
 10
2.31549
 20
1.82032
 30
0.0
 40
0.00393701
 41
0.00393701
  0
VERTEX
  8
0
 10
2.31549
 20
1.73779
 30
0.0
 40
0.00393701
 41
0.00393701
  0
VERTEX
  8
0
 10
2.26042
 20
1.73779
 30
0.0
 40
0.00393701
 41
0.00393701
  0
VERTEX
  8
0
 10
2.26042
 20
1.82032
 30
0.0
 40
0.00393701
 41
0.00393701
  0
SEQEND
 8
0
  0
POLYLINE
  8
0
 62
     0
 66
     1
 10
0
 20
0
 30
0.0
 70
     1
 40
0.283465
 41
0.283465
  0
VERTEX
  8
0
 10
2.41851
 20
2.35178
 30
0.0
 40
0.00393701
 41
0.00393701
  0
VERTEX
  8
0
 10
2.46951
 20
2.35178
 30
0.0
 40
0.00393701
 41
0.00393701
  0
VERTEX
  8
0
 10
2.46951
 20
2.29269
 30
0.0
 40
0.00393701
 41
0.00393701
  0
VERTEX
  8
0
 10
2.41851
 20
2.29269
 30
0.0
 40
0.00393701
 41
0.00393701
  0
VERTEX
  8
0
 10
2.41851
 20
2.35178
 30
0.0
 40
0.00393701
 41
0.00393701
  0
SEQEND
 8
0
  0
POLYLINE
  8
0
 62
     0
 66
     1
 10
0
 20
0
 30
0.0
 70
     1
 40
0.283465
 41
0.283465
  0
VERTEX
  8
0
 10
2.34358
 20
2.35178
 30
0.0
 40
0.00393701
 41
0.00393701
  0
VERTEX
  8
0
 10
2.39458
 20
2.35178
 30
0.0
 40
0.00393701
 41
0.00393701
  0
VERTEX
  8
0
 10
2.39458
 20
2.29269
 30
0.0
 40
0.00393701
 41
0.00393701
  0
VERTEX
  8
0
 10
2.34358
 20
2.29269
 30
0.0
 40
0.00393701
 41
0.00393701
  0
VERTEX
  8
0
 10
2.34358
 20
2.35178
 30
0.0
 40
0.00393701
 41
0.00393701
  0
SEQEND
 8
0
  0
POLYLINE
  8
0
 62
     0
 66
     1
 10
0
 20
0
 30
0.0
 70
     1
 40
0.283465
 41
0.283465
  0
VERTEX
  8
0
 10
2.227
 20
2.13021
 30
0.0
 40
0.00393701
 41
0.00393701
  0
VERTEX
  8
0
 10
2.28608
 20
2.13021
 30
0.0
 40
0.00393701
 41
0.00393701
  0
VERTEX
  8
0
 10
2.28608
 20
2.07921
 30
0.0
 40
0.00393701
 41
0.00393701
  0
VERTEX
  8
0
 10
2.227
 20
2.07921
 30
0.0
 40
0.00393701
 41
0.00393701
  0
VERTEX
  8
0
 10
2.227
 20
2.13021
 30
0.0
 40
0.00393701
 41
0.00393701
  0
SEQEND
 8
0
  0
POLYLINE
  8
0
 62
     0
 66
     1
 10
0
 20
0
 30
0.0
 70
     1
 40
0.283465
 41
0.283465
  0
VERTEX
  8
0
 10
2.227
 20
2.20514
 30
0.0
 40
0.00393701
 41
0.00393701
  0
VERTEX
  8
0
 10
2.28608
 20
2.20514
 30
0.0
 40
0.00393701
 41
0.00393701
  0
VERTEX
  8
0
 10
2.28608
 20
2.15414
 30
0.0
 40
0.00393701
 41
0.00393701
  0
VERTEX
  8
0
 10
2.227
 20
2.15414
 30
0.0
 40
0.00393701
 41
0.00393701
  0
VERTEX
  8
0
 10
2.227
 20
2.20514
 30
0.0
 40
0.00393701
 41
0.00393701
  0
SEQEND
 8
0
  0
POLYLINE
  8
0
 62
     0
 66
     1
 10
0
 20
0
 30
0.0
 70
     1
 40
0.283465
 41
0.283465
  0
VERTEX
  8
0
 10
1.83361
 20
2.29172
 30
0.0
 40
0.00393701
 41
0.00393701
  0
VERTEX
  8
0
 10
1.8846
 20
2.29172
 30
0.0
 40
0.00393701
 41
0.00393701
  0
VERTEX
  8
0
 10
1.8846
 20
2.23264
 30
0.0
 40
0.00393701
 41
0.00393701
  0
VERTEX
  8
0
 10
1.83361
 20
2.23264
 30
0.0
 40
0.00393701
 41
0.00393701
  0
VERTEX
  8
0
 10
1.83361
 20
2.29172
 30
0.0
 40
0.00393701
 41
0.00393701
  0
SEQEND
 8
0
  0
POLYLINE
  8
0
 62
     0
 66
     1
 10
0
 20
0
 30
0.0
 70
     1
 40
0.283465
 41
0.283465
  0
VERTEX
  8
0
 10
1.90853
 20
2.29172
 30
0.0
 40
0.00393701
 41
0.00393701
  0
VERTEX
  8
0
 10
1.95953
 20
2.29172
 30
0.0
 40
0.00393701
 41
0.00393701
  0
VERTEX
  8
0
 10
1.95953
 20
2.23264
 30
0.0
 40
0.00393701
 41
0.00393701
  0
VERTEX
  8
0
 10
1.90853
 20
2.23264
 30
0.0
 40
0.00393701
 41
0.00393701
  0
VERTEX
  8
0
 10
1.90853
 20
2.29172
 30
0.0
 40
0.00393701
 41
0.00393701
  0
SEQEND
 8
0
  0
POLYLINE
  8
0
 62
     0
 66
     1
 10
0
 20
0
 30
0.0
 70
     1
 40
0.283465
 41
0.283465
  0
VERTEX
  8
0
 10
2.10851
 20
2.29172
 30
0.0
 40
0.00393701
 41
0.00393701
  0
VERTEX
  8
0
 10
2.1595
 20
2.29172
 30
0.0
 40
0.00393701
 41
0.00393701
  0
VERTEX
  8
0
 10
2.1595
 20
2.23264
 30
0.0
 40
0.00393701
 41
0.00393701
  0
VERTEX
  8
0
 10
2.10851
 20
2.23264
 30
0.0
 40
0.00393701
 41
0.00393701
  0
VERTEX
  8
0
 10
2.10851
 20
2.29172
 30
0.0
 40
0.00393701
 41
0.00393701
  0
SEQEND
 8
0
  0
POLYLINE
  8
0
 62
     0
 66
     1
 10
0
 20
0
 30
0.0
 70
     1
 40
0.283465
 41
0.283465
  0
VERTEX
  8
0
 10
2.03358
 20
2.29172
 30
0.0
 40
0.00393701
 41
0.00393701
  0
VERTEX
  8
0
 10
2.08458
 20
2.29172
 30
0.0
 40
0.00393701
 41
0.00393701
  0
VERTEX
  8
0
 10
2.08458
 20
2.23264
 30
0.0
 40
0.00393701
 41
0.00393701
  0
VERTEX
  8
0
 10
2.03358
 20
2.23264
 30
0.0
 40
0.00393701
 41
0.00393701
  0
VERTEX
  8
0
 10
2.03358
 20
2.29172
 30
0.0
 40
0.00393701
 41
0.00393701
  0
SEQEND
 8
0
  0
POLYLINE
  8
0
 62
     0
 66
     1
 10
0
 20
0
 30
0.0
 70
     1
 40
0.283465
 41
0.283465
  0
VERTEX
  8
0
 10
2.41851
 20
2.45176
 30
0.0
 40
0.00393701
 41
0.00393701
  0
VERTEX
  8
0
 10
2.46951
 20
2.45176
 30
0.0
 40
0.00393701
 41
0.00393701
  0
VERTEX
  8
0
 10
2.46951
 20
2.39264
 30
0.0
 40
0.00393701
 41
0.00393701
  0
VERTEX
  8
0
 10
2.41851
 20
2.39264
 30
0.0
 40
0.00393701
 41
0.00393701
  0
VERTEX
  8
0
 10
2.41851
 20
2.45176
 30
0.0
 40
0.00393701
 41
0.00393701
  0
SEQEND
 8
0
  0
POLYLINE
  8
0
 62
     0
 66
     1
 10
0
 20
0
 30
0.0
 70
     1
 40
0.283465
 41
0.283465
  0
VERTEX
  8
0
 10
2.34358
 20
2.45176
 30
0.0
 40
0.00393701
 41
0.00393701
  0
VERTEX
  8
0
 10
2.39458
 20
2.45176
 30
0.0
 40
0.00393701
 41
0.00393701
  0
VERTEX
  8
0
 10
2.39458
 20
2.39264
 30
0.0
 40
0.00393701
 41
0.00393701
  0
VERTEX
  8
0
 10
2.34358
 20
2.39264
 30
0.0
 40
0.00393701
 41
0.00393701
  0
VERTEX
  8
0
 10
2.34358
 20
2.45176
 30
0.0
 40
0.00393701
 41
0.00393701
  0
SEQEND
 8
0
  0
POLYLINE
  8
0
 62
     0
 66
     1
 10
0
 20
0
 30
0.0
 70
     1
 40
0.283465
 41
0.283465
  0
VERTEX
  8
0
 10
1.62853
 20
1.85178
 30
0.0
 40
0.00393701
 41
0.00393701
  0
VERTEX
  8
0
 10
1.67953
 20
1.85178
 30
0.0
 40
0.00393701
 41
0.00393701
  0
VERTEX
  8
0
 10
1.67953
 20
1.79269
 30
0.0
 40
0.00393701
 41
0.00393701
  0
VERTEX
  8
0
 10
1.62853
 20
1.79269
 30
0.0
 40
0.00393701
 41
0.00393701
  0
VERTEX
  8
0
 10
1.62853
 20
1.85178
 30
0.0
 40
0.00393701
 41
0.00393701
  0
SEQEND
 8
0
  0
POLYLINE
  8
0
 62
     0
 66
     1
 10
0
 20
0
 30
0.0
 70
     1
 40
0.283465
 41
0.283465
  0
VERTEX
  8
0
 10
1.5536
 20
1.85178
 30
0.0
 40
0.00393701
 41
0.00393701
  0
VERTEX
  8
0
 10
1.6046
 20
1.85178
 30
0.0
 40
0.00393701
 41
0.00393701
  0
VERTEX
  8
0
 10
1.6046
 20
1.79269
 30
0.0
 40
0.00393701
 41
0.00393701
  0
VERTEX
  8
0
 10
1.5536
 20
1.79269
 30
0.0
 40
0.00393701
 41
0.00393701
  0
VERTEX
  8
0
 10
1.5536
 20
1.85178
 30
0.0
 40
0.00393701
 41
0.00393701
  0
SEQEND
 8
0
  0
POLYLINE
  8
0
 62
     0
 66
     1
 10
0
 20
0
 30
0.0
 70
     1
 40
0.283465
 41
0.283465
  0
VERTEX
  8
0
 10
1.62853
 20
1.99181
 30
0.0
 40
0.00393701
 41
0.00393701
  0
VERTEX
  8
0
 10
1.67953
 20
1.99181
 30
0.0
 40
0.00393701
 41
0.00393701
  0
VERTEX
  8
0
 10
1.67953
 20
1.93267
 30
0.0
 40
0.00393701
 41
0.00393701
  0
VERTEX
  8
0
 10
1.62853
 20
1.93267
 30
0.0
 40
0.00393701
 41
0.00393701
  0
VERTEX
  8
0
 10
1.62853
 20
1.99181
 30
0.0
 40
0.00393701
 41
0.00393701
  0
SEQEND
 8
0
  0
POLYLINE
  8
0
 62
     0
 66
     1
 10
0
 20
0
 30
0.0
 70
     1
 40
0.283465
 41
0.283465
  0
VERTEX
  8
0
 10
1.5536
 20
1.99181
 30
0.0
 40
0.00393701
 41
0.00393701
  0
VERTEX
  8
0
 10
1.6046
 20
1.99181
 30
0.0
 40
0.00393701
 41
0.00393701
  0
VERTEX
  8
0
 10
1.6046
 20
1.93267
 30
0.0
 40
0.00393701
 41
0.00393701
  0
VERTEX
  8
0
 10
1.5536
 20
1.93267
 30
0.0
 40
0.00393701
 41
0.00393701
  0
VERTEX
  8
0
 10
1.5536
 20
1.99181
 30
0.0
 40
0.00393701
 41
0.00393701
  0
SEQEND
 8
0
  0
POLYLINE
  8
0
 62
     0
 66
     1
 10
0
 20
0
 30
0.0
 70
     1
 40
0.283465
 41
0.283465
  0
VERTEX
  8
0
 10
1.5536
 20
2.19174
 30
0.0
 40
0.00393701
 41
0.00393701
  0
VERTEX
  8
0
 10
1.6046
 20
2.19174
 30
0.0
 40
0.00393701
 41
0.00393701
  0
VERTEX
  8
0
 10
1.6046
 20
2.13265
 30
0.0
 40
0.00393701
 41
0.00393701
  0
VERTEX
  8
0
 10
1.5536
 20
2.13265
 30
0.0
 40
0.00393701
 41
0.00393701
  0
VERTEX
  8
0
 10
1.5536
 20
2.19174
 30
0.0
 40
0.00393701
 41
0.00393701
  0
SEQEND
 8
0
  0
POLYLINE
  8
0
 62
     0
 66
     1
 10
0
 20
0
 30
0.0
 70
     1
 40
0.283465
 41
0.283465
  0
VERTEX
  8
0
 10
1.62853
 20
2.19174
 30
0.0
 40
0.00393701
 41
0.00393701
  0
VERTEX
  8
0
 10
1.67953
 20
2.19174
 30
0.0
 40
0.00393701
 41
0.00393701
  0
VERTEX
  8
0
 10
1.67953
 20
2.13265
 30
0.0
 40
0.00393701
 41
0.00393701
  0
VERTEX
  8
0
 10
1.62853
 20
2.13265
 30
0.0
 40
0.00393701
 41
0.00393701
  0
VERTEX
  8
0
 10
1.62853
 20
2.19174
 30
0.0
 40
0.00393701
 41
0.00393701
  0
SEQEND
 8
0
  0
POLYLINE
  8
0
 62
     0
 66
     1
 10
0
 20
0
 30
0.0
 70
     1
 40
0.283465
 41
0.283465
  0
VERTEX
  8
0
 10
1.62853
 20
2.09179
 30
0.0
 40
0.00393701
 41
0.00393701
  0
VERTEX
  8
0
 10
1.67953
 20
2.09179
 30
0.0
 40
0.00393701
 41
0.00393701
  0
VERTEX
  8
0
 10
1.67953
 20
2.03267
 30
0.0
 40
0.00393701
 41
0.00393701
  0
VERTEX
  8
0
 10
1.62853
 20
2.03267
 30
0.0
 40
0.00393701
 41
0.00393701
  0
VERTEX
  8
0
 10
1.62853
 20
2.09179
 30
0.0
 40
0.00393701
 41
0.00393701
  0
SEQEND
 8
0
  0
POLYLINE
  8
0
 62
     0
 66
     1
 10
0
 20
0
 30
0.0
 70
     1
 40
0.283465
 41
0.283465
  0
VERTEX
  8
0
 10
1.5536
 20
2.09179
 30
0.0
 40
0.00393701
 41
0.00393701
  0
VERTEX
  8
0
 10
1.6046
 20
2.09179
 30
0.0
 40
0.00393701
 41
0.00393701
  0
VERTEX
  8
0
 10
1.6046
 20
2.03267
 30
0.0
 40
0.00393701
 41
0.00393701
  0
VERTEX
  8
0
 10
1.5536
 20
2.03267
 30
0.0
 40
0.00393701
 41
0.00393701
  0
VERTEX
  8
0
 10
1.5536
 20
2.09179
 30
0.0
 40
0.00393701
 41
0.00393701
  0
SEQEND
 8
0
  0
POLYLINE
  8
0
 62
     0
 66
     1
 10
0
 20
0
 30
0.0
 70
     1
 40
0.283465
 41
0.283465
  0
VERTEX
  8
0
 10
2.227
 20
1.95025
 30
0.0
 40
0.00393701
 41
0.00393701
  0
VERTEX
  8
0
 10
2.28608
 20
1.95025
 30
0.0
 40
0.00393701
 41
0.00393701
  0
VERTEX
  8
0
 10
2.28608
 20
1.89925
 30
0.0
 40
0.00393701
 41
0.00393701
  0
VERTEX
  8
0
 10
2.227
 20
1.89925
 30
0.0
 40
0.00393701
 41
0.00393701
  0
VERTEX
  8
0
 10
2.227
 20
1.95025
 30
0.0
 40
0.00393701
 41
0.00393701
  0
SEQEND
 8
0
  0
POLYLINE
  8
0
 62
     0
 66
     1
 10
0
 20
0
 30
0.0
 70
     1
 40
0.283465
 41
0.283465
  0
VERTEX
  8
0
 10
2.227
 20
2.02513
 30
0.0
 40
0.00393701
 41
0.00393701
  0
VERTEX
  8
0
 10
2.28608
 20
2.02513
 30
0.0
 40
0.00393701
 41
0.00393701
  0
VERTEX
  8
0
 10
2.28608
 20
1.97412
 30
0.0
 40
0.00393701
 41
0.00393701
  0
VERTEX
  8
0
 10
2.227
 20
1.97412
 30
0.0
 40
0.00393701
 41
0.00393701
  0
VERTEX
  8
0
 10
2.227
 20
2.02513
 30
0.0
 40
0.00393701
 41
0.00393701
  0
SEQEND
 8
0
  0
POLYLINE
  8
0
 62
     0
 66
     1
 10
0
 20
0
 30
0.0
 70
     1
 40
0.283465
 41
0.283465
  0
VERTEX
  8
0
 10
2.01839
 20
2.40365
 30
0.0
 40
0.00393701
 41
0.00393701
  0
VERTEX
  8
0
 10
2.09722
 20
2.40365
 30
0.0
 40
0.00393701
 41
0.00393701
  0
VERTEX
  8
0
 10
2.09722
 20
2.34076
 30
0.0
 40
0.00393701
 41
0.00393701
  0
VERTEX
  8
0
 10
2.01839
 20
2.34076
 30
0.0
 40
0.00393701
 41
0.00393701
  0
VERTEX
  8
0
 10
2.01839
 20
2.40365
 30
0.0
 40
0.00393701
 41
0.00393701
  0
SEQEND
 8
0
  0
POLYLINE
  8
0
 62
     0
 66
     1
 10
0
 20
0
 30
0.0
 70
     1
 40
0.283465
 41
0.283465
  0
VERTEX
  8
0
 10
2.17589
 20
2.40365
 30
0.0
 40
0.00393701
 41
0.00393701
  0
VERTEX
  8
0
 10
2.25472
 20
2.40365
 30
0.0
 40
0.00393701
 41
0.00393701
  0
VERTEX
  8
0
 10
2.25472
 20
2.34076
 30
0.0
 40
0.00393701
 41
0.00393701
  0
VERTEX
  8
0
 10
2.17589
 20
2.34076
 30
0.0
 40
0.00393701
 41
0.00393701
  0
VERTEX
  8
0
 10
2.17589
 20
2.40365
 30
0.0
 40
0.00393701
 41
0.00393701
  0
SEQEND
 8
0
  0
POLYLINE
  8
0
 62
     0
 66
     1
 10
0
 20
0
 30
0.0
 70
     1
 40
0.283465
 41
0.283465
  0
VERTEX
  8
0
 10
1.89589
 20
2.40365
 30
0.0
 40
0.00393701
 41
0.00393701
  0
VERTEX
  8
0
 10
1.97472
 20
2.40365
 30
0.0
 40
0.00393701
 41
0.00393701
  0
VERTEX
  8
0
 10
1.97472
 20
2.34076
 30
0.0
 40
0.00393701
 41
0.00393701
  0
VERTEX
  8
0
 10
1.89589
 20
2.34076
 30
0.0
 40
0.00393701
 41
0.00393701
  0
VERTEX
  8
0
 10
1.89589
 20
2.40365
 30
0.0
 40
0.00393701
 41
0.00393701
  0
SEQEND
 8
0
  0
POLYLINE
  8
0
 62
     0
 66
     1
 10
0
 20
0
 30
0.0
 70
     1
 40
0.283465
 41
0.283465
  0
VERTEX
  8
0
 10
1.73839
 20
2.40365
 30
0.0
 40
0.00393701
 41
0.00393701
  0
VERTEX
  8
0
 10
1.81722
 20
2.40365
 30
0.0
 40
0.00393701
 41
0.00393701
  0
VERTEX
  8
0
 10
1.81722
 20
2.34076
 30
0.0
 40
0.00393701
 41
0.00393701
  0
VERTEX
  8
0
 10
1.73839
 20
2.34076
 30
0.0
 40
0.00393701
 41
0.00393701
  0
VERTEX
  8
0
 10
1.73839
 20
2.40365
 30
0.0
 40
0.00393701
 41
0.00393701
  0
SEQEND
 8
0
  0
POLYLINE
  8
0
 62
     0
 66
     1
 10
0
 20
0
 30
0.0
 70
     1
 40
0.283465
 41
0.283465
  0
VERTEX
  8
0
 10
1.48861
 20
2.34115
 30
0.0
 40
0.00393701
 41
0.00393701
  0
VERTEX
  8
0
 10
1.5146
 20
2.34115
 30
0.0
 40
0.00393701
 41
0.00393701
  0
VERTEX
  8
0
 10
1.5146
 20
2.26112
 30
0.0
 40
0.00393701
 41
0.00393701
  0
VERTEX
  8
0
 10
1.48861
 20
2.26112
 30
0.0
 40
0.00393701
 41
0.00393701
  0
VERTEX
  8
0
 10
1.48861
 20
2.34115
 30
0.0
 40
0.00393701
 41
0.00393701
  0
SEQEND
 8
0
  0
POLYLINE
  8
0
 62
     0
 66
     1
 10
0
 20
0
 30
0.0
 70
     1
 40
0.283465
 41
0.283465
  0
VERTEX
  8
0
 10
1.53862
 20
2.34115
 30
0.0
 40
0.00393701
 41
0.00393701
  0
VERTEX
  8
0
 10
1.56461
 20
2.34115
 30
0.0
 40
0.00393701
 41
0.00393701
  0
VERTEX
  8
0
 10
1.56461
 20
2.26112
 30
0.0
 40
0.00393701
 41
0.00393701
  0
VERTEX
  8
0
 10
1.53862
 20
2.26112
 30
0.0
 40
0.00393701
 41
0.00393701
  0
VERTEX
  8
0
 10
1.53862
 20
2.34115
 30
0.0
 40
0.00393701
 41
0.00393701
  0
SEQEND
 8
0
  0
POLYLINE
  8
0
 62
     0
 66
     1
 10
0
 20
0
 30
0.0
 70
     1
 40
0.283465
 41
0.283465
  0
VERTEX
  8
0
 10
1.5886
 20
2.34115
 30
0.0
 40
0.00393701
 41
0.00393701
  0
VERTEX
  8
0
 10
1.61458
 20
2.34115
 30
0.0
 40
0.00393701
 41
0.00393701
  0
VERTEX
  8
0
 10
1.61458
 20
2.26112
 30
0.0
 40
0.00393701
 41
0.00393701
  0
VERTEX
  8
0
 10
1.5886
 20
2.26112
 30
0.0
 40
0.00393701
 41
0.00393701
  0
VERTEX
  8
0
 10
1.5886
 20
2.34115
 30
0.0
 40
0.00393701
 41
0.00393701
  0
SEQEND
 8
0
  0
POLYLINE
  8
0
 62
     0
 66
     1
 10
0
 20
0
 30
0.0
 70
     1
 40
0.283465
 41
0.283465
  0
VERTEX
  8
0
 10
1.63861
 20
2.34115
 30
0.0
 40
0.00393701
 41
0.00393701
  0
VERTEX
  8
0
 10
1.66461
 20
2.34115
 30
0.0
 40
0.00393701
 41
0.00393701
  0
VERTEX
  8
0
 10
1.66461
 20
2.26112
 30
0.0
 40
0.00393701
 41
0.00393701
  0
VERTEX
  8
0
 10
1.63861
 20
2.26112
 30
0.0
 40
0.00393701
 41
0.00393701
  0
VERTEX
  8
0
 10
1.63861
 20
2.34115
 30
0.0
 40
0.00393701
 41
0.00393701
  0
SEQEND
 8
0
  0
POLYLINE
  8
0
 62
     0
 66
     1
 10
0
 20
0
 30
0.0
 70
     1
 40
0.283465
 41
0.283465
  0
VERTEX
  8
0
 10
1.63861
 20
2.58317
 30
0.0
 40
0.00393701
 41
0.00393701
  0
VERTEX
  8
0
 10
1.66461
 20
2.58317
 30
0.0
 40
0.00393701
 41
0.00393701
  0
VERTEX
  8
0
 10
1.66461
 20
2.50315
 30
0.0
 40
0.00393701
 41
0.00393701
  0
VERTEX
  8
0
 10
1.63861
 20
2.50315
 30
0.0
 40
0.00393701
 41
0.00393701
  0
VERTEX
  8
0
 10
1.63861
 20
2.58317
 30
0.0
 40
0.00393701
 41
0.00393701
  0
SEQEND
 8
0
  0
POLYLINE
  8
0
 62
     0
 66
     1
 10
0
 20
0
 30
0.0
 70
     1
 40
0.283465
 41
0.283465
  0
VERTEX
  8
0
 10
1.5886
 20
2.58317
 30
0.0
 40
0.00393701
 41
0.00393701
  0
VERTEX
  8
0
 10
1.61458
 20
2.58317
 30
0.0
 40
0.00393701
 41
0.00393701
  0
VERTEX
  8
0
 10
1.61458
 20
2.50315
 30
0.0
 40
0.00393701
 41
0.00393701
  0
VERTEX
  8
0
 10
1.5886
 20
2.50315
 30
0.0
 40
0.00393701
 41
0.00393701
  0
VERTEX
  8
0
 10
1.5886
 20
2.58317
 30
0.0
 40
0.00393701
 41
0.00393701
  0
SEQEND
 8
0
  0
POLYLINE
  8
0
 62
     0
 66
     1
 10
0
 20
0
 30
0.0
 70
     1
 40
0.283465
 41
0.283465
  0
VERTEX
  8
0
 10
1.53862
 20
2.58317
 30
0.0
 40
0.00393701
 41
0.00393701
  0
VERTEX
  8
0
 10
1.56461
 20
2.58317
 30
0.0
 40
0.00393701
 41
0.00393701
  0
VERTEX
  8
0
 10
1.56461
 20
2.50315
 30
0.0
 40
0.00393701
 41
0.00393701
  0
VERTEX
  8
0
 10
1.53862
 20
2.50315
 30
0.0
 40
0.00393701
 41
0.00393701
  0
VERTEX
  8
0
 10
1.53862
 20
2.58317
 30
0.0
 40
0.00393701
 41
0.00393701
  0
SEQEND
 8
0
  0
POLYLINE
  8
0
 62
     0
 66
     1
 10
0
 20
0
 30
0.0
 70
     1
 40
0.283465
 41
0.283465
  0
VERTEX
  8
0
 10
1.48861
 20
2.58317
 30
0.0
 40
0.00393701
 41
0.00393701
  0
VERTEX
  8
0
 10
1.5146
 20
2.58317
 30
0.0
 40
0.00393701
 41
0.00393701
  0
VERTEX
  8
0
 10
1.5146
 20
2.50315
 30
0.0
 40
0.00393701
 41
0.00393701
  0
VERTEX
  8
0
 10
1.48861
 20
2.50315
 30
0.0
 40
0.00393701
 41
0.00393701
  0
VERTEX
  8
0
 10
1.48861
 20
2.58317
 30
0.0
 40
0.00393701
 41
0.00393701
  0
SEQEND
 8
0
  0
POLYLINE
  8
0
 62
     0
 66
     1
 10
0
 20
0
 30
0.0
 70
     1
 40
0.345866
 41
0.345866
  0
VERTEX
  8
0
 10
0.00238715
 20
3.9394
 30
0.0
 40
0.00480369
 41
0.00480369
  0
VERTEX
  8
0
 10
3.9394
 20
3.9394
 30
0.0
 40
0.00480369
 41
0.00480369
  0
VERTEX
  8
0
 10
3.9394
 20
0.00238715
 30
0.0
 40
0.00480369
 41
0.00480369
  0
VERTEX
  8
0
 10
0.00238715
 20
0.00238715
 30
0.0
 40
0.00480369
 41
0.00480369
  0
VERTEX
  8
0
 10
0.00238715
 20
3.9394
 30
0.0
 40
0.00480369
 41
0.00480369
  0
SEQEND
 8
0
  0
ENDSEC
  0
EOF
