<?xml version="1.0" standalone="no"?>
 <!DOCTYPE svg PUBLIC "-//W3C//DTD SVG 1.1//EN" 
 "http://www.w3.org/Graphics/SVG/1.1/DTD/svg11.dtd"> 
<svg xmlns="http://www.w3.org/2000/svg" version="1.1" 
    width="29.7002cm" height="21.0007cm" viewBox="0 0 116930 82680 ">
<title>SVG Picture created as Turbidignusb-F.SilkS.svg date 2016/08/07 17:16:13 </title>
  <desc>Picture generated by PCBNEW </desc>
<g style="fill:#000000; fill-opacity:1;stroke:#000000; stroke-opacity:1;
stroke-linecap:round; stroke-linejoin:round; "
 transform="translate(0 0) scale(1 1)">
</g>
<g style="fill:#000000; fill-opacity:0.0; 
stroke:#000000; stroke-width:-0.000393701; stroke-opacity:1; 
stroke-linecap:round; stroke-linejoin:round;">
</g>
<g style="fill:#000000; fill-opacity:0.0; 
stroke:#000000; stroke-width:39.3701; stroke-opacity:1; 
stroke-linecap:round; stroke-linejoin:round;">
</g>
<g style="fill:#000000; fill-opacity:0.0; 
stroke:#000000; stroke-width:59.0551; stroke-opacity:1; 
stroke-linecap:round; stroke-linejoin:round;">
<rect x="69685.9" y="65357.2" width="42519.7" height="12598.4" rx="0" />
</g>
<g style="fill:#000000; fill-opacity:0.0; 
stroke:#000000; stroke-width:39.3701; stroke-opacity:1; 
stroke-linecap:round; stroke-linejoin:round;">
</g>
<g style="fill:#000000; fill-opacity:0.0; 
stroke:#000000; stroke-width:59.0551; stroke-opacity:1; 
stroke-linecap:round; stroke-linejoin:round;">
<rect x="3937.01" y="3937.01" width="109056" height="74806" rx="0" />
</g>
<g style="fill:#000000; fill-opacity:0.0; 
stroke:#000000; stroke-width:39.3701; stroke-opacity:1; 
stroke-linecap:round; stroke-linejoin:round;">
</g>
<g style="fill:#000000; fill-opacity:0.0; 
stroke:#000000; stroke-width:59.0551; stroke-opacity:1; 
stroke-linecap:round; stroke-linejoin:round;">
<rect x="4724.41" y="4724.41" width="107481" height="73231.2" rx="0" />
</g>
<g style="fill:#000000; fill-opacity:0.0; 
stroke:#000000; stroke-width:39.3701; stroke-opacity:1; 
stroke-linecap:round; stroke-linejoin:round;">
</g>
<g style="fill:#000000; fill-opacity:0.0; 
stroke:#000000; stroke-width:59.0551; stroke-opacity:1; 
stroke-linecap:round; stroke-linejoin:round;">
<path d="M23622 4724
L23622 3937
" />
</g>
<g style="fill:#000000; fill-opacity:0.0; 
stroke:#000000; stroke-width:39.3701; stroke-opacity:1; 
stroke-linecap:round; stroke-linejoin:round;">
</g>
<g style="fill:#000000; fill-opacity:0.0; 
stroke:#000000; stroke-width:59.0551; stroke-opacity:1; 
stroke-linecap:round; stroke-linejoin:round;">
<path d="M43307 4724
L43307 3937
" />
</g>
<g style="fill:#000000; fill-opacity:0.0; 
stroke:#000000; stroke-width:39.3701; stroke-opacity:1; 
stroke-linecap:round; stroke-linejoin:round;">
</g>
<g style="fill:#000000; fill-opacity:0.0; 
stroke:#000000; stroke-width:59.0551; stroke-opacity:1; 
stroke-linecap:round; stroke-linejoin:round;">
<path d="M62992 4724
L62992 3937
" />
</g>
<g style="fill:#000000; fill-opacity:0.0; 
stroke:#000000; stroke-width:39.3701; stroke-opacity:1; 
stroke-linecap:round; stroke-linejoin:round;">
</g>
<g style="fill:#000000; fill-opacity:0.0; 
stroke:#000000; stroke-width:59.0551; stroke-opacity:1; 
stroke-linecap:round; stroke-linejoin:round;">
<path d="M82677 4724
L82677 3937
" />
</g>
<g style="fill:#000000; fill-opacity:0.0; 
stroke:#000000; stroke-width:39.3701; stroke-opacity:1; 
stroke-linecap:round; stroke-linejoin:round;">
</g>
<g style="fill:#000000; fill-opacity:0.0; 
stroke:#000000; stroke-width:59.0551; stroke-opacity:1; 
stroke-linecap:round; stroke-linejoin:round;">
<path d="M102362 4724
L102362 3937
" />
</g>
<g style="fill:#000000; fill-opacity:0.0; 
stroke:#000000; stroke-width:39.3701; stroke-opacity:1; 
stroke-linecap:round; stroke-linejoin:round;">
</g>
<g style="fill:#000000; fill-opacity:0.0; 
stroke:#000000; stroke-width:59.0551; stroke-opacity:1; 
stroke-linecap:round; stroke-linejoin:round;">
<path d="M14199 4562
L13906 4562
" />
<path d="M14052 4562
L14052 4050
L14004 4123
L13955 4172
L13906 4196
" />
</g>
<g style="fill:#000000; fill-opacity:0.0; 
stroke:#000000; stroke-width:39.3701; stroke-opacity:1; 
stroke-linecap:round; stroke-linejoin:round;">
</g>
<g style="fill:#000000; fill-opacity:0.0; 
stroke:#000000; stroke-width:59.0551; stroke-opacity:1; 
stroke-linecap:round; stroke-linejoin:round;">
<path d="M33591 4099
L33615 4074
L33664 4050
L33786 4050
L33835 4074
L33859 4099
L33884 4147
L33884 4196
L33859 4269
L33567 4562
L33884 4562
" />
</g>
<g style="fill:#000000; fill-opacity:0.0; 
stroke:#000000; stroke-width:39.3701; stroke-opacity:1; 
stroke-linecap:round; stroke-linejoin:round;">
</g>
<g style="fill:#000000; fill-opacity:0.0; 
stroke:#000000; stroke-width:59.0551; stroke-opacity:1; 
stroke-linecap:round; stroke-linejoin:round;">
<path d="M53252 4050
L53569 4050
L53398 4245
L53471 4245
L53520 4269
L53544 4294
L53569 4342
L53569 4464
L53544 4513
L53520 4537
L53471 4562
L53325 4562
L53276 4537
L53252 4513
" />
</g>
<g style="fill:#000000; fill-opacity:0.0; 
stroke:#000000; stroke-width:39.3701; stroke-opacity:1; 
stroke-linecap:round; stroke-linejoin:round;">
</g>
<g style="fill:#000000; fill-opacity:0.0; 
stroke:#000000; stroke-width:59.0551; stroke-opacity:1; 
stroke-linecap:round; stroke-linejoin:round;">
<path d="M73205 4221
L73205 4562
" />
<path d="M73083 4026
L72961 4391
L73278 4391
" />
</g>
<g style="fill:#000000; fill-opacity:0.0; 
stroke:#000000; stroke-width:39.3701; stroke-opacity:1; 
stroke-linecap:round; stroke-linejoin:round;">
</g>
<g style="fill:#000000; fill-opacity:0.0; 
stroke:#000000; stroke-width:59.0551; stroke-opacity:1; 
stroke-linecap:round; stroke-linejoin:round;">
<path d="M92914 4050
L92671 4050
L92646 4294
L92671 4269
L92719 4245
L92841 4245
L92890 4269
L92914 4294
L92939 4342
L92939 4464
L92914 4513
L92890 4537
L92841 4562
L92719 4562
L92671 4537
L92646 4513
" />
</g>
<g style="fill:#000000; fill-opacity:0.0; 
stroke:#000000; stroke-width:39.3701; stroke-opacity:1; 
stroke-linecap:round; stroke-linejoin:round;">
</g>
<g style="fill:#000000; fill-opacity:0.0; 
stroke:#000000; stroke-width:59.0551; stroke-opacity:1; 
stroke-linecap:round; stroke-linejoin:round;">
<path d="M112575 4050
L112477 4050
L112429 4074
L112404 4099
L112356 4172
L112331 4269
L112331 4464
L112356 4513
L112380 4537
L112429 4562
L112526 4562
L112575 4537
L112599 4513
L112624 4464
L112624 4342
L112599 4294
L112575 4269
L112526 4245
L112429 4245
L112380 4269
L112356 4294
L112331 4342
" />
</g>
<g style="fill:#000000; fill-opacity:0.0; 
stroke:#000000; stroke-width:39.3701; stroke-opacity:1; 
stroke-linecap:round; stroke-linejoin:round;">
</g>
<g style="fill:#000000; fill-opacity:0.0; 
stroke:#000000; stroke-width:59.0551; stroke-opacity:1; 
stroke-linecap:round; stroke-linejoin:round;">
<path d="M23622 77955
L23622 78742
" />
</g>
<g style="fill:#000000; fill-opacity:0.0; 
stroke:#000000; stroke-width:39.3701; stroke-opacity:1; 
stroke-linecap:round; stroke-linejoin:round;">
</g>
<g style="fill:#000000; fill-opacity:0.0; 
stroke:#000000; stroke-width:59.0551; stroke-opacity:1; 
stroke-linecap:round; stroke-linejoin:round;">
<path d="M43307 77955
L43307 78742
" />
</g>
<g style="fill:#000000; fill-opacity:0.0; 
stroke:#000000; stroke-width:39.3701; stroke-opacity:1; 
stroke-linecap:round; stroke-linejoin:round;">
</g>
<g style="fill:#000000; fill-opacity:0.0; 
stroke:#000000; stroke-width:59.0551; stroke-opacity:1; 
stroke-linecap:round; stroke-linejoin:round;">
<path d="M62992 77955
L62992 78742
" />
</g>
<g style="fill:#000000; fill-opacity:0.0; 
stroke:#000000; stroke-width:39.3701; stroke-opacity:1; 
stroke-linecap:round; stroke-linejoin:round;">
</g>
<g style="fill:#000000; fill-opacity:0.0; 
stroke:#000000; stroke-width:59.0551; stroke-opacity:1; 
stroke-linecap:round; stroke-linejoin:round;">
<path d="M82677 77955
L82677 78742
" />
</g>
<g style="fill:#000000; fill-opacity:0.0; 
stroke:#000000; stroke-width:39.3701; stroke-opacity:1; 
stroke-linecap:round; stroke-linejoin:round;">
</g>
<g style="fill:#000000; fill-opacity:0.0; 
stroke:#000000; stroke-width:59.0551; stroke-opacity:1; 
stroke-linecap:round; stroke-linejoin:round;">
<path d="M102362 77955
L102362 78742
" />
</g>
<g style="fill:#000000; fill-opacity:0.0; 
stroke:#000000; stroke-width:39.3701; stroke-opacity:1; 
stroke-linecap:round; stroke-linejoin:round;">
</g>
<g style="fill:#000000; fill-opacity:0.0; 
stroke:#000000; stroke-width:59.0551; stroke-opacity:1; 
stroke-linecap:round; stroke-linejoin:round;">
<path d="M14199 78580
L13906 78580
" />
<path d="M14052 78580
L14052 78069
L14004 78142
L13955 78190
L13906 78215
" />
</g>
<g style="fill:#000000; fill-opacity:0.0; 
stroke:#000000; stroke-width:39.3701; stroke-opacity:1; 
stroke-linecap:round; stroke-linejoin:round;">
</g>
<g style="fill:#000000; fill-opacity:0.0; 
stroke:#000000; stroke-width:59.0551; stroke-opacity:1; 
stroke-linecap:round; stroke-linejoin:round;">
<path d="M33591 78117
L33615 78093
L33664 78069
L33786 78069
L33835 78093
L33859 78117
L33884 78166
L33884 78215
L33859 78288
L33567 78580
L33884 78580
" />
</g>
<g style="fill:#000000; fill-opacity:0.0; 
stroke:#000000; stroke-width:39.3701; stroke-opacity:1; 
stroke-linecap:round; stroke-linejoin:round;">
</g>
<g style="fill:#000000; fill-opacity:0.0; 
stroke:#000000; stroke-width:59.0551; stroke-opacity:1; 
stroke-linecap:round; stroke-linejoin:round;">
<path d="M53252 78069
L53569 78069
L53398 78263
L53471 78263
L53520 78288
L53544 78312
L53569 78361
L53569 78483
L53544 78532
L53520 78556
L53471 78580
L53325 78580
L53276 78556
L53252 78532
" />
</g>
<g style="fill:#000000; fill-opacity:0.0; 
stroke:#000000; stroke-width:39.3701; stroke-opacity:1; 
stroke-linecap:round; stroke-linejoin:round;">
</g>
<g style="fill:#000000; fill-opacity:0.0; 
stroke:#000000; stroke-width:59.0551; stroke-opacity:1; 
stroke-linecap:round; stroke-linejoin:round;">
<path d="M73205 78239
L73205 78580
" />
<path d="M73083 78044
L72961 78410
L73278 78410
" />
</g>
<g style="fill:#000000; fill-opacity:0.0; 
stroke:#000000; stroke-width:39.3701; stroke-opacity:1; 
stroke-linecap:round; stroke-linejoin:round;">
</g>
<g style="fill:#000000; fill-opacity:0.0; 
stroke:#000000; stroke-width:59.0551; stroke-opacity:1; 
stroke-linecap:round; stroke-linejoin:round;">
<path d="M92914 78069
L92671 78069
L92646 78312
L92671 78288
L92719 78263
L92841 78263
L92890 78288
L92914 78312
L92939 78361
L92939 78483
L92914 78532
L92890 78556
L92841 78580
L92719 78580
L92671 78556
L92646 78532
" />
</g>
<g style="fill:#000000; fill-opacity:0.0; 
stroke:#000000; stroke-width:39.3701; stroke-opacity:1; 
stroke-linecap:round; stroke-linejoin:round;">
</g>
<g style="fill:#000000; fill-opacity:0.0; 
stroke:#000000; stroke-width:59.0551; stroke-opacity:1; 
stroke-linecap:round; stroke-linejoin:round;">
<path d="M112575 78069
L112477 78069
L112429 78093
L112404 78117
L112356 78190
L112331 78288
L112331 78483
L112356 78532
L112380 78556
L112429 78580
L112526 78580
L112575 78556
L112599 78532
L112624 78483
L112624 78361
L112599 78312
L112575 78288
L112526 78263
L112429 78263
L112380 78288
L112356 78312
L112331 78361
" />
</g>
<g style="fill:#000000; fill-opacity:0.0; 
stroke:#000000; stroke-width:39.3701; stroke-opacity:1; 
stroke-linecap:round; stroke-linejoin:round;">
</g>
<g style="fill:#000000; fill-opacity:0.0; 
stroke:#000000; stroke-width:59.0551; stroke-opacity:1; 
stroke-linecap:round; stroke-linejoin:round;">
<path d="M3937 23622
L4724 23622
" />
</g>
<g style="fill:#000000; fill-opacity:0.0; 
stroke:#000000; stroke-width:39.3701; stroke-opacity:1; 
stroke-linecap:round; stroke-linejoin:round;">
</g>
<g style="fill:#000000; fill-opacity:0.0; 
stroke:#000000; stroke-width:59.0551; stroke-opacity:1; 
stroke-linecap:round; stroke-linejoin:round;">
<path d="M3937 43307
L4724 43307
" />
</g>
<g style="fill:#000000; fill-opacity:0.0; 
stroke:#000000; stroke-width:39.3701; stroke-opacity:1; 
stroke-linecap:round; stroke-linejoin:round;">
</g>
<g style="fill:#000000; fill-opacity:0.0; 
stroke:#000000; stroke-width:59.0551; stroke-opacity:1; 
stroke-linecap:round; stroke-linejoin:round;">
<path d="M3937 62992
L4724 62992
" />
</g>
<g style="fill:#000000; fill-opacity:0.0; 
stroke:#000000; stroke-width:39.3701; stroke-opacity:1; 
stroke-linecap:round; stroke-linejoin:round;">
</g>
<g style="fill:#000000; fill-opacity:0.0; 
stroke:#000000; stroke-width:59.0551; stroke-opacity:1; 
stroke-linecap:round; stroke-linejoin:round;">
<path d="M4208 13864
L4452 13864
" />
<path d="M4160 14011
L4330 13499
L4501 14011
" />
</g>
<g style="fill:#000000; fill-opacity:0.0; 
stroke:#000000; stroke-width:39.3701; stroke-opacity:1; 
stroke-linecap:round; stroke-linejoin:round;">
</g>
<g style="fill:#000000; fill-opacity:0.0; 
stroke:#000000; stroke-width:59.0551; stroke-opacity:1; 
stroke-linecap:round; stroke-linejoin:round;">
<path d="M4367 33428
L4440 33452
L4464 33476
L4489 33525
L4489 33598
L4464 33647
L4440 33671
L4391 33696
L4196 33696
L4196 33184
L4367 33184
L4416 33208
L4440 33233
L4464 33281
L4464 33330
L4440 33379
L4416 33403
L4367 33428
L4196 33428
" />
</g>
<g style="fill:#000000; fill-opacity:0.0; 
stroke:#000000; stroke-width:39.3701; stroke-opacity:1; 
stroke-linecap:round; stroke-linejoin:round;">
</g>
<g style="fill:#000000; fill-opacity:0.0; 
stroke:#000000; stroke-width:59.0551; stroke-opacity:1; 
stroke-linecap:round; stroke-linejoin:round;">
<path d="M4489 53332
L4464 53356
L4391 53381
L4342 53381
L4269 53356
L4221 53308
L4196 53259
L4172 53161
L4172 53088
L4196 52991
L4221 52942
L4269 52893
L4342 52869
L4391 52869
L4464 52893
L4489 52918
" />
</g>
<g style="fill:#000000; fill-opacity:0.0; 
stroke:#000000; stroke-width:39.3701; stroke-opacity:1; 
stroke-linecap:round; stroke-linejoin:round;">
</g>
<g style="fill:#000000; fill-opacity:0.0; 
stroke:#000000; stroke-width:59.0551; stroke-opacity:1; 
stroke-linecap:round; stroke-linejoin:round;">
<path d="M4196 73066
L4196 72554
L4318 72554
L4391 72578
L4440 72627
L4464 72676
L4489 72773
L4489 72846
L4464 72944
L4440 72993
L4391 73041
L4318 73066
L4196 73066
" />
</g>
<g style="fill:#000000; fill-opacity:0.0; 
stroke:#000000; stroke-width:39.3701; stroke-opacity:1; 
stroke-linecap:round; stroke-linejoin:round;">
</g>
<g style="fill:#000000; fill-opacity:0.0; 
stroke:#000000; stroke-width:59.0551; stroke-opacity:1; 
stroke-linecap:round; stroke-linejoin:round;">
<path d="M112992 23622
L112205 23622
" />
</g>
<g style="fill:#000000; fill-opacity:0.0; 
stroke:#000000; stroke-width:39.3701; stroke-opacity:1; 
stroke-linecap:round; stroke-linejoin:round;">
</g>
<g style="fill:#000000; fill-opacity:0.0; 
stroke:#000000; stroke-width:59.0551; stroke-opacity:1; 
stroke-linecap:round; stroke-linejoin:round;">
<path d="M112992 43307
L112205 43307
" />
</g>
<g style="fill:#000000; fill-opacity:0.0; 
stroke:#000000; stroke-width:39.3701; stroke-opacity:1; 
stroke-linecap:round; stroke-linejoin:round;">
</g>
<g style="fill:#000000; fill-opacity:0.0; 
stroke:#000000; stroke-width:59.0551; stroke-opacity:1; 
stroke-linecap:round; stroke-linejoin:round;">
<path d="M112992 62992
L112205 62992
" />
</g>
<g style="fill:#000000; fill-opacity:0.0; 
stroke:#000000; stroke-width:39.3701; stroke-opacity:1; 
stroke-linecap:round; stroke-linejoin:round;">
</g>
<g style="fill:#000000; fill-opacity:0.0; 
stroke:#000000; stroke-width:59.0551; stroke-opacity:1; 
stroke-linecap:round; stroke-linejoin:round;">
<path d="M112477 13864
L112721 13864
" />
<path d="M112428 14011
L112599 13499
L112769 14011
" />
</g>
<g style="fill:#000000; fill-opacity:0.0; 
stroke:#000000; stroke-width:39.3701; stroke-opacity:1; 
stroke-linecap:round; stroke-linejoin:round;">
</g>
<g style="fill:#000000; fill-opacity:0.0; 
stroke:#000000; stroke-width:59.0551; stroke-opacity:1; 
stroke-linecap:round; stroke-linejoin:round;">
<path d="M112635 33428
L112708 33452
L112733 33476
L112757 33525
L112757 33598
L112733 33647
L112708 33671
L112660 33696
L112465 33696
L112465 33184
L112635 33184
L112684 33208
L112708 33233
L112733 33281
L112733 33330
L112708 33379
L112684 33403
L112635 33428
L112465 33428
" />
</g>
<g style="fill:#000000; fill-opacity:0.0; 
stroke:#000000; stroke-width:39.3701; stroke-opacity:1; 
stroke-linecap:round; stroke-linejoin:round;">
</g>
<g style="fill:#000000; fill-opacity:0.0; 
stroke:#000000; stroke-width:59.0551; stroke-opacity:1; 
stroke-linecap:round; stroke-linejoin:round;">
<path d="M112757 53332
L112733 53356
L112660 53381
L112611 53381
L112538 53356
L112489 53308
L112465 53259
L112440 53161
L112440 53088
L112465 52991
L112489 52942
L112538 52893
L112611 52869
L112660 52869
L112733 52893
L112757 52918
" />
</g>
<g style="fill:#000000; fill-opacity:0.0; 
stroke:#000000; stroke-width:39.3701; stroke-opacity:1; 
stroke-linecap:round; stroke-linejoin:round;">
</g>
<g style="fill:#000000; fill-opacity:0.0; 
stroke:#000000; stroke-width:59.0551; stroke-opacity:1; 
stroke-linecap:round; stroke-linejoin:round;">
<path d="M112465 73066
L112465 72554
L112587 72554
L112660 72578
L112708 72627
L112733 72676
L112757 72773
L112757 72846
L112733 72944
L112708 72993
L112660 73041
L112587 73066
L112465 73066
" />
</g>
<g style="fill:#000000; fill-opacity:0.0; 
stroke:#000000; stroke-width:39.3701; stroke-opacity:1; 
stroke-linecap:round; stroke-linejoin:round;">
</g>
<g style="fill:#000000; fill-opacity:0.0; 
stroke:#000000; stroke-width:59.0551; stroke-opacity:1; 
stroke-linecap:round; stroke-linejoin:round;">
<path d="M78911 76293
L78911 75703
L79051 75703
L79136 75731
L79192 75787
L79220 75843
L79248 75956
L79248 76040
L79220 76153
L79192 76209
L79136 76265
L79051 76293
L78911 76293
" />
<path d="M79754 76293
L79754 75984
L79726 75928
L79670 75899
L79557 75899
L79501 75928
" />
<path d="M79754 76265
L79698 76293
L79557 76293
L79501 76265
L79473 76209
L79473 76153
L79501 76096
L79557 76068
L79698 76068
L79754 76040
" />
<path d="M79951 75899
L80176 75899
" />
<path d="M80036 75703
L80036 76209
L80064 76265
L80120 76293
L80176 76293
" />
<path d="M80598 76265
L80542 76293
L80429 76293
L80373 76265
L80345 76209
L80345 75984
L80373 75928
L80429 75899
L80542 75899
L80598 75928
L80626 75984
L80626 76040
L80345 76096
" />
<path d="M80879 76237
L80907 76265
L80879 76293
L80851 76265
L80879 76237
L80879 76293
" />
<path d="M80879 75928
L80907 75956
L80879 75984
L80851 75956
L80879 75928
L80879 75984
" />
</g>
<g style="fill:#000000; fill-opacity:0.0; 
stroke:#000000; stroke-width:39.3701; stroke-opacity:1; 
stroke-linecap:round; stroke-linejoin:round;">
</g>
<g style="fill:#000000; fill-opacity:0.0; 
stroke:#000000; stroke-width:59.0551; stroke-opacity:1; 
stroke-linecap:round; stroke-linejoin:round;">
<path d="M69685 76577
L112205 76577
" />
</g>
<g style="fill:#000000; fill-opacity:0.0; 
stroke:#000000; stroke-width:39.3701; stroke-opacity:1; 
stroke-linecap:round; stroke-linejoin:round;">
</g>
<g style="fill:#000000; fill-opacity:0.0; 
stroke:#000000; stroke-width:59.0551; stroke-opacity:1; 
stroke-linecap:round; stroke-linejoin:round;">
<path d="M70249 77395
L70249 76805
" />
<path d="M70587 77395
L70334 77058
" />
<path d="M70587 76805
L70249 77142
" />
<path d="M70840 77395
L70840 77002
" />
<path d="M70840 76805
L70812 76833
L70840 76861
L70868 76833
L70840 76805
L70840 76861
" />
<path d="M71458 77339
L71430 77367
L71346 77395
L71290 77395
L71205 77367
L71149 77311
L71121 77255
L71093 77142
L71093 77058
L71121 76946
L71149 76889
L71205 76833
L71290 76805
L71346 76805
L71430 76833
L71458 76861
" />
<path d="M71965 77395
L71965 77086
L71937 77030
L71880 77002
L71768 77002
L71712 77030
" />
<path d="M71965 77367
L71908 77395
L71768 77395
L71712 77367
L71683 77311
L71683 77255
L71712 77199
L71768 77171
L71908 77171
L71965 77142
" />
<path d="M72499 77395
L72499 76805
" />
<path d="M72499 77367
L72443 77395
L72330 77395
L72274 77367
L72246 77339
L72218 77283
L72218 77114
L72246 77058
L72274 77030
L72330 77002
L72443 77002
L72499 77030
" />
<path d="M73230 77086
L73427 77086
" />
<path d="M73511 77395
L73230 77395
L73230 76805
L73511 76805
" />
<path d="M73764 77339
L73793 77367
L73764 77395
L73736 77367
L73764 77339
L73764 77395
" />
<path d="M74046 77395
L74046 76805
L74186 76805
L74271 76833
L74327 76889
L74355 76946
L74383 77058
L74383 77142
L74355 77255
L74327 77311
L74271 77367
L74186 77395
L74046 77395
" />
<path d="M74636 77339
L74664 77367
L74636 77395
L74608 77367
L74636 77339
L74636 77395
" />
<path d="M74889 77227
L75171 77227
" />
<path d="M74833 77395
L75030 76805
L75227 77395
" />
<path d="M75424 77339
L75452 77367
L75424 77395
L75395 77367
L75424 77339
L75424 77395
" />
<path d="M76605 77395
L76605 76805
" />
<path d="M76661 77171
L76830 77395
" />
<path d="M76830 77002
L76605 77227
" />
<path d="M77083 77395
L77083 77002
" />
<path d="M77083 76805
L77055 76833
L77083 76861
L77111 76833
L77083 76805
L77083 76861
" />
<path d="M77617 77367
L77561 77395
L77448 77395
L77392 77367
L77364 77339
L77336 77283
L77336 77114
L77364 77058
L77392 77030
L77448 77002
L77561 77002
L77617 77030
" />
<path d="M78123 77395
L78123 77086
L78095 77030
L78039 77002
L77926 77002
L77870 77030
" />
<path d="M78123 77367
L78067 77395
L77926 77395
L77870 77367
L77842 77311
L77842 77255
L77870 77199
L77926 77171
L78067 77171
L78123 77142
" />
<path d="M78658 77395
L78658 76805
" />
<path d="M78658 77367
L78601 77395
L78489 77395
L78433 77367
L78404 77339
L78376 77283
L78376 77114
L78404 77058
L78433 77030
L78489 77002
L78601 77002
L78658 77030
" />
<path d="M79642 77002
L79642 77395
" />
<path d="M79501 76777
L79361 77199
L79726 77199
" />
<path d="M79951 77339
L79979 77367
L79951 77395
L79923 77367
L79951 77339
L79951 77395
" />
<path d="M80542 77395
L80204 77395
" />
<path d="M80373 77395
L80373 76805
L80317 76889
L80260 76946
L80204 76974
" />
<path d="M80795 77339
L80823 77367
L80795 77395
L80767 77367
L80795 77339
L80795 77395
" />
<path d="M81188 76805
L81245 76805
L81301 76833
L81329 76861
L81357 76917
L81385 77030
L81385 77171
L81357 77283
L81329 77339
L81301 77367
L81245 77395
L81188 77395
L81132 77367
L81104 77339
L81076 77283
L81048 77171
L81048 77030
L81076 76917
L81104 76861
L81132 76833
L81188 76805
" />
<path d="M81638 77171
L82088 77171
" />
<path d="M82623 77395
L82623 77086
L82595 77030
L82538 77002
L82426 77002
L82370 77030
" />
<path d="M82623 77367
L82566 77395
L82426 77395
L82370 77367
L82341 77311
L82341 77255
L82370 77199
L82426 77171
L82566 77171
L82623 77142
" />
<path d="M82988 77395
L82932 77367
L82904 77311
L82904 76805
" />
<path d="M83213 77002
L83213 77592
" />
<path d="M83213 77030
L83269 77002
L83382 77002
L83438 77030
L83466 77058
L83494 77114
L83494 77283
L83466 77339
L83438 77367
L83382 77395
L83269 77395
L83213 77367
" />
<path d="M83748 77395
L83748 76805
" />
<path d="M84001 77395
L84001 77086
L83973 77030
L83916 77002
L83832 77002
L83776 77030
L83748 77058
" />
<path d="M84535 77395
L84535 77086
L84507 77030
L84451 77002
L84338 77002
L84282 77030
" />
<path d="M84535 77367
L84479 77395
L84338 77395
L84282 77367
L84254 77311
L84254 77255
L84282 77199
L84338 77171
L84479 77171
L84535 77142
" />
<path d="M84816 77171
L85266 77171
" />
<path d="M85041 77395
L85041 76946
" />
<path d="M85519 76861
L85547 76833
L85604 76805
L85744 76805
L85800 76833
L85829 76861
L85857 76917
L85857 76974
L85829 77058
L85491 77395
L85857 77395
" />
<path d="M86222 76805
L86278 76805
L86335 76833
L86363 76861
L86391 76917
L86419 77030
L86419 77171
L86391 77283
L86363 77339
L86335 77367
L86278 77395
L86222 77395
L86166 77367
L86138 77339
L86110 77283
L86082 77171
L86082 77030
L86110 76917
L86138 76861
L86166 76833
L86222 76805
" />
<path d="M86982 77395
L86644 77395
" />
<path d="M86813 77395
L86813 76805
L86757 76889
L86700 76946
L86644 76974
" />
<path d="M87488 76805
L87375 76805
L87319 76833
L87291 76861
L87235 76946
L87206 77058
L87206 77283
L87235 77339
L87263 77367
L87319 77395
L87431 77395
L87488 77367
L87516 77339
L87544 77283
L87544 77142
L87516 77086
L87488 77058
L87431 77030
L87319 77030
L87263 77058
L87235 77086
L87206 77142
" />
<path d="M87910 76805
L87966 76805
L88022 76833
L88050 76861
L88078 76917
L88106 77030
L88106 77171
L88078 77283
L88050 77339
L88022 77367
L87966 77395
L87910 77395
L87853 77367
L87825 77339
L87797 77283
L87769 77171
L87769 77030
L87797 76917
L87825 76861
L87853 76833
L87910 76805
" />
<path d="M88303 76805
L88697 76805
L88444 77395
" />
<path d="M89231 77395
L88894 77395
" />
<path d="M89063 77395
L89063 76805
L89006 76889
L88950 76946
L88894 76974
" />
<path d="M89512 77395
L89625 77395
L89681 77367
L89709 77339
L89766 77255
L89794 77142
L89794 76917
L89766 76861
L89737 76833
L89681 76805
L89569 76805
L89512 76833
L89484 76861
L89456 76917
L89456 77058
L89484 77114
L89512 77142
L89569 77171
L89681 77171
L89737 77142
L89766 77114
L89794 77058
" />
<path d="M90159 76805
L90215 76805
L90272 76833
L90300 76861
L90328 76917
L90356 77030
L90356 77171
L90328 77283
L90300 77339
L90272 77367
L90215 77395
L90159 77395
L90103 77367
L90075 77339
L90047 77283
L90019 77171
L90019 77030
L90047 76917
L90075 76861
L90103 76833
L90159 76805
" />
<path d="M90553 76805
L90947 76805
L90694 77395
" />
<path d="M91481 77395
L91144 77395
" />
<path d="M91312 77395
L91312 76805
L91256 76889
L91200 76946
L91144 76974
" />
<path d="M91987 76805
L91875 76805
L91818 76833
L91790 76861
L91734 76946
L91706 77058
L91706 77283
L91734 77339
L91762 77367
L91818 77395
L91931 77395
L91987 77367
L92015 77339
L92043 77283
L92043 77142
L92015 77086
L91987 77058
L91931 77030
L91818 77030
L91762 77058
L91734 77086
L91706 77142
" />
<path d="M92296 77171
L92746 77171
" />
<path d="M92521 77395
L92521 76946
" />
<path d="M93281 76805
L93168 76805
L93112 76833
L93084 76861
L93028 76946
L93000 77058
L93000 77283
L93028 77339
L93056 77367
L93112 77395
L93224 77395
L93281 77367
L93309 77339
L93337 77283
L93337 77142
L93309 77086
L93281 77058
L93224 77030
L93112 77030
L93056 77058
L93028 77086
L93000 77142
" />
<path d="M93618 77395
L93731 77395
L93787 77367
L93815 77339
L93871 77255
L93899 77142
L93899 76917
L93871 76861
L93843 76833
L93787 76805
L93674 76805
L93618 76833
L93590 76861
L93562 76917
L93562 77058
L93590 77114
L93618 77142
L93674 77171
L93787 77171
L93843 77142
L93871 77114
L93899 77058
" />
<path d="M94237 77058
L94181 77030
L94153 77002
L94124 76946
L94124 76917
L94153 76861
L94181 76833
L94237 76805
L94349 76805
L94406 76833
L94434 76861
L94462 76917
L94462 76946
L94434 77002
L94406 77030
L94349 77058
L94237 77058
L94181 77086
L94153 77114
L94124 77171
L94124 77283
L94153 77339
L94181 77367
L94237 77395
L94349 77395
L94406 77367
L94434 77339
L94462 77283
L94462 77171
L94434 77114
L94406 77086
L94349 77058
" />
<path d="M94659 76805
L95024 76805
L94827 77030
L94912 77030
L94968 77058
L94996 77086
L95024 77142
L95024 77283
L94996 77339
L94968 77367
L94912 77395
L94743 77395
L94687 77367
L94659 77339
" />
<path d="M95234 76644
L95699 76644
" />
<path d="M95530 77002
L95530 77395
" />
<path d="M95390 76777
L95249 77199
L95615 77199
" />
<path d="M95699 76644
L96262 76644
" />
<path d="M96093 76805
L95980 76805
L95924 76833
L95896 76861
L95840 76946
L95812 77058
L95812 77283
L95840 77339
L95868 77367
L95924 77395
L96037 77395
L96093 77367
L96121 77339
L96149 77283
L96149 77142
L96121 77086
L96093 77058
L96037 77030
L95924 77030
L95868 77058
L95840 77086
L95812 77142
" />
<path d="M96655 77002
L96655 77395
" />
<path d="M96402 77002
L96402 77311
L96430 77367
L96487 77395
L96571 77395
L96627 77367
L96655 77339
" />
<path d="M96937 77395
L96937 76805
" />
<path d="M96937 77030
L96993 77002
L97105 77002
L97162 77030
L97190 77058
L97218 77114
L97218 77283
L97190 77339
L97162 77367
L97105 77395
L96993 77395
L96937 77367
" />
<path d="M97724 77002
L97724 77395
" />
<path d="M97471 77002
L97471 77311
L97499 77367
L97555 77395
L97640 77395
L97696 77367
L97724 77339
" />
<path d="M98005 77002
L98005 77395
" />
<path d="M98005 77058
L98033 77030
L98090 77002
L98174 77002
L98230 77030
L98258 77086
L98258 77395
" />
<path d="M98455 77002
L98680 77002
" />
<path d="M98539 76805
L98539 77311
L98568 77367
L98624 77395
L98680 77395
" />
<path d="M99130 77002
L99130 77395
" />
<path d="M98877 77002
L98877 77311
L98905 77367
L98961 77395
L99046 77395
L99102 77367
L99130 77339
" />
<path d="M99721 77395
L99383 77395
" />
<path d="M99552 77395
L99552 76805
L99496 76889
L99439 76946
L99383 76974
" />
<path d="M100227 77002
L100227 77395
" />
<path d="M100086 76777
L99946 77199
L100311 77199
" />
<path d="M100536 77339
L100564 77367
L100536 77395
L100508 77367
L100536 77339
L100536 77395
" />
<path d="M100930 76805
L100986 76805
L101042 76833
L101070 76861
L101099 76917
L101127 77030
L101127 77171
L101099 77283
L101070 77339
L101042 77367
L100986 77395
L100930 77395
L100874 77367
L100845 77339
L100817 77283
L100789 77171
L100789 77030
L100817 76917
L100845 76861
L100874 76833
L100930 76805
" />
<path d="M101633 77002
L101633 77395
" />
<path d="M101492 76777
L101352 77199
L101717 77199
" />
<path d="M101942 77339
L101970 77367
L101942 77395
L101914 77367
L101942 77339
L101942 77395
" />
<path d="M102533 77395
L102195 77395
" />
<path d="M102364 77395
L102364 76805
L102308 76889
L102251 76946
L102195 76974
" />
<path d="M102786 77171
L103236 77171
" />
<path d="M103517 77002
L103517 77592
" />
<path d="M103517 77030
L103573 77002
L103686 77002
L103742 77030
L103770 77058
L103798 77114
L103798 77283
L103770 77339
L103742 77367
L103686 77395
L103573 77395
L103517 77367
" />
<path d="M104051 77395
L104051 77002
" />
<path d="M104051 77114
L104079 77058
L104108 77030
L104164 77002
L104220 77002
" />
<path d="M104501 77395
L104445 77367
L104417 77339
L104389 77283
L104389 77114
L104417 77058
L104445 77030
L104501 77002
L104586 77002
L104642 77030
L104670 77058
L104698 77114
L104698 77283
L104670 77339
L104642 77367
L104586 77395
L104501 77395
" />
<path d="M105204 77395
L105204 76805
" />
<path d="M105204 77367
L105148 77395
L105036 77395
L104979 77367
L104951 77339
L104923 77283
L104923 77114
L104951 77058
L104979 77030
L105036 77002
L105148 77002
L105204 77030
" />
<path d="M105739 77002
L105739 77395
" />
<path d="M105485 77002
L105485 77311
L105514 77367
L105570 77395
L105654 77395
L105710 77367
L105739 77339
" />
<path d="M106273 77367
L106217 77395
L106104 77395
L106048 77367
L106020 77339
L105992 77283
L105992 77114
L106020 77058
L106048 77030
L106104 77002
L106217 77002
L106273 77030
" />
<path d="M106442 77002
L106667 77002
" />
<path d="M106526 76805
L106526 77311
L106554 77367
L106610 77395
L106667 77395
" />
</g>
<g style="fill:#000000; fill-opacity:0.0; 
stroke:#000000; stroke-width:39.3701; stroke-opacity:1; 
stroke-linecap:round; stroke-linejoin:round;">
</g>
<g style="fill:#000000; fill-opacity:0.0; 
stroke:#000000; stroke-width:59.0551; stroke-opacity:1; 
stroke-linecap:round; stroke-linejoin:round;">
<path d="M69685 75396
L112205 75396
" />
</g>
<g style="fill:#000000; fill-opacity:0.0; 
stroke:#000000; stroke-width:39.3701; stroke-opacity:1; 
stroke-linecap:round; stroke-linejoin:round;">
</g>
<g style="fill:#000000; fill-opacity:0.0; 
stroke:#000000; stroke-width:118.11; stroke-opacity:1; 
stroke-linecap:round; stroke-linejoin:round;">
<path d="M104099 76293
L103902 76012
" />
<path d="M103761 76293
L103761 75703
L103986 75703
L104042 75731
L104070 75759
L104099 75815
L104099 75899
L104070 75956
L104042 75984
L103986 76012
L103761 76012
" />
<path d="M104577 76265
L104520 76293
L104408 76293
L104352 76265
L104323 76209
L104323 75984
L104352 75928
L104408 75899
L104520 75899
L104577 75928
L104605 75984
L104605 76040
L104323 76096
" />
<path d="M104802 75899
L104942 76293
L105083 75899
" />
<path d="M105308 76237
L105336 76265
L105308 76293
L105280 76265
L105308 76237
L105308 76293
" />
<path d="M105308 75928
L105336 75956
L105308 75984
L105280 75956
L105308 75928
L105308 75984
" />
</g>
<g style="fill:#000000; fill-opacity:0.0; 
stroke:#000000; stroke-width:39.3701; stroke-opacity:1; 
stroke-linecap:round; stroke-linejoin:round;">
</g>
<g style="fill:#000000; fill-opacity:0.0; 
stroke:#000000; stroke-width:59.0551; stroke-opacity:1; 
stroke-linecap:round; stroke-linejoin:round;">
<path d="M70221 76265
L70305 76293
L70446 76293
L70502 76265
L70530 76237
L70559 76181
L70559 76124
L70530 76068
L70502 76040
L70446 76012
L70334 75984
L70277 75956
L70249 75928
L70221 75871
L70221 75815
L70249 75759
L70277 75731
L70334 75703
L70474 75703
L70559 75731
" />
<path d="M70812 76293
L70812 75899
" />
<path d="M70812 75703
L70784 75731
L70812 75759
L70840 75731
L70812 75703
L70812 75759
" />
<path d="M71037 75899
L71346 75899
L71037 76293
L71346 76293
" />
<path d="M71796 76265
L71740 76293
L71627 76293
L71571 76265
L71543 76209
L71543 75984
L71571 75928
L71627 75899
L71740 75899
L71796 75928
L71824 75984
L71824 76040
L71543 76096
" />
<path d="M72077 76237
L72105 76265
L72077 76293
L72049 76265
L72077 76237
L72077 76293
" />
<path d="M72077 75928
L72105 75956
L72077 75984
L72049 75956
L72077 75928
L72077 75984
" />
<path d="M72780 76124
L73061 76124
" />
<path d="M72724 76293
L72921 75703
L73118 76293
" />
<path d="M73568 75899
L73568 76293
" />
<path d="M73427 75674
L73286 76096
L73652 76096
" />
</g>
<g style="fill:#000000; fill-opacity:0.0; 
stroke:#000000; stroke-width:39.3701; stroke-opacity:1; 
stroke-linecap:round; stroke-linejoin:round;">
</g>
<g style="fill:#000000; fill-opacity:0.0; 
stroke:#000000; stroke-width:59.0551; stroke-opacity:1; 
stroke-linecap:round; stroke-linejoin:round;">
<path d="M103714 77395
L103714 76805
" />
<path d="M104248 77395
L104248 76805
" />
<path d="M104248 77367
L104192 77395
L104079 77395
L104023 77367
L103995 77339
L103967 77283
L103967 77114
L103995 77058
L104023 77030
L104079 77002
L104192 77002
L104248 77030
" />
<path d="M104529 77339
L104557 77367
L104529 77395
L104501 77367
L104529 77339
L104529 77395
" />
<path d="M104529 77030
L104557 77058
L104529 77086
L104501 77058
L104529 77030
L104529 77086
" />
<path d="M105570 77395
L105232 77395
" />
<path d="M105401 77395
L105401 76805
L105345 76889
L105289 76946
L105232 76974
" />
<path d="M106245 76777
L105739 77536
" />
<path d="M106751 77395
L106413 77395
" />
<path d="M106582 77395
L106582 76805
L106526 76889
L106470 76946
L106413 76974
" />
</g>
<g style="fill:#000000; fill-opacity:0.0; 
stroke:#000000; stroke-width:39.3701; stroke-opacity:1; 
stroke-linecap:round; stroke-linejoin:round;">
</g>
<g style="fill:#000000; fill-opacity:0.0; 
stroke:#000000; stroke-width:59.0551; stroke-opacity:1; 
stroke-linecap:round; stroke-linejoin:round;">
<path d="M69685 73821
L112205 73821
" />
</g>
<g style="fill:#000000; fill-opacity:0.0; 
stroke:#000000; stroke-width:39.3701; stroke-opacity:1; 
stroke-linecap:round; stroke-linejoin:round;">
</g>
<g style="fill:#000000; fill-opacity:0.0; 
stroke:#000000; stroke-width:157.48; stroke-opacity:1; 
stroke-linecap:round; stroke-linejoin:round;">
<path d="M70360 74099
L70810 74099
" />
<path d="M70486 74886
L70585 74099
" />
<path d="M70974 74886
L71039 74361
" />
<path d="M71072 74099
L71030 74136
L71063 74174
L71105 74136
L71072 74099
L71063 74174
" />
<path d="M71302 74361
L71602 74361
" />
<path d="M71447 74099
L71363 74774
L71391 74849
L71461 74886
L71536 74886
" />
<path d="M71911 74886
L71841 74849
L71813 74774
L71897 74099
" />
<path d="M72516 74849
L72436 74886
L72286 74886
L72216 74849
L72187 74774
L72225 74474
L72272 74399
L72352 74361
L72501 74361
L72572 74399
L72600 74474
L72591 74549
L72206 74624
" />
<path d="M72895 74811
L72928 74849
L72886 74886
L72853 74849
L72895 74811
L72886 74886
" />
<path d="M72947 74399
L72980 74436
L72937 74474
L72905 74436
L72947 74399
L72937 74474
" />
</g>
<g style="fill:#000000; fill-opacity:0.0; 
stroke:#000000; stroke-width:39.3701; stroke-opacity:1; 
stroke-linecap:round; stroke-linejoin:round;">
</g>
<g style="fill:#000000; fill-opacity:0.0; 
stroke:#000000; stroke-width:59.0551; stroke-opacity:1; 
stroke-linecap:round; stroke-linejoin:round;">
<path d="M70446 73070
L70249 73070
" />
<path d="M70249 73380
L70249 72789
L70530 72789
" />
<path d="M70755 73380
L70755 72986
" />
<path d="M70755 72789
L70727 72817
L70755 72845
L70784 72817
L70755 72789
L70755 72845
" />
<path d="M71121 73380
L71065 73352
L71037 73295
L71037 72789
" />
<path d="M71571 73352
L71515 73380
L71402 73380
L71346 73352
L71318 73295
L71318 73070
L71346 73014
L71402 72986
L71515 72986
L71571 73014
L71599 73070
L71599 73127
L71318 73183
" />
<path d="M71852 73323
L71880 73352
L71852 73380
L71824 73352
L71852 73323
L71852 73380
" />
<path d="M71852 73014
L71880 73042
L71852 73070
L71824 73042
L71852 73014
L71852 73070
" />
<path d="M72499 72789
L72836 72789
" />
<path d="M72668 73380
L72668 72789
" />
<path d="M73286 72986
L73286 73380
" />
<path d="M73033 72986
L73033 73295
L73061 73352
L73118 73380
L73202 73380
L73258 73352
L73286 73323
" />
<path d="M73568 73380
L73568 72986
" />
<path d="M73568 73099
L73596 73042
L73624 73014
L73680 72986
L73736 72986
" />
<path d="M73933 73380
L73933 72789
" />
<path d="M73933 73014
L73989 72986
L74102 72986
L74158 73014
L74186 73042
L74214 73099
L74214 73267
L74186 73323
L74158 73352
L74102 73380
L73989 73380
L73933 73352
" />
<path d="M74467 73380
L74467 72986
" />
<path d="M74467 72789
L74439 72817
L74467 72845
L74496 72817
L74467 72789
L74467 72845
" />
<path d="M75002 73380
L75002 72789
" />
<path d="M75002 73352
L74946 73380
L74833 73380
L74777 73352
L74749 73323
L74721 73267
L74721 73099
L74749 73042
L74777 73014
L74833 72986
L74946 72986
L75002 73014
" />
<path d="M75283 73380
L75283 72986
" />
<path d="M75283 72789
L75255 72817
L75283 72845
L75311 72817
L75283 72789
L75283 72845
" />
<path d="M75817 72986
L75817 73464
L75789 73520
L75761 73548
L75705 73577
L75620 73577
L75564 73548
" />
<path d="M75817 73352
L75761 73380
L75649 73380
L75592 73352
L75564 73323
L75536 73267
L75536 73099
L75564 73042
L75592 73014
L75649 72986
L75761 72986
L75817 73014
" />
<path d="M76099 72986
L76099 73380
" />
<path d="M76099 73042
L76127 73014
L76183 72986
L76267 72986
L76323 73014
L76352 73070
L76352 73380
" />
<path d="M76886 72986
L76886 73380
" />
<path d="M76633 72986
L76633 73295
L76661 73352
L76717 73380
L76802 73380
L76858 73352
L76886 73323
" />
<path d="M77139 73352
L77195 73380
L77308 73380
L77364 73352
L77392 73295
L77392 73267
L77364 73211
L77308 73183
L77223 73183
L77167 73155
L77139 73099
L77139 73070
L77167 73014
L77223 72986
L77308 72986
L77364 73014
" />
<path d="M77645 73380
L77645 72789
" />
<path d="M77645 73014
L77701 72986
L77814 72986
L77870 73014
L77898 73042
L77926 73099
L77926 73267
L77898 73323
L77870 73352
L77814 73380
L77701 73380
L77645 73352
" />
<path d="M78180 73323
L78208 73352
L78180 73380
L78151 73352
L78180 73323
L78180 73380
" />
<path d="M78461 73380
L78461 72789
" />
<path d="M78517 73155
L78686 73380
" />
<path d="M78686 72986
L78461 73211
" />
<path d="M78939 73380
L78939 72986
" />
<path d="M78939 72789
L78911 72817
L78939 72845
L78967 72817
L78939 72789
L78939 72845
" />
<path d="M79473 73352
L79417 73380
L79304 73380
L79248 73352
L79220 73323
L79192 73267
L79192 73099
L79220 73042
L79248 73014
L79304 72986
L79417 72986
L79473 73014
" />
<path d="M79979 73380
L79979 73070
L79951 73014
L79895 72986
L79782 72986
L79726 73014
" />
<path d="M79979 73352
L79923 73380
L79782 73380
L79726 73352
L79698 73295
L79698 73239
L79726 73183
L79782 73155
L79923 73155
L79979 73127
" />
<path d="M80514 73380
L80514 72789
" />
<path d="M80514 73352
L80457 73380
L80345 73380
L80289 73352
L80260 73323
L80232 73267
L80232 73099
L80260 73042
L80289 73014
L80345 72986
L80457 72986
L80514 73014
" />
<path d="M80654 73436
L81104 73436
" />
<path d="M81245 72986
L81245 73577
" />
<path d="M81245 73014
L81301 72986
L81413 72986
L81470 73014
L81498 73042
L81526 73099
L81526 73267
L81498 73323
L81470 73352
L81413 73380
L81301 73380
L81245 73352
" />
<path d="M82032 73352
L81976 73380
L81863 73380
L81807 73352
L81779 73323
L81751 73267
L81751 73099
L81779 73042
L81807 73014
L81863 72986
L81976 72986
L82032 73014
" />
<path d="M82285 73380
L82285 72789
" />
<path d="M82285 73014
L82341 72986
L82454 72986
L82510 73014
L82538 73042
L82566 73099
L82566 73267
L82538 73323
L82510 73352
L82454 73380
L82341 73380
L82285 73352
" />
</g>
<g style="fill:#000000; fill-opacity:0.0; 
stroke:#000000; stroke-width:39.3701; stroke-opacity:1; 
stroke-linecap:round; stroke-linejoin:round;">
</g>
<g style="fill:#000000; fill-opacity:0.0; 
stroke:#000000; stroke-width:59.0551; stroke-opacity:1; 
stroke-linecap:round; stroke-linejoin:round;">
<path d="M69685 71459
L112205 71459
" />
</g>
<g style="fill:#000000; fill-opacity:0.0; 
stroke:#000000; stroke-width:39.3701; stroke-opacity:1; 
stroke-linecap:round; stroke-linejoin:round;">
</g>
<g style="fill:#000000; fill-opacity:0.0; 
stroke:#000000; stroke-width:59.0551; stroke-opacity:1; 
stroke-linecap:round; stroke-linejoin:round;">
<path d="M70221 72289
L70305 72317
L70446 72317
L70502 72289
L70530 72260
L70559 72204
L70559 72148
L70530 72092
L70502 72064
L70446 72036
L70334 72007
L70277 71979
L70249 71951
L70221 71895
L70221 71839
L70249 71782
L70277 71754
L70334 71726
L70474 71726
L70559 71754
" />
<path d="M70812 72317
L70812 71726
" />
<path d="M71065 72317
L71065 72007
L71037 71951
L70980 71923
L70896 71923
L70840 71951
L70812 71979
" />
<path d="M71571 72289
L71515 72317
L71402 72317
L71346 72289
L71318 72232
L71318 72007
L71346 71951
L71402 71923
L71515 71923
L71571 71951
L71599 72007
L71599 72064
L71318 72120
" />
<path d="M72077 72289
L72021 72317
L71908 72317
L71852 72289
L71824 72232
L71824 72007
L71852 71951
L71908 71923
L72021 71923
L72077 71951
L72105 72007
L72105 72064
L71824 72120
" />
<path d="M72274 71923
L72499 71923
" />
<path d="M72358 71726
L72358 72232
L72386 72289
L72443 72317
L72499 72317
" />
<path d="M72696 72260
L72724 72289
L72696 72317
L72668 72289
L72696 72260
L72696 72317
" />
<path d="M72696 71951
L72724 71979
L72696 72007
L72668 71979
L72696 71951
L72696 72007
" />
</g>
<g style="fill:#000000; fill-opacity:0.0; 
stroke:#000000; stroke-width:39.3701; stroke-opacity:1; 
stroke-linecap:round; stroke-linejoin:round;">
</g>
<g style="fill:#000000; fill-opacity:0.0; 
stroke:#000000; stroke-width:59.0551; stroke-opacity:1; 
stroke-linecap:round; stroke-linejoin:round;">
<path d="M77559 75396
L77559 76577
" />
</g>
<g style="fill:#000000; fill-opacity:0.0; 
stroke:#000000; stroke-width:39.3701; stroke-opacity:1; 
stroke-linecap:round; stroke-linejoin:round;">
</g>
<g style="fill:#000000; fill-opacity:0.0; 
stroke:#000000; stroke-width:59.0551; stroke-opacity:1; 
stroke-linecap:round; stroke-linejoin:round;">
<path d="M102756 75396
L102756 77955
" />
</g>
<g style="fill:#000000; fill-opacity:0.0; 
stroke:#000000; stroke-width:78.7402; stroke-opacity:1; 
stroke-linecap:round; stroke-linejoin:round;">
<path d="M30946 33096
L30965 33040
L30984 33021
L31021 33002
L31078 33002
L31115 33021
L31134 33040
L31153 33077
L31153 33227
L30759 33227
L30759 33096
L30778 33059
L30796 33040
L30834 33021
L30871 33021
L30909 33040
L30928 33059
L30946 33096
L30946 33227
" />
<path d="M31153 32665
L30946 32665
L30909 32684
L30890 32721
L30890 32796
L30909 32834
" />
<path d="M31134 32665
L31153 32702
L31153 32796
L31134 32834
L31096 32852
L31059 32852
L31021 32834
L31003 32796
L31003 32702
L30984 32665
" />
<path d="M31153 32477
L30759 32477
" />
<path d="M30909 32477
L30890 32440
L30890 32365
L30909 32327
L30928 32309
L30965 32290
L31078 32290
L31115 32309
L31134 32327
L31153 32365
L31153 32440
L31134 32477
" />
<path d="M30890 32159
L31153 32065
" />
<path d="M30890 31971
L31153 32065
L31246 32102
L31265 32121
L31284 32159
" />
<path d="M30778 31615
L30759 31653
L30759 31709
L30778 31765
L30815 31803
L30853 31821
L30928 31840
L30984 31840
L31059 31821
L31096 31803
L31134 31765
L31153 31709
L31153 31671
L31134 31615
L31115 31596
L30984 31596
L30984 31671
" />
<path d="M30890 31428
L31153 31428
" />
<path d="M30928 31428
L30909 31409
L30890 31371
L30890 31315
L30909 31278
L30946 31259
L31153 31259
" />
<path d="M30890 30903
L31153 30903
" />
<path d="M30890 31071
L31096 31071
L31134 31053
L31153 31015
L31153 30959
L31134 30921
L31115 30903
" />
<path d="M31134 30734
L31153 30696
L31153 30621
L31134 30584
L31096 30565
L31078 30565
L31040 30584
L31021 30621
L31021 30678
L31003 30715
L30965 30734
L30946 30734
L30909 30715
L30890 30678
L30890 30621
L30909 30584
" />
<path d="M31153 30396
L30759 30396
" />
<path d="M30909 30396
L30890 30359
L30890 30284
L30909 30246
L30928 30228
L30965 30209
L31078 30209
L31115 30228
L31134 30246
L31153 30284
L31153 30359
L31134 30396
" />
<path d="M30890 29872
L31153 29872
" />
<path d="M30890 30040
L31096 30040
L31134 30022
L31153 29984
L31153 29928
L31134 29890
L31115 29872
" />
<path d="M30890 29684
L31153 29684
" />
<path d="M30928 29684
L30909 29665
L30890 29628
L30890 29572
L30909 29534
L30946 29515
L31153 29515
" />
<path d="M31153 29328
L30890 29328
" />
<path d="M30759 29328
L30778 29347
L30796 29328
L30778 29309
L30759 29328
L30796 29328
" />
<path d="M31153 29084
L31134 29122
L31115 29140
L31078 29159
L30965 29159
L30928 29140
L30909 29122
L30890 29084
L30890 29028
L30909 28990
L30928 28972
L30965 28953
L31078 28953
L31115 28972
L31134 28990
L31153 29028
L31153 29084
" />
<path d="M32397 28265
L32584 28265
" />
<path d="M32359 28378
L32490 27984
L32621 28378
" />
<path d="M32696 27984
L32921 27984
" />
<path d="M32809 28378
L32809 27984
" />
<path d="M32996 28115
L33146 28115
" />
<path d="M33053 27984
L33053 28321
L33071 28359
L33109 28378
L33146 28378
" />
<path d="M33278 28378
L33278 28115
" />
<path d="M33278 27984
L33259 28003
L33278 28021
L33296 28003
L33278 27984
L33278 28021
" />
<path d="M33465 28115
L33465 28378
" />
<path d="M33465 28153
L33484 28134
L33521 28115
L33578 28115
L33615 28134
L33634 28171
L33634 28378
" />
<path d="M33784 28115
L33878 28378
" />
<path d="M33971 28115
L33878 28378
L33840 28471
L33821 28490
L33784 28509
" />
<path d="M34178 28153
L34140 28134
L34121 28115
L34103 28078
L34103 28059
L34121 28021
L34140 28003
L34178 27984
L34253 27984
L34290 28003
L34309 28021
L34328 28059
L34328 28078
L34309 28115
L34290 28134
L34253 28153
L34178 28153
L34140 28171
L34121 28190
L34103 28228
L34103 28303
L34121 28340
L34140 28359
L34178 28378
L34253 28378
L34290 28359
L34309 28340
L34328 28303
L34328 28228
L34309 28190
L34290 28171
L34253 28153
" />
<path d="M34684 27984
L34496 27984
L34478 28171
L34496 28153
L34534 28134
L34627 28134
L34665 28153
L34684 28171
L34702 28209
L34702 28303
L34684 28340
L34665 28359
L34627 28378
L34534 28378
L34496 28359
L34478 28340
" />
<path d="M30640 35153
L30640 34759
" />
<path d="M30809 35134
L30865 35153
L30959 35153
L30996 35134
L31015 35115
L31034 35078
L31034 35040
L31015 35003
L30996 34984
L30959 34965
L30884 34946
L30846 34928
L30828 34909
L30809 34871
L30809 34834
L30828 34796
L30846 34778
L30884 34759
L30978 34759
L31034 34778
" />
<path d="M31203 35153
L31203 34759
L31353 34759
L31390 34778
L31409 34796
L31428 34834
L31428 34890
L31409 34928
L31390 34946
L31353 34965
L31203 34965
" />
</g>
<g style="fill:#000000; fill-opacity:0.0; 
stroke:#000000; stroke-width:118.11; stroke-opacity:1; 
stroke-linecap:round; stroke-linejoin:round;">
<path d="M37251 47626
L37251 47288
" />
<path d="M37842 47457
L37251 47457
" />
<path d="M37448 46838
L37842 46838
" />
<path d="M37448 47091
L37757 47091
L37814 47063
L37842 47007
L37842 46923
L37814 46866
L37785 46838
" />
<path d="M37842 46557
L37448 46557
" />
<path d="M37560 46557
L37504 46529
L37476 46501
L37448 46445
L37448 46388
" />
<path d="M37842 46191
L37251 46191
" />
<path d="M37476 46191
L37448 46135
L37448 46023
L37476 45966
L37504 45938
L37560 45910
L37729 45910
L37785 45938
L37814 45966
L37842 46023
L37842 46135
L37814 46191
" />
<path d="M37842 45657
L37448 45657
" />
<path d="M37251 45657
L37279 45685
L37307 45657
L37279 45629
L37251 45657
L37307 45657
" />
<path d="M37842 45123
L37251 45123
" />
<path d="M37814 45123
L37842 45179
L37842 45292
L37814 45348
L37785 45376
L37729 45404
L37560 45404
L37504 45376
L37476 45348
L37448 45292
L37448 45179
L37476 45123
" />
<path d="M37842 44842
L37448 44842
" />
<path d="M37251 44842
L37279 44870
L37307 44842
L37279 44814
L37251 44842
L37307 44842
" />
<path d="M37448 44645
L37448 44420
" />
<path d="M37251 44560
L37757 44560
L37814 44532
L37842 44476
L37842 44420
" />
<path d="M37448 44279
L37842 44139
" />
<path d="M37448 43998
L37842 44139
L37982 44195
L38010 44223
L38039 44279
" />
<path d="M37279 43464
L37251 43520
L37251 43604
L37279 43689
L37335 43745
L37392 43773
L37504 43801
L37589 43801
L37701 43773
L37757 43745
L37814 43689
L37842 43604
L37842 43548
L37814 43464
L37785 43436
L37589 43436
L37589 43548
" />
<path d="M37448 43182
L37842 43182
" />
<path d="M37504 43182
L37476 43154
L37448 43098
L37448 43014
L37476 42957
L37532 42929
L37842 42929
" />
<path d="M37251 42648
L37729 42648
L37785 42620
L37814 42592
L37842 42536
L37842 42423
L37814 42367
L37785 42339
L37729 42311
L37251 42311
" />
<path d="M37814 42058
L37842 41973
L37842 41833
L37814 41776
L37785 41748
L37729 41720
L37673 41720
L37617 41748
L37589 41776
L37560 41833
L37532 41945
L37504 42001
L37476 42029
L37420 42058
L37364 42058
L37307 42029
L37279 42001
L37251 41945
L37251 41805
L37279 41720
" />
<path d="M37532 41270
L37560 41186
L37589 41158
L37645 41130
L37729 41130
L37785 41158
L37814 41186
L37842 41242
L37842 41467
L37251 41467
L37251 41270
L37279 41214
L37307 41186
L37364 41158
L37420 41158
L37476 41186
L37504 41214
L37532 41270
L37532 41467
" />
</g>
<g style="fill:#000000; fill-opacity:0.0; 
stroke:#000000; stroke-width:39.3701; stroke-opacity:1; 
stroke-linecap:round; stroke-linejoin:round;">
<path d="M37793 54717
L29135 54717
" />
<path d="M27570 53327
L27562 53168
" />
<path d="M27594 53481
L27570 53327
" />
<path d="M27633 53629
L27594 53481
" />
<path d="M27685 53771
L27633 53629
" />
<path d="M27752 53907
L27685 53771
" />
<path d="M27830 54034
L27752 53907
" />
<path d="M27921 54154
L27830 54034
" />
<path d="M28023 54264
L27921 54154
" />
<path d="M28134 54364
L28023 54264
" />
<path d="M28255 54453
L28134 54364
" />
<path d="M28385 54530
L28255 54453
" />
<path d="M28523 54596
L28385 54530
" />
<path d="M28667 54648
L28523 54596
" />
<path d="M28818 54686
L28667 54648
" />
<path d="M28974 54709
L28818 54686
" />
<path d="M29135 54717
L28974 54709
" />
<path d="M37954 54709
L37793 54717
" />
<path d="M38110 54686
L37954 54709
" />
<path d="M38261 54648
L38110 54686
" />
<path d="M38406 54596
L38261 54648
" />
<path d="M38543 54530
L38406 54596
" />
<path d="M38673 54453
L38543 54530
" />
<path d="M38794 54364
L38673 54453
" />
<path d="M38906 54264
L38794 54364
" />
<path d="M39007 54154
L38906 54264
" />
<path d="M39098 54034
L39007 54154
" />
<path d="M39177 53907
L39098 54034
" />
<path d="M39243 53771
L39177 53907
" />
<path d="M39296 53629
L39243 53771
" />
<path d="M39335 53481
L39296 53629
" />
<path d="M39359 53327
L39335 53481
" />
<path d="M39367 53168
L39359 53327
" />
<path d="M29129 23221
L37787 23221
" />
<path d="M39353 24612
L39361 24770
" />
<path d="M39329 24458
L39353 24612
" />
<path d="M39290 24310
L39329 24458
" />
<path d="M39237 24167
L39290 24310
" />
<path d="M39171 24032
L39237 24167
" />
<path d="M39092 23904
L39171 24032
" />
<path d="M39002 23785
L39092 23904
" />
<path d="M38900 23675
L39002 23785
" />
<path d="M38788 23575
L38900 23675
" />
<path d="M38667 23486
L38788 23575
" />
<path d="M38537 23408
L38667 23486
" />
<path d="M38400 23343
L38537 23408
" />
<path d="M38255 23291
L38400 23343
" />
<path d="M38104 23253
L38255 23291
" />
<path d="M37948 23229
L38104 23253
" />
<path d="M37787 23221
L37948 23229
" />
<path d="M28968 23229
L29129 23221
" />
<path d="M28812 23253
L28968 23229
" />
<path d="M28661 23291
L28812 23253
" />
<path d="M28517 23343
L28661 23291
" />
<path d="M28379 23408
L28517 23343
" />
<path d="M28250 23486
L28379 23408
" />
<path d="M28128 23575
L28250 23486
" />
<path d="M28017 23675
L28128 23575
" />
<path d="M27915 23785
L28017 23675
" />
<path d="M27825 23904
L27915 23785
" />
<path d="M27746 24032
L27825 23904
" />
<path d="M27679 24167
L27746 24032
" />
<path d="M27627 24310
L27679 24167
" />
<path d="M27588 24458
L27627 24310
" />
<path d="M27564 24612
L27588 24458
" />
<path d="M27556 24770
L27564 24612
" />
<path d="M39361 24771
L39361 53171
" />
<path d="M27561 53172
L27556 24770
" />
</g>
<g style="fill:#000000; fill-opacity:0.0; 
stroke:#000000; stroke-width:59.0551; stroke-opacity:1; 
stroke-linecap:round; stroke-linejoin:round;">
<path d="M36859 23878
L36859 23484
L36953 23484
L37009 23503
L37046 23540
L37065 23578
L37084 23653
L37084 23709
L37065 23784
L37046 23821
L37009 23859
L36953 23878
L36859 23878
" />
<path d="M37459 23878
L37234 23878
" />
<path d="M37346 23878
L37346 23484
L37309 23540
L37271 23578
L37234 23596
" />
<path d="M28159 34378
L28159 33984
L28253 33984
L28309 34003
L28346 34040
L28365 34078
L28384 34153
L28384 34209
L28365 34284
L28346 34321
L28309 34359
L28253 34378
L28159 34378
" />
<path d="M28534 34021
L28553 34003
L28590 33984
L28684 33984
L28721 34003
L28740 34021
L28759 34059
L28759 34096
L28740 34153
L28515 34378
L28759 34378
" />
<path d="M31009 24028
L31009 23634
L31159 23634
L31196 23653
L31215 23671
L31234 23709
L31234 23765
L31215 23803
L31196 23821
L31159 23840
L31009 23840
" />
<path d="M31609 24028
L31384 24028
" />
<path d="M31496 24028
L31496 23634
L31459 23690
L31421 23728
L31384 23746
" />
<path d="M38428 30984
L38240 31115
" />
<path d="M38428 31209
L38034 31209
L38034 31059
L38053 31021
L38071 31003
L38109 30984
L38165 30984
L38203 31003
L38221 31021
L38240 31059
L38240 31209
" />
<path d="M38034 30871
L38428 30740
L38034 30609
" />
<path d="M38428 30271
L38428 30496
" />
<path d="M38428 30384
L38034 30384
L38090 30421
L38128 30459
L38146 30496
" />
<path d="M38959 34674
L38978 34618
L38978 34524
L38959 34487
L38940 34468
L38903 34449
L38865 34449
L38828 34468
L38809 34487
L38790 34524
L38771 34599
L38753 34637
L38734 34656
L38696 34674
L38659 34674
L38621 34656
L38603 34637
L38584 34599
L38584 34506
L38603 34449
" />
<path d="M38584 34318
L38978 34224
L38696 34150
L38978 34075
L38584 33981
" />
<path d="M38978 33625
L38978 33850
" />
<path d="M38978 33737
L38584 33737
L38640 33775
L38678 33812
L38696 33850
" />
<path d="M38928 26815
L38740 26946
" />
<path d="M38928 27040
L38534 27040
L38534 26890
L38553 26853
L38571 26834
L38609 26815
L38665 26815
L38703 26834
L38721 26853
L38740 26890
L38740 27040
" />
<path d="M38928 26440
L38928 26665
" />
<path d="M38928 26553
L38534 26553
L38590 26590
L38628 26628
L38646 26665
" />
<path d="M35184 28378
L35053 28190
" />
<path d="M34959 28378
L34959 27984
L35109 27984
L35146 28003
L35165 28021
L35184 28059
L35184 28115
L35165 28153
L35146 28171
L35109 28190
L34959 28190
" />
<path d="M35334 28021
L35353 28003
L35390 27984
L35484 27984
L35521 28003
L35540 28021
L35559 28059
L35559 28096
L35540 28153
L35315 28378
L35559 28378
" />
<path d="M31184 27578
L31053 27390
" />
<path d="M30959 27578
L30959 27184
L31109 27184
L31146 27203
L31165 27221
L31184 27259
L31184 27315
L31165 27353
L31146 27371
L31109 27390
L30959 27390
" />
<path d="M31521 27315
L31521 27578
" />
<path d="M31428 27165
L31334 27446
L31578 27446
" />
<path d="M35784 27578
L35653 27390
" />
<path d="M35559 27578
L35559 27184
L35709 27184
L35746 27203
L35765 27221
L35784 27259
L35784 27315
L35765 27353
L35746 27371
L35709 27390
L35559 27390
" />
<path d="M36140 27184
L35953 27184
L35934 27371
L35953 27353
L35990 27334
L36084 27334
L36121 27353
L36140 27371
L36159 27409
L36159 27503
L36140 27540
L36121 27559
L36084 27578
L35990 27578
L35953 27559
L35934 27540
" />
<path d="M38928 25815
L38740 25946
" />
<path d="M38928 26040
L38534 26040
L38534 25890
L38553 25853
L38571 25834
L38609 25815
L38665 25815
L38703 25834
L38721 25853
L38740 25890
L38740 26040
" />
<path d="M38534 25478
L38534 25553
L38553 25590
L38571 25609
L38628 25646
L38703 25665
L38853 25665
L38890 25646
L38909 25628
L38928 25590
L38928 25515
L38909 25478
L38890 25459
L38853 25440
L38759 25440
L38721 25459
L38703 25478
L38684 25515
L38684 25590
L38703 25628
L38721 25646
L38759 25665
" />
<path d="M28384 31978
L28253 31790
" />
<path d="M28159 31978
L28159 31584
L28309 31584
L28346 31603
L28365 31621
L28384 31659
L28384 31715
L28365 31753
L28346 31771
L28309 31790
L28159 31790
" />
<path d="M28515 31584
L28778 31584
L28609 31978
" />
<path d="M28334 30578
L28203 30390
" />
<path d="M28109 30578
L28109 30184
L28259 30184
L28296 30203
L28315 30221
L28334 30259
L28334 30315
L28315 30353
L28296 30371
L28259 30390
L28109 30390
" />
<path d="M28559 30353
L28521 30334
L28503 30315
L28484 30278
L28484 30259
L28503 30221
L28521 30203
L28559 30184
L28634 30184
L28671 30203
L28690 30221
L28709 30259
L28709 30278
L28690 30315
L28671 30334
L28634 30353
L28559 30353
L28521 30371
L28503 30390
L28484 30428
L28484 30503
L28503 30540
L28521 30559
L28559 30578
L28634 30578
L28671 30559
L28690 30540
L28709 30503
L28709 30428
L28690 30390
L28671 30371
L28634 30353
" />
<path d="M28334 28628
L28203 28440
" />
<path d="M28109 28628
L28109 28234
L28259 28234
L28296 28253
L28315 28271
L28334 28309
L28334 28365
L28315 28403
L28296 28421
L28259 28440
L28109 28440
" />
<path d="M28521 28628
L28596 28628
L28634 28609
L28653 28590
L28690 28534
L28709 28459
L28709 28309
L28690 28271
L28671 28253
L28634 28234
L28559 28234
L28521 28253
L28503 28271
L28484 28309
L28484 28403
L28503 28440
L28521 28459
L28559 28478
L28634 28478
L28671 28459
L28690 28440
L28709 28403
" />
<path d="M28096 29578
L27965 29390
" />
<path d="M27871 29578
L27871 29184
L28021 29184
L28059 29203
L28078 29221
L28096 29259
L28096 29315
L28078 29353
L28059 29371
L28021 29390
L27871 29390
" />
<path d="M28471 29578
L28246 29578
" />
<path d="M28359 29578
L28359 29184
L28321 29240
L28284 29278
L28246 29296
" />
<path d="M28715 29184
L28753 29184
L28790 29203
L28809 29221
L28828 29259
L28846 29334
L28846 29428
L28828 29503
L28809 29540
L28790 29559
L28753 29578
L28715 29578
L28678 29559
L28659 29540
L28640 29503
L28621 29428
L28621 29334
L28640 29259
L28659 29221
L28678 29203
L28715 29184
" />
<path d="M35796 31678
L35665 31490
" />
<path d="M35571 31678
L35571 31284
L35721 31284
L35759 31303
L35778 31321
L35796 31359
L35796 31415
L35778 31453
L35759 31471
L35721 31490
L35571 31490
" />
<path d="M36171 31678
L35946 31678
" />
<path d="M36059 31678
L36059 31284
L36021 31340
L35984 31378
L35946 31396
" />
<path d="M36546 31678
L36321 31678
" />
<path d="M36434 31678
L36434 31284
L36396 31340
L36359 31378
L36321 31396
" />
<path d="M35509 25678
L35509 25284
L35603 25284
L35659 25303
L35696 25340
L35715 25378
L35734 25453
L35734 25509
L35715 25584
L35696 25621
L35659 25659
L35603 25678
L35509 25678
" />
<path d="M36071 25415
L36071 25678
" />
<path d="M35978 25265
L35884 25546
L36128 25546
" />
<path d="M30859 25728
L30859 25334
L30953 25334
L31009 25353
L31046 25390
L31065 25428
L31084 25503
L31084 25559
L31065 25634
L31046 25671
L31009 25709
L30953 25728
L30859 25728
" />
<path d="M31440 25334
L31253 25334
L31234 25521
L31253 25503
L31290 25484
L31384 25484
L31421 25503
L31440 25521
L31459 25559
L31459 25653
L31440 25690
L31421 25709
L31384 25728
L31290 25728
L31253 25709
L31234 25690
" />
<path d="M41050 37928
L40918 37740
" />
<path d="M40825 37928
L40825 37534
L40975 37534
L41012 37553
L41031 37571
L41050 37609
L41050 37665
L41031 37703
L41012 37721
L40975 37740
L40825 37740
" />
<path d="M41218 37721
L41350 37721
" />
<path d="M41406 37928
L41218 37928
L41218 37534
L41406 37534
" />
<path d="M41706 37721
L41575 37721
" />
<path d="M41575 37928
L41575 37534
L41762 37534
" />
<path d="M41968 37534
L41968 37628
" />
<path d="M41874 37590
L41968 37628
L42062 37590
" />
<path d="M41912 37703
L41968 37628
L42024 37703
" />
<path d="M42268 37534
L42268 37628
" />
<path d="M42174 37590
L42268 37628
L42362 37590
" />
<path d="M42212 37703
L42268 37628
L42324 37703
" />
<path d="M25450 38403
L25318 38215
" />
<path d="M25225 38403
L25225 38009
L25375 38009
L25412 38028
L25431 38046
L25450 38084
L25450 38140
L25431 38178
L25412 38196
L25375 38215
L25225 38215
" />
<path d="M25618 38196
L25750 38196
" />
<path d="M25806 38403
L25618 38403
L25618 38009
L25806 38009
" />
<path d="M26106 38196
L25975 38196
" />
<path d="M25975 38403
L25975 38009
L26162 38009
" />
<path d="M26368 38009
L26368 38103
" />
<path d="M26274 38065
L26368 38103
L26462 38065
" />
<path d="M26312 38178
L26368 38103
L26424 38178
" />
<path d="M26668 38009
L26668 38103
" />
<path d="M26574 38065
L26668 38103
L26762 38065
" />
<path d="M26612 38178
L26668 38103
L26724 38178
" />
<path d="M34759 40428
L34759 40034
L34853 40034
L34909 40053
L34946 40090
L34965 40128
L34984 40203
L34984 40259
L34965 40334
L34946 40371
L34909 40409
L34853 40428
L34759 40428
" />
<path d="M35115 40034
L35359 40034
L35228 40184
L35284 40184
L35321 40203
L35340 40221
L35359 40259
L35359 40353
L35340 40390
L35321 40409
L35284 40428
L35171 40428
L35134 40409
L35115 40390
" />
<path d="M34534 51128
L34403 50940
" />
<path d="M34309 51128
L34309 50734
L34459 50734
L34496 50753
L34515 50771
L34534 50809
L34534 50865
L34515 50903
L34496 50921
L34459 50940
L34309 50940
" />
<path d="M34665 50734
L34909 50734
L34778 50884
L34834 50884
L34871 50903
L34890 50921
L34909 50959
L34909 51053
L34890 51090
L34871 51109
L34834 51128
L34721 51128
L34684 51109
L34665 51090
" />
<path d="M28525 55578
L28393 55390
" />
<path d="M28300 55578
L28300 55184
L28450 55184
L28487 55203
L28506 55221
L28525 55259
L28525 55315
L28506 55353
L28487 55371
L28450 55390
L28300 55390
" />
<path d="M28693 55371
L28825 55371
" />
<path d="M28881 55578
L28693 55578
L28693 55184
L28881 55184
" />
<path d="M29181 55371
L29050 55371
" />
<path d="M29050 55578
L29050 55184
L29237 55184
" />
<path d="M29443 55184
L29443 55278
" />
<path d="M29349 55240
L29443 55278
L29537 55240
" />
<path d="M29387 55353
L29443 55278
L29499 55353
" />
<path d="M29743 55184
L29743 55278
" />
<path d="M29649 55240
L29743 55278
L29837 55240
" />
<path d="M29687 55353
L29743 55278
L29799 55353
" />
<path d="M37375 55728
L37243 55540
" />
<path d="M37150 55728
L37150 55334
L37300 55334
L37337 55353
L37356 55371
L37375 55409
L37375 55465
L37356 55503
L37337 55521
L37300 55540
L37150 55540
" />
<path d="M37543 55521
L37675 55521
" />
<path d="M37731 55728
L37543 55728
L37543 55334
L37731 55334
" />
<path d="M38031 55521
L37900 55521
" />
<path d="M37900 55728
L37900 55334
L38087 55334
" />
<path d="M38293 55334
L38293 55428
" />
<path d="M38199 55390
L38293 55428
L38387 55390
" />
<path d="M38237 55503
L38293 55428
L38349 55503
" />
<path d="M38593 55334
L38593 55428
" />
<path d="M38499 55390
L38593 55428
L38687 55390
" />
<path d="M38537 55503
L38593 55428
L38649 55503
" />
<path d="M31009 36128
L31009 35734
L31159 35734
L31196 35753
L31215 35771
L31234 35809
L31234 35865
L31215 35903
L31196 35921
L31159 35940
L31009 35940
" />
<path d="M31384 35771
L31403 35753
L31440 35734
L31534 35734
L31571 35753
L31590 35771
L31609 35809
L31609 35846
L31590 35903
L31365 36128
L31609 36128
" />
<path d="M30600 24384
L30600 24703
L30618 24740
L30637 24759
L30675 24778
L30750 24778
L30787 24759
L30806 24740
L30825 24703
L30825 24384
" />
<path d="M30993 24421
L31012 24403
L31049 24384
L31143 24384
L31181 24403
L31199 24421
L31218 24459
L31218 24496
L31199 24553
L30974 24778
L31218 24778
" />
<path d="M31000 27959
L31000 28278
L31018 28315
L31037 28334
L31075 28353
L31150 28353
L31187 28334
L31206 28315
L31225 28278
L31225 27959
" />
<path d="M31618 28353
L31393 28353
" />
<path d="M31506 28353
L31506 27959
L31468 28015
L31431 28053
L31393 28071
" />
<path d="M35177 22745
L31752 22745
" />
<path d="M35177 25266
L31752 25266
" />
<path d="M31752 25266
L31752 22745
" />
<path d="M31752 23229
L35177 23229
" />
<path d="M35177 22745
L35177 25266
" />
<path d="M36950 28050
L36950 27650
" />
<path d="M36950 30050
L36950 29050
" />
<path d="M36950 31450
L36950 31050
" />
<path d="M38500 28150
L38000 28150
" />
<path d="M38205 28460
L38305 28445
" />
<path d="M38305 28445
L38415 28375
" />
<path d="M38415 28375
L38500 28250
" />
<path d="M38500 28250
L38505 28075
" />
<path d="M38505 28075
L38425 27935
" />
<path d="M38425 27935
L38310 27865
" />
<path d="M38310 27865
L38185 27845
" />
<path d="M38185 27845
L38025 27885
" />
<path d="M38025 27885
L37925 28020
" />
<path d="M37925 28020
L37890 28090
" />
<path d="M38200 27650
L38700 27650
" />
<path d="M38700 27650
L38700 31450
" />
<path d="M38700 31450
L36700 31450
" />
<path d="M36700 27650
L37700 27650
" />
<path d="M37700 27650
L38200 27650
" />
</g>
<g style="fill:#000000; fill-opacity:0.0; 
stroke:#000000; stroke-width:19.685; stroke-opacity:1; 
stroke-linecap:round; stroke-linejoin:round;">
<circle cx="36414.2" cy="33314.2" r="139.194" /> 
<circle cx="36414.2" cy="35085.8" r="139.194" /> 
<circle cx="38185.8" cy="35085.8" r="139.194" /> 
<circle cx="38185.8" cy="33314.2" r="139.194" /> 
<path d="M36315 35381
L36315 35774
" />
<path d="M36315 35774
L36512 35774
" />
<path d="M36512 35774
L36512 35381
" />
<path d="M36512 33018
L36512 32625
" />
<path d="M36512 32625
L36315 32625
" />
<path d="M36315 32625
L36315 33018
" />
<path d="M38284 33018
L38284 32625
" />
<path d="M38284 32625
L38087 32625
" />
<path d="M38087 32625
L38087 33018
" />
<path d="M38284 35381
L38284 35774
" />
<path d="M38284 35774
L38087 35774
" />
<path d="M38087 35381
L38087 35774
" />
<path d="M38481 35381
L36118 35381
" />
<path d="M36118 35381
L36118 33018
" />
<path d="M36118 33018
L38481 33018
" />
<circle cx="37300" cy="34200" r="688.661" /> 
<path d="M38481 33018
L38481 35381
" />
<path d="M37700 26480
L37500 26480
" />
<path d="M37700 27119
L37500 27119
" />
<path d="M36419 28700
L36419 28500
" />
<path d="M35780 28700
L35780 28500
" />
<path d="M32400 27719
L32600 27719
" />
<path d="M32400 27080
L32600 27080
" />
<path d="M34600 27080
L34400 27080
" />
<path d="M34600 27719
L34400 27719
" />
<path d="M37700 25480
L37500 25480
" />
<path d="M37700 26119
L37500 26119
" />
<path d="M29800 31480
L29600 31480
" />
<path d="M29800 32119
L29600 32119
" />
<path d="M29800 30080
L29600 30080
" />
<path d="M29800 30719
L29600 30719
" />
<path d="M29600 28719
L29800 28719
" />
<path d="M29600 28080
L29800 28080
" />
<path d="M29800 29080
L29600 29080
" />
<path d="M29800 29719
L29600 29719
" />
<path d="M36419 30500
L36419 30300
" />
<path d="M35780 30500
L35780 30300
" />
</g>
<g style="fill:#000000; fill-opacity:0.0; 
stroke:#000000; stroke-width:59.0551; stroke-opacity:1; 
stroke-linecap:round; stroke-linejoin:round;">
<path d="M35293 25896
L34506 25896
" />
<path d="M34506 26703
L35293 26703
" />
<path d="M31706 26703
L32493 26703
" />
<path d="M32493 25896
L31706 25896
" />
</g>
<g style="fill:#000000; fill-opacity:1.0; 
stroke:#000000; stroke-width:3.93701; stroke-opacity:1; 
stroke-linecap:round; stroke-linejoin:round;">
<polyline style="fill-rule:evenodd;"
points="29268,51947
29408,51971
29487,51992
29618,52040
29740,52102
29854,52177
29958,52263
30051,52361
30133,52468
30202,52584
30258,52709
30300,52839
30327,52976
30332,53016
30337,53068
30340,53110
30340,53147
30339,53187
30335,53234
30332,53257
30310,53397
30272,53531
30220,53659
30153,53779
30073,53890
29981,53992
29876,54083
29759,54163
29708,54192
29583,54252
29453,54296
29318,54324
29178,54337
29032,54334
28966,54328
28863,54311
28755,54281
28647,54241
28550,54194
28429,54120
28320,54034
28222,53937
28137,53830
28064,53714
28006,53590
27961,53459
27932,53321
27924,53262
27919,53210
27916,53169
27916,53167
27966,53167
27977,53299
28003,53428
28043,53552
28097,53669
28163,53779
28240,53881
28329,53974
28428,54057
28536,54129
28652,54189
28776,54236
28907,54270
29012,54285
29055,54289
29093,54292
29122,54294
29139,54294
29141,54294
29156,54292
29183,54289
29219,54286
29260,54282
29260,54282
29381,54263
29503,54228
29622,54180
29736,54119
29842,54046
29870,54024
29971,53930
30059,53827
30133,53716
30194,53598
30240,53474
30272,53346
30288,53216
30289,53083
30275,52950
30244,52817
30238,52797
30190,52670
30126,52549
30046,52435
30024,52408
29930,52307
29826,52219
29714,52145
29595,52085
29470,52038
29341,52006
29208,51990
29074,51988
28939,52002
28804,52032
28777,52040
28651,52088
28532,52150
28422,52224
28322,52310
28232,52407
28153,52513
28087,52627
28034,52747
27996,52874
27973,53005
27970,53030
27966,53167
27916,53167
27915,53133
27917,53096
27920,53053
27924,53012
27947,52872
27985,52738
28039,52611
28106,52491
28188,52379
28284,52277
28357,52212
28471,52129
28593,52061
28721,52007
28853,51969
28990,51946
29128,51938
29268,51947
" /> 
<polyline style="fill-rule:evenodd;"
points="37958,51950
38096,51978
38145,51992
38276,52040
38400,52102
38514,52177
38620,52265
38714,52364
38797,52473
38867,52591
38923,52718
38942,52774
38959,52828
38971,52876
38980,52924
38988,52978
38992,53014
38997,53066
39000,53107
39001,53143
39000,53178
38997,53219
38992,53266
38969,53403
38931,53534
38879,53658
38815,53775
38738,53884
38650,53983
38551,54072
38444,54150
38328,54215
38205,54267
38075,54305
37941,54328
37876,54335
37821,54338
37768,54339
37713,54336
37650,54330
37629,54328
37502,54306
37376,54269
37254,54217
37138,54151
37028,54073
36927,53983
36854,53902
36771,53791
36703,53672
36649,53548
36611,53420
36587,53290
36580,53201
36626,53201
36642,53336
36675,53470
36678,53480
36726,53607
36789,53725
36864,53835
36951,53936
37049,54025
37156,54104
37272,54170
37395,54222
37525,54261
37660,54284
37674,54286
37717,54290
37754,54293
37782,54294
37798,54294
37799,54294
37814,54292
37841,54290
37877,54286
37916,54282
38040,54263
38164,54228
38285,54179
38401,54116
38508,54041
38527,54026
38628,53933
38716,53831
38790,53721
38851,53605
38897,53483
38929,53358
38947,53230
38950,53100
38939,52970
38912,52841
38869,52715
38811,52592
38809,52589
38736,52473
38651,52368
38556,52275
38452,52194
38340,52126
38221,52070
38097,52029
37969,52001
37838,51988
37705,51989
37571,52007
37440,52040
37312,52088
37192,52151
37080,52227
36978,52314
36887,52412
36808,52520
36742,52637
36690,52761
36679,52795
36645,52931
36627,53066
36626,53201
36580,53201
36577,53158
36582,53025
36602,52894
36637,52765
36686,52640
36749,52520
36828,52406
36852,52376
36948,52273
37053,52184
37167,52107
37288,52045
37415,51996
37546,51962
37682,51943
37819,51939
37958,51950
" /> 
<polyline style="fill-rule:evenodd;"
points="33033,38110
33088,38122
33134,38149
33172,38189
33204,38244
33205,38246
33228,38297
33222,38781
33216,39266
33468,39266
33720,39266
33720,39085
33720,39032
33721,38966
33722,38890
33724,38809
33726,38725
33728,38642
33730,38591
33740,38278
33767,38236
33802,38189
33842,38157
33888,38138
33945,38131
33958,38131
34011,38135
34053,38148
34087,38170
34102,38186
34116,38204
34127,38222
34135,38244
34140,38270
34142,38304
34142,38348
34140,38404
34136,38461
34133,38538
34131,38609
34131,38678
34132,38753
34136,38832
34139,38897
34141,38964
34143,39030
34145,39089
34145,39137
34145,39147
34145,39266
34670,39266
34670,39707
34462,39707
34462,40805
34462,40968
34462,41116
34462,41248
34462,41366
34461,41472
34461,41565
34460,41648
34459,41720
34458,41782
34457,41836
34455,41883
34453,41923
34451,41958
34448,41987
34445,42013
34442,42036
34437,42057
34433,42076
34428,42096
34422,42116
34417,42134
34375,42249
34318,42358
34248,42461
34166,42555
34075,42638
33974,42709
33937,42730
33879,42762
33879,43064
33879,43366
35945,43366
35945,48332
33879,48332
33879,51549
34504,51549
34504,52441
34129,52441
34129,53449
33704,53449
33704,52441
33204,52441
33204,53449
33131,53447
33096,53446
33050,53445
32997,53444
32943,53443
32918,53443
32779,53440
32779,52441
32404,52441
32404,51591
32454,51591
32454,52391
32820,52391
32820,53390
32864,53393
32888,53394
32925,53395
32970,53397
33017,53397
33031,53398
33154,53399
33154,52391
33754,52391
33754,53399
34079,53399
34079,52391
34454,52391
34454,51591
33829,51591
33829,48332
33087,48332
33087,51591
32454,51591
32404,51591
32404,51549
33037,51549
33037,48332
30970,48332
30970,43416
31020,43416
31020,48291
35895,48291
35895,43416
31020,43416
30970,43416
30970,43366
33037,43366
33037,42759
32989,42732
32879,42661
32778,42577
32688,42481
32655,42438
32604,42359
32558,42268
32519,42169
32488,42065
32477,42017
32476,42004
32474,41980
32473,41945
32472,41897
32471,41838
32470,41766
32469,41680
32468,41581
32467,41467
32466,41339
32466,41195
32465,41036
32465,40861
32464,40839
32461,39707
32262,39707
32262,39307
32304,39307
32304,39666
32512,39666
32512,40789
32512,40953
32512,41102
32512,41236
32512,41356
32513,41463
32513,41558
32514,41641
32514,41714
32515,41778
32517,41833
32518,41881
32520,41921
32522,41956
32525,41986
32528,42011
32532,42034
32536,42054
32540,42073
32545,42091
32551,42110
32557,42130
32559,42134
32602,42245
32658,42350
32727,42448
32806,42535
32894,42612
32989,42675
33024,42693
33087,42725
33087,43366
33829,43366
33829,42727
33872,42707
33925,42679
33984,42641
34043,42598
34096,42554
34127,42525
34211,42428
34281,42323
34337,42209
34379,42087
34400,41993
34401,41981
34403,41965
34404,41946
34406,41921
34407,41891
34408,41854
34409,41809
34409,41756
34410,41694
34411,41622
34411,41539
34411,41444
34412,41336
34412,41215
34412,41080
34412,40930
34412,40794
34412,39666
34620,39666
34620,39312
34358,39314
34095,39317
34095,39107
34095,39043
34094,38977
34092,38915
34090,38859
34087,38814
34086,38796
34083,38754
34081,38710
34081,38660
34082,38602
34085,38531
34087,38487
34090,38421
34092,38370
34093,38331
34094,38303
34092,38282
34090,38266
34087,38254
34084,38247
34062,38214
34030,38191
33990,38179
33947,38177
33903,38186
33863,38206
33850,38217
33833,38232
33819,38245
33809,38260
33801,38276
33794,38298
33790,38326
33786,38363
33784,38411
33781,38471
33778,38546
33778,38546
33776,38625
33773,38716
33770,38811
33768,38906
33766,38995
33765,39051
33760,39307
33168,39307
33174,38805
33179,38302
33156,38258
33137,38228
33115,38201
33102,38188
33063,38167
33018,38159
32972,38163
32927,38179
32888,38207
32865,38234
32856,38248
32850,38261
32845,38278
32841,38300
32839,38331
32836,38375
32835,38394
32834,38429
32833,38478
32832,38539
32832,38610
32832,38687
32832,38770
32833,38854
32834,38914
32839,39307
32304,39307
32262,39307
32262,39266
32786,39266
32786,38785
32786,38696
32786,38611
32786,38533
32787,38462
32788,38401
32789,38350
32790,38312
32791,38287
32792,38278
32813,38224
32847,38178
32892,38142
32944,38119
33001,38109
33033,38110
" /> 
<polyline style="fill-rule:evenodd;"
points="29278,37373
29415,37401
29470,37416
29601,37464
29723,37526
29835,37600
29937,37685
30028,37780
30108,37883
30176,37995
30231,38113
30274,38236
30303,38365
30317,38496
30317,38630
30302,38765
30270,38900
30266,38914
30217,39045
30154,39167
30079,39281
29991,39384
29893,39477
29785,39558
29668,39627
29543,39682
29412,39724
29274,39750
29242,39754
29189,39759
29146,39762
29110,39764
29075,39763
29037,39761
28989,39756
28959,39753
28831,39731
28703,39693
28579,39641
28460,39576
28350,39498
28338,39489
28236,39396
28147,39294
28071,39183
28009,39067
27960,38945
27925,38819
27904,38691
27897,38561
27898,38545
27945,38545
27951,38674
27973,38808
28009,38937
28060,39059
28124,39173
28199,39278
28286,39375
28383,39461
28490,39536
28605,39599
28727,39649
28855,39686
28990,39708
29091,39715
29120,39714
29160,39712
29204,39709
29236,39706
29342,39690
29451,39662
29558,39623
29659,39575
29664,39573
29782,39499
29888,39414
29984,39318
30067,39212
30137,39098
30193,38976
30234,38847
30261,38713
30265,38678
30270,38626
30272,38585
30273,38547
30271,38507
30266,38458
30265,38445
30242,38311
30206,38183
30155,38063
30093,37950
30019,37847
29934,37752
29840,37668
29737,37594
29628,37532
29512,37482
29390,37444
29264,37420
29135,37410
29004,37414
28872,37434
28766,37462
28637,37510
28517,37571
28406,37645
28306,37730
28216,37824
28138,37928
28072,38040
28019,38159
27980,38283
27955,38412
27945,38545
27898,38545
27905,38430
27926,38301
27962,38174
28012,38050
28077,37931
28156,37819
28174,37797
28269,37695
28374,37606
28488,37530
28609,37467
28736,37419
28867,37385
29002,37366
29139,37362
29278,37373
" /> 
<polyline style="fill-rule:evenodd;"
points="37969,37378
38106,37409
38240,37456
38345,37506
38463,37577
38570,37660
38666,37754
38750,37857
38822,37969
38881,38088
38927,38212
38959,38340
38976,38472
38979,38606
38966,38741
38938,38875
38927,38912
38878,39043
38815,39166
38740,39280
38652,39383
38554,39476
38446,39558
38329,39626
38204,39682
38073,39723
37936,39749
37904,39753
37849,39759
37807,39762
37770,39764
37736,39763
37698,39761
37652,39757
37620,39753
37524,39738
37420,39711
37409,39708
37278,39660
37156,39598
37044,39525
36942,39440
36851,39346
36771,39242
36703,39131
36647,39013
36604,38890
36574,38762
36559,38631
36559,38521
36607,38521
36610,38652
36628,38784
36655,38891
36702,39018
36762,39137
36836,39247
36921,39348
37017,39438
37122,39517
37236,39584
37357,39638
37484,39679
37616,39704
37753,39715
37754,39715
37784,39714
37825,39712
37872,39708
37912,39704
38044,39681
38171,39642
38293,39589
38409,39522
38516,39442
38614,39351
38701,39248
38776,39135
38789,39111
38849,38986
38893,38857
38920,38725
38931,38591
38927,38455
38905,38320
38879,38221
38831,38094
38769,37976
38696,37868
38611,37769
38516,37681
38413,37605
38302,37540
38185,37487
38062,37448
37935,37422
37805,37410
37674,37413
37542,37432
37433,37459
37303,37507
37183,37568
37072,37640
36972,37724
36883,37817
36805,37919
36739,38028
36685,38145
36645,38266
36619,38392
36607,38521
36559,38521
36559,38498
36574,38363
36605,38229
36612,38203
36662,38073
36726,37950
36803,37837
36892,37733
36993,37639
37103,37558
37223,37490
37350,37435
37408,37416
37548,37382
37688,37364
37829,37363
37969,37378
" /> 
<polyline style="fill-rule:evenodd;"
points="31355,36967
31584,36967
31827,36967
32084,36967
32356,36967
32643,36968
32946,36968
33265,36968
33479,36968
33807,36968
34118,36968
34414,36968
34695,36969
34960,36969
35211,36969
35448,36969
35671,36969
35880,36970
36077,36970
36261,36970
36433,36970
36594,36970
36743,36971
36882,36971
37010,36971
37128,36972
37236,36972
37335,36972
37426,36973
37508,36973
37582,36974
37649,36974
37709,36974
37762,36975
37808,36976
37849,36976
37885,36977
37916,36977
37942,36978
37963,36979
37981,36980
37996,36981
38008,36981
38017,36982
38025,36983
38029,36984
38154,37012
38269,37045
38379,37086
38455,37119
38591,37191
38720,37277
38841,37377
38952,37488
39052,37609
39139,37739
39195,37841
39246,37953
39288,38072
39320,38192
39342,38310
39353,38422
39354,38460
39353,38497
39352,38520
39350,38534
39345,38539
39337,38541
39334,38541
39325,38540
39319,38536
39315,38525
39312,38504
39310,38471
39309,38455
39290,38293
39256,38137
39207,37989
39144,37847
39065,37713
38971,37586
38862,37465
38861,37464
38743,37358
38617,37266
38481,37187
38337,37122
38183,37071
38019,37033
37983,37027
37976,37026
37968,37025
37958,37024
37948,37023
37934,37022
37919,37021
37900,37020
37879,37019
37853,37019
37823,37018
37788,37017
37749,37017
37704,37016
37653,37016
37595,37015
37531,37015
37460,37014
37381,37014
37294,37014
37198,37013
37094,37013
36980,37013
36857,37013
36723,37013
36579,37012
36424,37012
36257,37012
36079,37012
35888,37012
35685,37012
35468,37012
35238,37012
34994,37012
34735,37012
34462,37012
34173,37012
33869,37012
33549,37012
33437,37012
33111,37012
32801,37012
32507,37012
32228,37012
31964,37012
31715,37012
31480,37012
31259,37012
31051,37012
30855,37012
30673,37012
30502,37012
30343,37012
30195,37013
30057,37013
29930,37013
29813,37013
29706,37013
29607,37014
29517,37014
29435,37014
29362,37015
29295,37015
29235,37016
29182,37016
29135,37017
29094,37017
29058,37018
29026,37019
28999,37019
28976,37020
28957,37021
28940,37022
28927,37022
28916,37023
28906,37024
28898,37025
28892,37026
28843,37035
28789,37046
28739,37057
28720,37062
28569,37108
28424,37170
28288,37245
28160,37333
28041,37434
27934,37546
27838,37668
27755,37799
27685,37940
27654,38016
27624,38106
27599,38200
27580,38295
27567,38386
27562,38467
27562,38472
27562,38541
27510,38541
27515,38447
27533,38287
27566,38133
27613,37985
27675,37843
27749,37710
27836,37584
27934,37468
28044,37363
28163,37267
28292,37184
28430,37112
28576,37054
28729,37010
28889,36980
28900,36978
28908,36978
28919,36977
28932,36976
28949,36975
28969,36974
28993,36974
29021,36973
29054,36972
29093,36972
29136,36971
29186,36971
29243,36970
29306,36970
29376,36969
29454,36969
29540,36969
29635,36968
29738,36968
29851,36968
29974,36968
30106,36967
30250,36967
30404,36967
30570,36967
30747,36967
30937,36967
31140,36967
31355,36967
" /> 
<polyline style="fill-rule:evenodd;"
points="29257,52574
29344,52599
29424,52637
29497,52686
29562,52744
29617,52811
29662,52885
29697,52966
29720,53051
29730,53140
29727,53231
29710,53323
29678,53414
29659,53453
29612,53528
29550,53596
29478,53655
29396,53704
29318,53738
29274,53749
29219,53757
29159,53762
29100,53764
29046,53761
29024,53758
28935,53734
28850,53696
28772,53644
28702,53581
28642,53508
28594,53426
28564,53354
28541,53258
28535,53185
28566,53185
28570,53250
28580,53307
28585,53327
28622,53416
28671,53497
28731,53568
28801,53629
28878,53678
28961,53713
29049,53733
29049,53733
29109,53737
29175,53734
29239,53727
29295,53714
29306,53711
29397,53671
29479,53619
29550,53553
29609,53477
29656,53390
29680,53327
29692,53275
29699,53213
29700,53147
29696,53082
29686,53024
29681,53003
29649,52922
29608,52850
29555,52783
29533,52761
29470,52705
29405,52661
29332,52627
29299,52615
29272,52606
29245,52601
29216,52597
29179,52596
29133,52595
29084,52596
29048,52597
29019,52601
28993,52607
28966,52615
28889,52647
28821,52686
28758,52737
28732,52761
28674,52828
28629,52897
28595,52975
28585,53003
28573,53056
28567,53119
28566,53185
28535,53185
28534,53163
28541,53071
28562,52981
28596,52897
28642,52819
28700,52748
28767,52687
28844,52637
28930,52598
29023,52573
29067,52566
29164,52563
29257,52574
" /> 
<polyline style="fill-rule:evenodd;"
points="37898,52547
37988,52571
38072,52609
38150,52660
38220,52722
38280,52795
38329,52879
38363,52966
38372,52995
38377,53023
38381,53055
38382,53093
38383,53141
38382,53190
38380,53228
38377,53257
38371,53283
38363,53311
38363,53312
38322,53410
38269,53497
38206,53571
38131,53634
38046,53683
37962,53716
37927,53724
37880,53730
37828,53735
37775,53738
37728,53738
37695,53735
37659,53728
37615,53715
37567,53698
37523,53679
37511,53673
37435,53626
37366,53566
37305,53494
37255,53413
37218,53326
37212,53307
37200,53252
37193,53188
37192,53120
37193,53093
37220,53093
37220,53186
37221,53197
37239,53291
37269,53376
37315,53455
37376,53529
37391,53545
37466,53609
37547,53658
37632,53691
37708,53707
37767,53711
37833,53709
37896,53701
37951,53687
37952,53687
38045,53649
38127,53599
38198,53537
38257,53462
38306,53375
38337,53295
38351,53237
38357,53170
38356,53100
38349,53032
38338,52982
38301,52890
38251,52806
38189,52733
38115,52671
38029,52621
37962,52593
37907,52578
37843,52570
37775,52567
37710,52571
37670,52577
37581,52604
37498,52645
37424,52698
37360,52762
37306,52835
37264,52916
37235,53002
37220,53093
37193,53093
37196,53053
37205,52994
37212,52970
37250,52876
37300,52791
37362,52716
37434,52652
37515,52601
37603,52565
37612,52562
37708,52541
37804,52537
37898,52547
" /> 
<polyline style="fill-rule:evenodd;"
points="29188,37965
29246,37974
29274,37982
29372,38022
29458,38074
29533,38137
29595,38210
29645,38292
29680,38383
29701,38481
29703,38495
29706,38592
29694,38686
29668,38775
29629,38859
29578,38935
29517,39002
29446,39059
29367,39105
29280,39138
29187,39157
29148,39160
29106,39161
29063,39161
29027,39159
29016,39158
28936,39139
28854,39107
28777,39064
28731,39030
28661,38964
28605,38889
28562,38807
28532,38721
28515,38632
28511,38541
28512,38533
28541,38533
28541,38606
28549,38676
28561,38724
28598,38816
28648,38899
28711,38972
28785,39033
28870,39082
28943,39111
28981,39121
29025,39129
29069,39135
29108,39137
29124,39136
29148,39133
29178,39130
29192,39129
29226,39123
29263,39114
29284,39107
29375,39068
29456,39015
29526,38951
29585,38874
29632,38787
29651,38737
29661,38706
29668,38680
29672,38652
29674,38619
29674,38575
29674,38562
29674,38514
29672,38479
29669,38450
29663,38424
29654,38395
29651,38387
29612,38295
29560,38214
29497,38143
29424,38085
29343,38039
29254,38007
29169,37992
29074,37989
28982,38003
28894,38030
28813,38072
28739,38126
28674,38192
28619,38268
28577,38354
28561,38399
28547,38461
28541,38533
28512,38533
28521,38451
28544,38362
28580,38278
28629,38199
28691,38128
28731,38093
28808,38040
28895,37999
28941,37982
28994,37970
29056,37963
29123,37962
29188,37965
" /> 
<polyline style="fill-rule:evenodd;"
points="37817,37963
37889,37972
37942,37985
38037,38023
38122,38075
38196,38139
38258,38215
38308,38302
38346,38399
38355,38433
38361,38466
38364,38503
38365,38551
38365,38562
38364,38612
38362,38651
38357,38684
38348,38717
38346,38724
38309,38819
38259,38905
38198,38981
38126,39045
38045,39097
37956,39134
37941,39139
37891,39150
37830,39158
37767,39162
37708,39161
37674,39157
37586,39136
37500,39100
37420,39051
37348,38991
37287,38921
37238,38843
37237,38841
37212,38787
37194,38739
37183,38693
37177,38641
37175,38580
37175,38562
37201,38562
37201,38610
37204,38647
37208,38678
37216,38707
37220,38720
37256,38811
37302,38890
37358,38958
37415,39011
37496,39065
37583,39104
37674,39128
37768,39135
37863,39127
37920,39114
38009,39080
38091,39034
38163,38974
38224,38904
38274,38825
38310,38738
38333,38645
38336,38624
38339,38531
38327,38441
38300,38356
38262,38276
38211,38204
38151,38139
38082,38085
38005,38041
37922,38010
37834,37992
37743,37988
37712,37991
37621,38008
37533,38041
37453,38086
37380,38142
37318,38209
37269,38285
37264,38295
37236,38356
37217,38412
37206,38467
37201,38528
37201,38562
37175,38562
37175,38512
37176,38475
37179,38445
37184,38420
37192,38395
37194,38387
37236,38288
37289,38202
37353,38128
37428,38065
37513,38016
37604,37982
37668,37968
37741,37962
37817,37963
" /> 
</g>
<g style="fill:#000000; fill-opacity:1.0; 
stroke:#000000; stroke-width:59.0551; stroke-opacity:1; 
stroke-linecap:round; stroke-linejoin:round;">
</g>
<g style="fill:#000000; fill-opacity:0.0; 
stroke:#000000; stroke-width:59.0551; stroke-opacity:1; 
stroke-linecap:round; stroke-linejoin:round;">
<path d="M32964 36100
L34964 36100
" />
<path d="M31854 36210
L31854 35600
" />
<path d="M31964 35100
L32964 35100
" />
<path d="M32964 35100
L32964 36100
" />
<path d="M34964 36100
L34964 34100
" />
<path d="M34964 34100
L32964 34100
" />
<path d="M31854 36210
L32464 36210
" />
<path d="M31964 34100
L31964 35100
" />
<path d="M32964 34100
L31964 34100
" />
</g>
<g style="fill:#000000; fill-opacity:0.0; 
stroke:#000000; stroke-width:30; stroke-opacity:1; 
stroke-linecap:round; stroke-linejoin:round;">
<path d="M30296 25288
L28303 25288
" />
</g>
<g style="fill:#000000; fill-opacity:0.0; 
stroke:#000000; stroke-width:59.0551; stroke-opacity:1; 
stroke-linecap:round; stroke-linejoin:round;">
<path d="M30052 25800 A244.094 244.094 0.0 0 0 30296.1 26044.1 " />
<path d="M30303.9 25552 A248.063 248.063 0.0 0 0 30052 25796.1 " />
<path d="M30296.1 25268.5 A137.852 137.852 0.0 0 0 30154.3 25134.6 " />
<path d="M28429.9 25126.8 A129.921 129.921 0.0 0 0 28300 25256.7 " />
<path d="M28300 26359.1 A122.617 122.617 0.0 0 0 28433.9 26469.3 " />
<path d="M30146.5 26473.2 A138.3 138.3 0.0 0 0 30296.1 26347.2 " />
<path d="M30300 26320
L30300 25280
" />
<path d="M28300 26320
L28300 25280
" />
<path d="M30150 26470
L28450 26470
" />
<path d="M28450 25130
L30150 25130
" />
<circle cx="32551.2" cy="29094.5" r="220.085" /> 
<path d="M32013 28584
L32013 29084
" />
<path d="M34907 28584
L34907 29084
" />
<path d="M34907 33391
L34907 32891
" />
<path d="M32013 33391
L32013 32891
" />
<path d="M32013 28584
L34907 28584
" />
<path d="M32013 33391
L34907 33391
" />
<path d="M32013 29084
L31645 29084
" />
</g>
<g style="fill:#000000; fill-opacity:1.0; 
stroke:#000000; stroke-width:3.93701; stroke-opacity:1; 
stroke-linecap:round; stroke-linejoin:round;">
<polyline style="fill-rule:evenodd;"
points="36093,49504
36109,49502
36136,49496
36173,49490
36212,49483
36260,49474
36310,49465
36356,49457
36383,49452
36417,49446
36447,49439
36467,49434
36471,49433
36480,49425
36491,49407
36506,49378
36524,49335
36544,49288
36599,49149
36568,49101
36552,49077
36539,49058
36533,49050
36523,49037
36506,49014
36486,48984
36462,48950
36439,48913
36416,48878
36397,48847
36383,48823
36375,48809
36375,48807
36380,48798
36396,48780
36419,48754
36449,48723
36483,48688
36518,48652
36554,48616
36588,48583
36617,48554
36641,48532
36657,48519
36662,48516
36672,48521
36692,48533
36720,48551
36750,48571
36789,48598
36830,48626
36868,48652
36887,48665
36914,48683
36936,48698
36948,48707
36950,48708
36959,48715
36976,48726
36977,48727
36990,48735
37002,48737
37017,48733
37042,48722
37046,48721
37071,48709
37089,48702
37096,48700
37106,48696
37126,48688
37152,48676
37186,48661
37222,48645
37243,48636
37268,48625
37283,48613
37292,48594
37299,48565
37300,48562
37312,48502
37324,48432
37337,48361
37345,48317
37352,48281
37359,48252
37365,48232
37367,48227
37378,48224
37403,48221
37439,48218
37482,48217
37531,48216
37582,48215
37632,48216
37680,48217
37721,48218
37753,48220
37774,48223
37780,48226
37784,48238
37789,48263
37795,48294
37796,48299
37803,48339
37812,48387
37820,48430
37820,48433
37828,48472
37835,48512
37841,48544
37841,48548
37847,48575
37854,48596
37858,48604
37870,48612
37893,48623
37919,48633
37946,48644
37968,48653
37979,48658
37991,48664
38013,48672
38029,48678
38061,48690
38093,48703
38104,48708
38127,48718
38146,48725
38150,48726
38159,48723
38180,48713
38208,48697
38239,48678
38272,48657
38301,48638
38325,48621
38340,48609
38341,48608
38353,48598
38375,48583
38401,48565
38429,48547
38455,48531
38475,48520
38485,48516
38493,48522
38511,48538
38537,48561
38568,48591
38603,48625
38639,48660
38675,48696
38708,48730
38736,48760
38758,48783
38771,48799
38774,48804
38770,48813
38757,48834
38738,48863
38714,48899
38691,48933
38662,48975
38635,49015
38611,49050
38594,49077
38586,49090
38564,49125
38584,49165
38599,49195
38616,49225
38622,49235
38634,49256
38641,49271
38641,49274
38634,49281
38617,49291
38595,49304
38571,49315
38553,49323
38545,49325
38535,49328
38514,49336
38486,49348
38455,49362
38445,49366
38431,49372
38406,49383
38372,49397
38333,49412
38333,49412
38294,49428
38260,49441
38234,49452
38220,49458
38220,49458
38184,49474
38153,49487
38121,49500
38082,49516
38063,49524
38028,49537
37999,49547
37979,49552
37971,49553
37963,49545
37947,49526
37928,49501
37920,49490
37868,49426
37808,49376
37738,49337
37692,49318
37653,49310
37604,49305
37551,49306
37499,49311
37455,49320
37448,49322
37372,49355
37308,49399
37254,49456
37209,49526
37197,49549
37182,49581
37172,49606
37166,49628
37163,49653
37163,49687
37163,49708
37164,49745
37165,49778
37166,49800
37168,49808
37173,49825
37179,49844
37200,49896
37233,49950
37275,50001
37323,50045
37373,50078
37379,50081
37456,50114
37530,50130
37604,50131
37679,50117
37696,50111
37765,50084
37823,50048
37875,50002
37924,49942
37937,49922
37955,49896
37968,49881
37979,49876
37990,49879
37998,49882
38025,49896
38065,49913
38114,49932
38116,49933
38144,49944
38168,49953
38179,49958
38226,49979
38281,50002
38348,50028
38358,50032
38395,50047
38427,50060
38451,50070
38462,50074
38494,50088
38534,50105
38575,50122
38594,50130
38618,50140
38634,50150
38638,50154
38636,50165
38627,50186
38613,50214
38609,50223
38588,50260
38576,50287
38571,50306
38573,50323
38581,50341
38596,50364
38597,50365
38613,50389
38626,50407
38633,50416
38633,50416
38639,50425
38652,50443
38669,50468
38671,50470
38695,50505
38722,50544
38740,50570
38757,50596
38769,50616
38774,50628
38774,50628
38769,50636
38753,50654
38729,50680
38697,50713
38661,50750
38635,50776
38595,50815
38559,50851
38528,50880
38503,50901
38488,50914
38483,50916
38471,50911
38449,50899
38422,50882
38416,50878
38381,50854
38340,50827
38304,50802
38304,50802
38277,50783
38255,50769
38243,50760
38241,50758
38232,50751
38215,50739
38203,50731
38170,50713
38144,50708
38128,50715
38118,50720
38095,50730
38062,50744
38022,50760
37995,50770
37952,50787
37914,50802
37885,50815
37866,50823
37861,50826
37856,50836
37849,50860
37842,50893
37834,50933
37833,50935
37826,50977
37818,51016
37812,51048
37808,51066
37802,51092
37797,51124
37795,51141
37792,51164
37789,51182
37784,51195
37776,51204
37761,51210
37738,51214
37705,51216
37660,51216
37602,51216
37570,51216
37367,51216
37359,51185
37354,51165
37348,51132
37340,51092
37333,51050
37325,51007
37318,50967
37312,50935
37307,50915
37302,50889
37300,50865
37300,50864
37296,50846
37286,50829
37266,50813
37235,50796
37190,50775
37179,50770
37139,50753
37101,50737
37070,50723
37052,50716
37028,50706
37007,50700
37002,50700
36991,50704
36969,50717
36937,50737
36898,50762
36854,50791
36830,50808
36784,50839
36743,50867
36707,50889
36680,50906
36663,50915
36659,50916
36649,50910
36629,50894
36603,50870
36571,50840
36536,50806
36500,50770
36465,50734
36433,50701
36406,50671
36386,50648
36376,50634
36375,50630
36376,50624
36380,50615
36389,50600
36402,50578
36421,50549
36446,50512
36478,50464
36518,50405
36567,50334
36568,50332
36585,50306
36594,50288
36594,50274
36592,50265
36586,50251
36575,50224
36560,50188
36544,50147
36534,50125
36485,50004
36436,49993
36404,49987
36364,49979
36322,49971
36312,49970
36269,49962
36224,49954
36185,49947
36179,49946
36146,49939
36116,49933
36097,49929
36075,49923
36075,49508
36093,49504
" /> 
</g>
<g style="fill:#000000; fill-opacity:1.0; 
stroke:#000000; stroke-width:374.016; stroke-opacity:1; 
stroke-linecap:round; stroke-linejoin:round;">
</g>
<g style="fill:#000000; fill-opacity:0.0; 
stroke:#000000; stroke-width:374.016; stroke-opacity:1; 
stroke-linecap:round; stroke-linejoin:round;">
<path d="M34508 24863
L34390 24863
" />
<path d="M32539 24863
L32421 24863
" />
</g>
<g style="fill:#000000; fill-opacity:0.0; 
stroke:#000000; stroke-width:393.701; stroke-opacity:1; 
stroke-linecap:round; stroke-linejoin:round;">
<path d="M34842 23691
L34842 23908
" />
<path d="M32086 23691
L32086 23908
" />
</g>
<g style="fill:#000000; fill-opacity:1.0; 
stroke:#000000; stroke-width:0; stroke-opacity:1; 
stroke-linecap:round; stroke-linejoin:round;">
<circle cx="38200" cy="29550" r="300" /> 
</g>
<g style="fill:#000000; fill-opacity:1.0; 
stroke:#000000; stroke-width:39.3701; stroke-opacity:1; 
stroke-linecap:round; stroke-linejoin:round;">
</g>
<g style="fill:#000000; fill-opacity:1.0; 
stroke:#000000; stroke-width:0; stroke-opacity:1; 
stroke-linecap:round; stroke-linejoin:round;">
<circle cx="37200" cy="30550" r="300" /> 
</g>
<g style="fill:#000000; fill-opacity:1.0; 
stroke:#000000; stroke-width:39.3701; stroke-opacity:1; 
stroke-linecap:round; stroke-linejoin:round;">
</g>
<g style="fill:#000000; fill-opacity:1.0; 
stroke:#000000; stroke-width:0; stroke-opacity:1; 
stroke-linecap:round; stroke-linejoin:round;">
<circle cx="37200" cy="28550" r="300" /> 
</g>
<g style="fill:#000000; fill-opacity:1.0; 
stroke:#000000; stroke-width:39.3701; stroke-opacity:1; 
stroke-linecap:round; stroke-linejoin:round;">
</g>
<g style="fill:#000000; fill-opacity:1.0; 
stroke:#000000; stroke-width:0; stroke-opacity:1; 
stroke-linecap:round; stroke-linejoin:round;">
<circle cx="37795.3" cy="38582.7" r="1377.95" /> 
</g>
<g style="fill:#000000; fill-opacity:1.0; 
stroke:#000000; stroke-width:39.3701; stroke-opacity:1; 
stroke-linecap:round; stroke-linejoin:round;">
</g>
<g style="fill:#000000; fill-opacity:1.0; 
stroke:#000000; stroke-width:0; stroke-opacity:1; 
stroke-linecap:round; stroke-linejoin:round;">
<circle cx="29133.9" cy="38582.7" r="1377.95" /> 
</g>
<g style="fill:#000000; fill-opacity:1.0; 
stroke:#000000; stroke-width:39.3701; stroke-opacity:1; 
stroke-linecap:round; stroke-linejoin:round;">
</g>
<g style="fill:#000000; fill-opacity:1.0; 
stroke:#000000; stroke-width:748.031; stroke-opacity:1; 
stroke-linecap:round; stroke-linejoin:round;">
</g>
<g style="fill:#000000; fill-opacity:0.0; 
stroke:#000000; stroke-width:748.031; stroke-opacity:1; 
stroke-linecap:round; stroke-linejoin:round;">
<path d="M32964 38267
L32964 38897
" />
<path d="M33964 38267
L33964 38897
" />
<path d="M33964 53464
L33964 52834
" />
<path d="M32964 53464
L32964 52834
" />
</g>
<g style="fill:#000000; fill-opacity:1.0; 
stroke:#000000; stroke-width:0; stroke-opacity:1; 
stroke-linecap:round; stroke-linejoin:round;">
<circle cx="29133.9" cy="53149.6" r="1377.95" /> 
</g>
<g style="fill:#000000; fill-opacity:1.0; 
stroke:#000000; stroke-width:39.3701; stroke-opacity:1; 
stroke-linecap:round; stroke-linejoin:round;">
</g>
<g style="fill:#000000; fill-opacity:1.0; 
stroke:#000000; stroke-width:0; stroke-opacity:1; 
stroke-linecap:round; stroke-linejoin:round;">
<circle cx="37795.3" cy="53149.6" r="1377.95" /> 
</g>
<g style="fill:#000000; fill-opacity:1.0; 
stroke:#000000; stroke-width:39.3701; stroke-opacity:1; 
stroke-linecap:round; stroke-linejoin:round;">
</g>
<g style="fill:#000000; fill-opacity:1.0; 
stroke:#000000; stroke-width:0; stroke-opacity:1; 
stroke-linecap:round; stroke-linejoin:round;">
<polyline style="fill-rule:evenodd;"
points="32804,35940
32124,35940
32124,35260
32804,35260
32804,35940
" /> 
</g>
<g style="fill:#000000; fill-opacity:1.0; 
stroke:#000000; stroke-width:680; stroke-opacity:1; 
stroke-linecap:round; stroke-linejoin:round;">
</g>
<g style="fill:#000000; fill-opacity:0.0; 
stroke:#000000; stroke-width:680; stroke-opacity:1; 
stroke-linecap:round; stroke-linejoin:round;">
<path d="M32464 34600
L32464 34600
" />
<path d="M33464 35600
L33464 35600
" />
<path d="M33464 34600
L33464 34600
" />
<path d="M34464 35600
L34464 35600
" />
<path d="M34464 34600
L34464 34600
" />
</g>
<g style="fill:#000000; fill-opacity:0.0; 
stroke:#000000; stroke-width:629.921; stroke-opacity:1; 
stroke-linecap:round; stroke-linejoin:round;">
<path d="M31960 29488
L31960 29488
" />
<path d="M31960 30488
L31960 30488
" />
<path d="M31960 31488
L31960 31488
" />
<path d="M31960 32488
L31960 32488
" />
<path d="M34960 32488
L34960 32488
" />
<path d="M34960 31488
L34960 31488
" />
<path d="M34960 30488
L34960 30488
" />
<path d="M34960 29488
L34960 29488
" />
</g> 
</svg>
