<?xml version="1.0" standalone="no"?>
 <!DOCTYPE svg PUBLIC "-//W3C//DTD SVG 1.1//EN" 
 "http://www.w3.org/Graphics/SVG/1.1/DTD/svg11.dtd"> 
<svg xmlns="http://www.w3.org/2000/svg" version="1.1" 
    width="29.7002cm" height="21.0007cm" viewBox="0 0 116930 82680 ">
<title>SVG Picture created as Turbidignusb-F.Cu.svg date 2016/08/07 17:16:13 </title>
  <desc>Picture generated by PCBNEW </desc>
<g style="fill:#000000; fill-opacity:1;stroke:#000000; stroke-opacity:1;
stroke-linecap:round; stroke-linejoin:round; "
 transform="translate(0 0) scale(1 1)">
</g>
<g style="fill:#000000; fill-opacity:0.0; 
stroke:#000000; stroke-width:-0.000393701; stroke-opacity:1; 
stroke-linecap:round; stroke-linejoin:round;">
</g>
<g style="fill:#000000; fill-opacity:0.0; 
stroke:#000000; stroke-width:39.3701; stroke-opacity:1; 
stroke-linecap:round; stroke-linejoin:round;">
</g>
<g style="fill:#000000; fill-opacity:0.0; 
stroke:#000000; stroke-width:59.0551; stroke-opacity:1; 
stroke-linecap:round; stroke-linejoin:round;">
<rect x="69685.9" y="65357.2" width="42519.7" height="12598.4" rx="0" />
</g>
<g style="fill:#000000; fill-opacity:0.0; 
stroke:#000000; stroke-width:39.3701; stroke-opacity:1; 
stroke-linecap:round; stroke-linejoin:round;">
</g>
<g style="fill:#000000; fill-opacity:0.0; 
stroke:#000000; stroke-width:59.0551; stroke-opacity:1; 
stroke-linecap:round; stroke-linejoin:round;">
<rect x="3937.01" y="3937.01" width="109056" height="74806" rx="0" />
</g>
<g style="fill:#000000; fill-opacity:0.0; 
stroke:#000000; stroke-width:39.3701; stroke-opacity:1; 
stroke-linecap:round; stroke-linejoin:round;">
</g>
<g style="fill:#000000; fill-opacity:0.0; 
stroke:#000000; stroke-width:59.0551; stroke-opacity:1; 
stroke-linecap:round; stroke-linejoin:round;">
<rect x="4724.41" y="4724.41" width="107481" height="73231.2" rx="0" />
</g>
<g style="fill:#000000; fill-opacity:0.0; 
stroke:#000000; stroke-width:39.3701; stroke-opacity:1; 
stroke-linecap:round; stroke-linejoin:round;">
</g>
<g style="fill:#000000; fill-opacity:0.0; 
stroke:#000000; stroke-width:59.0551; stroke-opacity:1; 
stroke-linecap:round; stroke-linejoin:round;">
<path d="M23622 4724
L23622 3937
" />
</g>
<g style="fill:#000000; fill-opacity:0.0; 
stroke:#000000; stroke-width:39.3701; stroke-opacity:1; 
stroke-linecap:round; stroke-linejoin:round;">
</g>
<g style="fill:#000000; fill-opacity:0.0; 
stroke:#000000; stroke-width:59.0551; stroke-opacity:1; 
stroke-linecap:round; stroke-linejoin:round;">
<path d="M43307 4724
L43307 3937
" />
</g>
<g style="fill:#000000; fill-opacity:0.0; 
stroke:#000000; stroke-width:39.3701; stroke-opacity:1; 
stroke-linecap:round; stroke-linejoin:round;">
</g>
<g style="fill:#000000; fill-opacity:0.0; 
stroke:#000000; stroke-width:59.0551; stroke-opacity:1; 
stroke-linecap:round; stroke-linejoin:round;">
<path d="M62992 4724
L62992 3937
" />
</g>
<g style="fill:#000000; fill-opacity:0.0; 
stroke:#000000; stroke-width:39.3701; stroke-opacity:1; 
stroke-linecap:round; stroke-linejoin:round;">
</g>
<g style="fill:#000000; fill-opacity:0.0; 
stroke:#000000; stroke-width:59.0551; stroke-opacity:1; 
stroke-linecap:round; stroke-linejoin:round;">
<path d="M82677 4724
L82677 3937
" />
</g>
<g style="fill:#000000; fill-opacity:0.0; 
stroke:#000000; stroke-width:39.3701; stroke-opacity:1; 
stroke-linecap:round; stroke-linejoin:round;">
</g>
<g style="fill:#000000; fill-opacity:0.0; 
stroke:#000000; stroke-width:59.0551; stroke-opacity:1; 
stroke-linecap:round; stroke-linejoin:round;">
<path d="M102362 4724
L102362 3937
" />
</g>
<g style="fill:#000000; fill-opacity:0.0; 
stroke:#000000; stroke-width:39.3701; stroke-opacity:1; 
stroke-linecap:round; stroke-linejoin:round;">
</g>
<g style="fill:#000000; fill-opacity:0.0; 
stroke:#000000; stroke-width:59.0551; stroke-opacity:1; 
stroke-linecap:round; stroke-linejoin:round;">
<path d="M14199 4562
L13906 4562
" />
<path d="M14052 4562
L14052 4050
L14004 4123
L13955 4172
L13906 4196
" />
</g>
<g style="fill:#000000; fill-opacity:0.0; 
stroke:#000000; stroke-width:39.3701; stroke-opacity:1; 
stroke-linecap:round; stroke-linejoin:round;">
</g>
<g style="fill:#000000; fill-opacity:0.0; 
stroke:#000000; stroke-width:59.0551; stroke-opacity:1; 
stroke-linecap:round; stroke-linejoin:round;">
<path d="M33591 4099
L33615 4074
L33664 4050
L33786 4050
L33835 4074
L33859 4099
L33884 4147
L33884 4196
L33859 4269
L33567 4562
L33884 4562
" />
</g>
<g style="fill:#000000; fill-opacity:0.0; 
stroke:#000000; stroke-width:39.3701; stroke-opacity:1; 
stroke-linecap:round; stroke-linejoin:round;">
</g>
<g style="fill:#000000; fill-opacity:0.0; 
stroke:#000000; stroke-width:59.0551; stroke-opacity:1; 
stroke-linecap:round; stroke-linejoin:round;">
<path d="M53252 4050
L53569 4050
L53398 4245
L53471 4245
L53520 4269
L53544 4294
L53569 4342
L53569 4464
L53544 4513
L53520 4537
L53471 4562
L53325 4562
L53276 4537
L53252 4513
" />
</g>
<g style="fill:#000000; fill-opacity:0.0; 
stroke:#000000; stroke-width:39.3701; stroke-opacity:1; 
stroke-linecap:round; stroke-linejoin:round;">
</g>
<g style="fill:#000000; fill-opacity:0.0; 
stroke:#000000; stroke-width:59.0551; stroke-opacity:1; 
stroke-linecap:round; stroke-linejoin:round;">
<path d="M73205 4221
L73205 4562
" />
<path d="M73083 4026
L72961 4391
L73278 4391
" />
</g>
<g style="fill:#000000; fill-opacity:0.0; 
stroke:#000000; stroke-width:39.3701; stroke-opacity:1; 
stroke-linecap:round; stroke-linejoin:round;">
</g>
<g style="fill:#000000; fill-opacity:0.0; 
stroke:#000000; stroke-width:59.0551; stroke-opacity:1; 
stroke-linecap:round; stroke-linejoin:round;">
<path d="M92914 4050
L92671 4050
L92646 4294
L92671 4269
L92719 4245
L92841 4245
L92890 4269
L92914 4294
L92939 4342
L92939 4464
L92914 4513
L92890 4537
L92841 4562
L92719 4562
L92671 4537
L92646 4513
" />
</g>
<g style="fill:#000000; fill-opacity:0.0; 
stroke:#000000; stroke-width:39.3701; stroke-opacity:1; 
stroke-linecap:round; stroke-linejoin:round;">
</g>
<g style="fill:#000000; fill-opacity:0.0; 
stroke:#000000; stroke-width:59.0551; stroke-opacity:1; 
stroke-linecap:round; stroke-linejoin:round;">
<path d="M112575 4050
L112477 4050
L112429 4074
L112404 4099
L112356 4172
L112331 4269
L112331 4464
L112356 4513
L112380 4537
L112429 4562
L112526 4562
L112575 4537
L112599 4513
L112624 4464
L112624 4342
L112599 4294
L112575 4269
L112526 4245
L112429 4245
L112380 4269
L112356 4294
L112331 4342
" />
</g>
<g style="fill:#000000; fill-opacity:0.0; 
stroke:#000000; stroke-width:39.3701; stroke-opacity:1; 
stroke-linecap:round; stroke-linejoin:round;">
</g>
<g style="fill:#000000; fill-opacity:0.0; 
stroke:#000000; stroke-width:59.0551; stroke-opacity:1; 
stroke-linecap:round; stroke-linejoin:round;">
<path d="M23622 77955
L23622 78742
" />
</g>
<g style="fill:#000000; fill-opacity:0.0; 
stroke:#000000; stroke-width:39.3701; stroke-opacity:1; 
stroke-linecap:round; stroke-linejoin:round;">
</g>
<g style="fill:#000000; fill-opacity:0.0; 
stroke:#000000; stroke-width:59.0551; stroke-opacity:1; 
stroke-linecap:round; stroke-linejoin:round;">
<path d="M43307 77955
L43307 78742
" />
</g>
<g style="fill:#000000; fill-opacity:0.0; 
stroke:#000000; stroke-width:39.3701; stroke-opacity:1; 
stroke-linecap:round; stroke-linejoin:round;">
</g>
<g style="fill:#000000; fill-opacity:0.0; 
stroke:#000000; stroke-width:59.0551; stroke-opacity:1; 
stroke-linecap:round; stroke-linejoin:round;">
<path d="M62992 77955
L62992 78742
" />
</g>
<g style="fill:#000000; fill-opacity:0.0; 
stroke:#000000; stroke-width:39.3701; stroke-opacity:1; 
stroke-linecap:round; stroke-linejoin:round;">
</g>
<g style="fill:#000000; fill-opacity:0.0; 
stroke:#000000; stroke-width:59.0551; stroke-opacity:1; 
stroke-linecap:round; stroke-linejoin:round;">
<path d="M82677 77955
L82677 78742
" />
</g>
<g style="fill:#000000; fill-opacity:0.0; 
stroke:#000000; stroke-width:39.3701; stroke-opacity:1; 
stroke-linecap:round; stroke-linejoin:round;">
</g>
<g style="fill:#000000; fill-opacity:0.0; 
stroke:#000000; stroke-width:59.0551; stroke-opacity:1; 
stroke-linecap:round; stroke-linejoin:round;">
<path d="M102362 77955
L102362 78742
" />
</g>
<g style="fill:#000000; fill-opacity:0.0; 
stroke:#000000; stroke-width:39.3701; stroke-opacity:1; 
stroke-linecap:round; stroke-linejoin:round;">
</g>
<g style="fill:#000000; fill-opacity:0.0; 
stroke:#000000; stroke-width:59.0551; stroke-opacity:1; 
stroke-linecap:round; stroke-linejoin:round;">
<path d="M14199 78580
L13906 78580
" />
<path d="M14052 78580
L14052 78069
L14004 78142
L13955 78190
L13906 78215
" />
</g>
<g style="fill:#000000; fill-opacity:0.0; 
stroke:#000000; stroke-width:39.3701; stroke-opacity:1; 
stroke-linecap:round; stroke-linejoin:round;">
</g>
<g style="fill:#000000; fill-opacity:0.0; 
stroke:#000000; stroke-width:59.0551; stroke-opacity:1; 
stroke-linecap:round; stroke-linejoin:round;">
<path d="M33591 78117
L33615 78093
L33664 78069
L33786 78069
L33835 78093
L33859 78117
L33884 78166
L33884 78215
L33859 78288
L33567 78580
L33884 78580
" />
</g>
<g style="fill:#000000; fill-opacity:0.0; 
stroke:#000000; stroke-width:39.3701; stroke-opacity:1; 
stroke-linecap:round; stroke-linejoin:round;">
</g>
<g style="fill:#000000; fill-opacity:0.0; 
stroke:#000000; stroke-width:59.0551; stroke-opacity:1; 
stroke-linecap:round; stroke-linejoin:round;">
<path d="M53252 78069
L53569 78069
L53398 78263
L53471 78263
L53520 78288
L53544 78312
L53569 78361
L53569 78483
L53544 78532
L53520 78556
L53471 78580
L53325 78580
L53276 78556
L53252 78532
" />
</g>
<g style="fill:#000000; fill-opacity:0.0; 
stroke:#000000; stroke-width:39.3701; stroke-opacity:1; 
stroke-linecap:round; stroke-linejoin:round;">
</g>
<g style="fill:#000000; fill-opacity:0.0; 
stroke:#000000; stroke-width:59.0551; stroke-opacity:1; 
stroke-linecap:round; stroke-linejoin:round;">
<path d="M73205 78239
L73205 78580
" />
<path d="M73083 78044
L72961 78410
L73278 78410
" />
</g>
<g style="fill:#000000; fill-opacity:0.0; 
stroke:#000000; stroke-width:39.3701; stroke-opacity:1; 
stroke-linecap:round; stroke-linejoin:round;">
</g>
<g style="fill:#000000; fill-opacity:0.0; 
stroke:#000000; stroke-width:59.0551; stroke-opacity:1; 
stroke-linecap:round; stroke-linejoin:round;">
<path d="M92914 78069
L92671 78069
L92646 78312
L92671 78288
L92719 78263
L92841 78263
L92890 78288
L92914 78312
L92939 78361
L92939 78483
L92914 78532
L92890 78556
L92841 78580
L92719 78580
L92671 78556
L92646 78532
" />
</g>
<g style="fill:#000000; fill-opacity:0.0; 
stroke:#000000; stroke-width:39.3701; stroke-opacity:1; 
stroke-linecap:round; stroke-linejoin:round;">
</g>
<g style="fill:#000000; fill-opacity:0.0; 
stroke:#000000; stroke-width:59.0551; stroke-opacity:1; 
stroke-linecap:round; stroke-linejoin:round;">
<path d="M112575 78069
L112477 78069
L112429 78093
L112404 78117
L112356 78190
L112331 78288
L112331 78483
L112356 78532
L112380 78556
L112429 78580
L112526 78580
L112575 78556
L112599 78532
L112624 78483
L112624 78361
L112599 78312
L112575 78288
L112526 78263
L112429 78263
L112380 78288
L112356 78312
L112331 78361
" />
</g>
<g style="fill:#000000; fill-opacity:0.0; 
stroke:#000000; stroke-width:39.3701; stroke-opacity:1; 
stroke-linecap:round; stroke-linejoin:round;">
</g>
<g style="fill:#000000; fill-opacity:0.0; 
stroke:#000000; stroke-width:59.0551; stroke-opacity:1; 
stroke-linecap:round; stroke-linejoin:round;">
<path d="M3937 23622
L4724 23622
" />
</g>
<g style="fill:#000000; fill-opacity:0.0; 
stroke:#000000; stroke-width:39.3701; stroke-opacity:1; 
stroke-linecap:round; stroke-linejoin:round;">
</g>
<g style="fill:#000000; fill-opacity:0.0; 
stroke:#000000; stroke-width:59.0551; stroke-opacity:1; 
stroke-linecap:round; stroke-linejoin:round;">
<path d="M3937 43307
L4724 43307
" />
</g>
<g style="fill:#000000; fill-opacity:0.0; 
stroke:#000000; stroke-width:39.3701; stroke-opacity:1; 
stroke-linecap:round; stroke-linejoin:round;">
</g>
<g style="fill:#000000; fill-opacity:0.0; 
stroke:#000000; stroke-width:59.0551; stroke-opacity:1; 
stroke-linecap:round; stroke-linejoin:round;">
<path d="M3937 62992
L4724 62992
" />
</g>
<g style="fill:#000000; fill-opacity:0.0; 
stroke:#000000; stroke-width:39.3701; stroke-opacity:1; 
stroke-linecap:round; stroke-linejoin:round;">
</g>
<g style="fill:#000000; fill-opacity:0.0; 
stroke:#000000; stroke-width:59.0551; stroke-opacity:1; 
stroke-linecap:round; stroke-linejoin:round;">
<path d="M4208 13864
L4452 13864
" />
<path d="M4160 14011
L4330 13499
L4501 14011
" />
</g>
<g style="fill:#000000; fill-opacity:0.0; 
stroke:#000000; stroke-width:39.3701; stroke-opacity:1; 
stroke-linecap:round; stroke-linejoin:round;">
</g>
<g style="fill:#000000; fill-opacity:0.0; 
stroke:#000000; stroke-width:59.0551; stroke-opacity:1; 
stroke-linecap:round; stroke-linejoin:round;">
<path d="M4367 33428
L4440 33452
L4464 33476
L4489 33525
L4489 33598
L4464 33647
L4440 33671
L4391 33696
L4196 33696
L4196 33184
L4367 33184
L4416 33208
L4440 33233
L4464 33281
L4464 33330
L4440 33379
L4416 33403
L4367 33428
L4196 33428
" />
</g>
<g style="fill:#000000; fill-opacity:0.0; 
stroke:#000000; stroke-width:39.3701; stroke-opacity:1; 
stroke-linecap:round; stroke-linejoin:round;">
</g>
<g style="fill:#000000; fill-opacity:0.0; 
stroke:#000000; stroke-width:59.0551; stroke-opacity:1; 
stroke-linecap:round; stroke-linejoin:round;">
<path d="M4489 53332
L4464 53356
L4391 53381
L4342 53381
L4269 53356
L4221 53308
L4196 53259
L4172 53161
L4172 53088
L4196 52991
L4221 52942
L4269 52893
L4342 52869
L4391 52869
L4464 52893
L4489 52918
" />
</g>
<g style="fill:#000000; fill-opacity:0.0; 
stroke:#000000; stroke-width:39.3701; stroke-opacity:1; 
stroke-linecap:round; stroke-linejoin:round;">
</g>
<g style="fill:#000000; fill-opacity:0.0; 
stroke:#000000; stroke-width:59.0551; stroke-opacity:1; 
stroke-linecap:round; stroke-linejoin:round;">
<path d="M4196 73066
L4196 72554
L4318 72554
L4391 72578
L4440 72627
L4464 72676
L4489 72773
L4489 72846
L4464 72944
L4440 72993
L4391 73041
L4318 73066
L4196 73066
" />
</g>
<g style="fill:#000000; fill-opacity:0.0; 
stroke:#000000; stroke-width:39.3701; stroke-opacity:1; 
stroke-linecap:round; stroke-linejoin:round;">
</g>
<g style="fill:#000000; fill-opacity:0.0; 
stroke:#000000; stroke-width:59.0551; stroke-opacity:1; 
stroke-linecap:round; stroke-linejoin:round;">
<path d="M112992 23622
L112205 23622
" />
</g>
<g style="fill:#000000; fill-opacity:0.0; 
stroke:#000000; stroke-width:39.3701; stroke-opacity:1; 
stroke-linecap:round; stroke-linejoin:round;">
</g>
<g style="fill:#000000; fill-opacity:0.0; 
stroke:#000000; stroke-width:59.0551; stroke-opacity:1; 
stroke-linecap:round; stroke-linejoin:round;">
<path d="M112992 43307
L112205 43307
" />
</g>
<g style="fill:#000000; fill-opacity:0.0; 
stroke:#000000; stroke-width:39.3701; stroke-opacity:1; 
stroke-linecap:round; stroke-linejoin:round;">
</g>
<g style="fill:#000000; fill-opacity:0.0; 
stroke:#000000; stroke-width:59.0551; stroke-opacity:1; 
stroke-linecap:round; stroke-linejoin:round;">
<path d="M112992 62992
L112205 62992
" />
</g>
<g style="fill:#000000; fill-opacity:0.0; 
stroke:#000000; stroke-width:39.3701; stroke-opacity:1; 
stroke-linecap:round; stroke-linejoin:round;">
</g>
<g style="fill:#000000; fill-opacity:0.0; 
stroke:#000000; stroke-width:59.0551; stroke-opacity:1; 
stroke-linecap:round; stroke-linejoin:round;">
<path d="M112477 13864
L112721 13864
" />
<path d="M112428 14011
L112599 13499
L112769 14011
" />
</g>
<g style="fill:#000000; fill-opacity:0.0; 
stroke:#000000; stroke-width:39.3701; stroke-opacity:1; 
stroke-linecap:round; stroke-linejoin:round;">
</g>
<g style="fill:#000000; fill-opacity:0.0; 
stroke:#000000; stroke-width:59.0551; stroke-opacity:1; 
stroke-linecap:round; stroke-linejoin:round;">
<path d="M112635 33428
L112708 33452
L112733 33476
L112757 33525
L112757 33598
L112733 33647
L112708 33671
L112660 33696
L112465 33696
L112465 33184
L112635 33184
L112684 33208
L112708 33233
L112733 33281
L112733 33330
L112708 33379
L112684 33403
L112635 33428
L112465 33428
" />
</g>
<g style="fill:#000000; fill-opacity:0.0; 
stroke:#000000; stroke-width:39.3701; stroke-opacity:1; 
stroke-linecap:round; stroke-linejoin:round;">
</g>
<g style="fill:#000000; fill-opacity:0.0; 
stroke:#000000; stroke-width:59.0551; stroke-opacity:1; 
stroke-linecap:round; stroke-linejoin:round;">
<path d="M112757 53332
L112733 53356
L112660 53381
L112611 53381
L112538 53356
L112489 53308
L112465 53259
L112440 53161
L112440 53088
L112465 52991
L112489 52942
L112538 52893
L112611 52869
L112660 52869
L112733 52893
L112757 52918
" />
</g>
<g style="fill:#000000; fill-opacity:0.0; 
stroke:#000000; stroke-width:39.3701; stroke-opacity:1; 
stroke-linecap:round; stroke-linejoin:round;">
</g>
<g style="fill:#000000; fill-opacity:0.0; 
stroke:#000000; stroke-width:59.0551; stroke-opacity:1; 
stroke-linecap:round; stroke-linejoin:round;">
<path d="M112465 73066
L112465 72554
L112587 72554
L112660 72578
L112708 72627
L112733 72676
L112757 72773
L112757 72846
L112733 72944
L112708 72993
L112660 73041
L112587 73066
L112465 73066
" />
</g>
<g style="fill:#000000; fill-opacity:0.0; 
stroke:#000000; stroke-width:39.3701; stroke-opacity:1; 
stroke-linecap:round; stroke-linejoin:round;">
</g>
<g style="fill:#000000; fill-opacity:0.0; 
stroke:#000000; stroke-width:59.0551; stroke-opacity:1; 
stroke-linecap:round; stroke-linejoin:round;">
<path d="M78911 76293
L78911 75703
L79051 75703
L79136 75731
L79192 75787
L79220 75843
L79248 75956
L79248 76040
L79220 76153
L79192 76209
L79136 76265
L79051 76293
L78911 76293
" />
<path d="M79754 76293
L79754 75984
L79726 75928
L79670 75899
L79557 75899
L79501 75928
" />
<path d="M79754 76265
L79698 76293
L79557 76293
L79501 76265
L79473 76209
L79473 76153
L79501 76096
L79557 76068
L79698 76068
L79754 76040
" />
<path d="M79951 75899
L80176 75899
" />
<path d="M80036 75703
L80036 76209
L80064 76265
L80120 76293
L80176 76293
" />
<path d="M80598 76265
L80542 76293
L80429 76293
L80373 76265
L80345 76209
L80345 75984
L80373 75928
L80429 75899
L80542 75899
L80598 75928
L80626 75984
L80626 76040
L80345 76096
" />
<path d="M80879 76237
L80907 76265
L80879 76293
L80851 76265
L80879 76237
L80879 76293
" />
<path d="M80879 75928
L80907 75956
L80879 75984
L80851 75956
L80879 75928
L80879 75984
" />
</g>
<g style="fill:#000000; fill-opacity:0.0; 
stroke:#000000; stroke-width:39.3701; stroke-opacity:1; 
stroke-linecap:round; stroke-linejoin:round;">
</g>
<g style="fill:#000000; fill-opacity:0.0; 
stroke:#000000; stroke-width:59.0551; stroke-opacity:1; 
stroke-linecap:round; stroke-linejoin:round;">
<path d="M69685 76577
L112205 76577
" />
</g>
<g style="fill:#000000; fill-opacity:0.0; 
stroke:#000000; stroke-width:39.3701; stroke-opacity:1; 
stroke-linecap:round; stroke-linejoin:round;">
</g>
<g style="fill:#000000; fill-opacity:0.0; 
stroke:#000000; stroke-width:59.0551; stroke-opacity:1; 
stroke-linecap:round; stroke-linejoin:round;">
<path d="M70249 77395
L70249 76805
" />
<path d="M70587 77395
L70334 77058
" />
<path d="M70587 76805
L70249 77142
" />
<path d="M70840 77395
L70840 77002
" />
<path d="M70840 76805
L70812 76833
L70840 76861
L70868 76833
L70840 76805
L70840 76861
" />
<path d="M71458 77339
L71430 77367
L71346 77395
L71290 77395
L71205 77367
L71149 77311
L71121 77255
L71093 77142
L71093 77058
L71121 76946
L71149 76889
L71205 76833
L71290 76805
L71346 76805
L71430 76833
L71458 76861
" />
<path d="M71965 77395
L71965 77086
L71937 77030
L71880 77002
L71768 77002
L71712 77030
" />
<path d="M71965 77367
L71908 77395
L71768 77395
L71712 77367
L71683 77311
L71683 77255
L71712 77199
L71768 77171
L71908 77171
L71965 77142
" />
<path d="M72499 77395
L72499 76805
" />
<path d="M72499 77367
L72443 77395
L72330 77395
L72274 77367
L72246 77339
L72218 77283
L72218 77114
L72246 77058
L72274 77030
L72330 77002
L72443 77002
L72499 77030
" />
<path d="M73230 77086
L73427 77086
" />
<path d="M73511 77395
L73230 77395
L73230 76805
L73511 76805
" />
<path d="M73764 77339
L73793 77367
L73764 77395
L73736 77367
L73764 77339
L73764 77395
" />
<path d="M74046 77395
L74046 76805
L74186 76805
L74271 76833
L74327 76889
L74355 76946
L74383 77058
L74383 77142
L74355 77255
L74327 77311
L74271 77367
L74186 77395
L74046 77395
" />
<path d="M74636 77339
L74664 77367
L74636 77395
L74608 77367
L74636 77339
L74636 77395
" />
<path d="M74889 77227
L75171 77227
" />
<path d="M74833 77395
L75030 76805
L75227 77395
" />
<path d="M75424 77339
L75452 77367
L75424 77395
L75395 77367
L75424 77339
L75424 77395
" />
<path d="M76605 77395
L76605 76805
" />
<path d="M76661 77171
L76830 77395
" />
<path d="M76830 77002
L76605 77227
" />
<path d="M77083 77395
L77083 77002
" />
<path d="M77083 76805
L77055 76833
L77083 76861
L77111 76833
L77083 76805
L77083 76861
" />
<path d="M77617 77367
L77561 77395
L77448 77395
L77392 77367
L77364 77339
L77336 77283
L77336 77114
L77364 77058
L77392 77030
L77448 77002
L77561 77002
L77617 77030
" />
<path d="M78123 77395
L78123 77086
L78095 77030
L78039 77002
L77926 77002
L77870 77030
" />
<path d="M78123 77367
L78067 77395
L77926 77395
L77870 77367
L77842 77311
L77842 77255
L77870 77199
L77926 77171
L78067 77171
L78123 77142
" />
<path d="M78658 77395
L78658 76805
" />
<path d="M78658 77367
L78601 77395
L78489 77395
L78433 77367
L78404 77339
L78376 77283
L78376 77114
L78404 77058
L78433 77030
L78489 77002
L78601 77002
L78658 77030
" />
<path d="M79642 77002
L79642 77395
" />
<path d="M79501 76777
L79361 77199
L79726 77199
" />
<path d="M79951 77339
L79979 77367
L79951 77395
L79923 77367
L79951 77339
L79951 77395
" />
<path d="M80542 77395
L80204 77395
" />
<path d="M80373 77395
L80373 76805
L80317 76889
L80260 76946
L80204 76974
" />
<path d="M80795 77339
L80823 77367
L80795 77395
L80767 77367
L80795 77339
L80795 77395
" />
<path d="M81188 76805
L81245 76805
L81301 76833
L81329 76861
L81357 76917
L81385 77030
L81385 77171
L81357 77283
L81329 77339
L81301 77367
L81245 77395
L81188 77395
L81132 77367
L81104 77339
L81076 77283
L81048 77171
L81048 77030
L81076 76917
L81104 76861
L81132 76833
L81188 76805
" />
<path d="M81638 77171
L82088 77171
" />
<path d="M82623 77395
L82623 77086
L82595 77030
L82538 77002
L82426 77002
L82370 77030
" />
<path d="M82623 77367
L82566 77395
L82426 77395
L82370 77367
L82341 77311
L82341 77255
L82370 77199
L82426 77171
L82566 77171
L82623 77142
" />
<path d="M82988 77395
L82932 77367
L82904 77311
L82904 76805
" />
<path d="M83213 77002
L83213 77592
" />
<path d="M83213 77030
L83269 77002
L83382 77002
L83438 77030
L83466 77058
L83494 77114
L83494 77283
L83466 77339
L83438 77367
L83382 77395
L83269 77395
L83213 77367
" />
<path d="M83748 77395
L83748 76805
" />
<path d="M84001 77395
L84001 77086
L83973 77030
L83916 77002
L83832 77002
L83776 77030
L83748 77058
" />
<path d="M84535 77395
L84535 77086
L84507 77030
L84451 77002
L84338 77002
L84282 77030
" />
<path d="M84535 77367
L84479 77395
L84338 77395
L84282 77367
L84254 77311
L84254 77255
L84282 77199
L84338 77171
L84479 77171
L84535 77142
" />
<path d="M84816 77171
L85266 77171
" />
<path d="M85041 77395
L85041 76946
" />
<path d="M85519 76861
L85547 76833
L85604 76805
L85744 76805
L85800 76833
L85829 76861
L85857 76917
L85857 76974
L85829 77058
L85491 77395
L85857 77395
" />
<path d="M86222 76805
L86278 76805
L86335 76833
L86363 76861
L86391 76917
L86419 77030
L86419 77171
L86391 77283
L86363 77339
L86335 77367
L86278 77395
L86222 77395
L86166 77367
L86138 77339
L86110 77283
L86082 77171
L86082 77030
L86110 76917
L86138 76861
L86166 76833
L86222 76805
" />
<path d="M86982 77395
L86644 77395
" />
<path d="M86813 77395
L86813 76805
L86757 76889
L86700 76946
L86644 76974
" />
<path d="M87488 76805
L87375 76805
L87319 76833
L87291 76861
L87235 76946
L87206 77058
L87206 77283
L87235 77339
L87263 77367
L87319 77395
L87431 77395
L87488 77367
L87516 77339
L87544 77283
L87544 77142
L87516 77086
L87488 77058
L87431 77030
L87319 77030
L87263 77058
L87235 77086
L87206 77142
" />
<path d="M87910 76805
L87966 76805
L88022 76833
L88050 76861
L88078 76917
L88106 77030
L88106 77171
L88078 77283
L88050 77339
L88022 77367
L87966 77395
L87910 77395
L87853 77367
L87825 77339
L87797 77283
L87769 77171
L87769 77030
L87797 76917
L87825 76861
L87853 76833
L87910 76805
" />
<path d="M88303 76805
L88697 76805
L88444 77395
" />
<path d="M89231 77395
L88894 77395
" />
<path d="M89063 77395
L89063 76805
L89006 76889
L88950 76946
L88894 76974
" />
<path d="M89512 77395
L89625 77395
L89681 77367
L89709 77339
L89766 77255
L89794 77142
L89794 76917
L89766 76861
L89737 76833
L89681 76805
L89569 76805
L89512 76833
L89484 76861
L89456 76917
L89456 77058
L89484 77114
L89512 77142
L89569 77171
L89681 77171
L89737 77142
L89766 77114
L89794 77058
" />
<path d="M90159 76805
L90215 76805
L90272 76833
L90300 76861
L90328 76917
L90356 77030
L90356 77171
L90328 77283
L90300 77339
L90272 77367
L90215 77395
L90159 77395
L90103 77367
L90075 77339
L90047 77283
L90019 77171
L90019 77030
L90047 76917
L90075 76861
L90103 76833
L90159 76805
" />
<path d="M90553 76805
L90947 76805
L90694 77395
" />
<path d="M91481 77395
L91144 77395
" />
<path d="M91312 77395
L91312 76805
L91256 76889
L91200 76946
L91144 76974
" />
<path d="M91987 76805
L91875 76805
L91818 76833
L91790 76861
L91734 76946
L91706 77058
L91706 77283
L91734 77339
L91762 77367
L91818 77395
L91931 77395
L91987 77367
L92015 77339
L92043 77283
L92043 77142
L92015 77086
L91987 77058
L91931 77030
L91818 77030
L91762 77058
L91734 77086
L91706 77142
" />
<path d="M92296 77171
L92746 77171
" />
<path d="M92521 77395
L92521 76946
" />
<path d="M93281 76805
L93168 76805
L93112 76833
L93084 76861
L93028 76946
L93000 77058
L93000 77283
L93028 77339
L93056 77367
L93112 77395
L93224 77395
L93281 77367
L93309 77339
L93337 77283
L93337 77142
L93309 77086
L93281 77058
L93224 77030
L93112 77030
L93056 77058
L93028 77086
L93000 77142
" />
<path d="M93618 77395
L93731 77395
L93787 77367
L93815 77339
L93871 77255
L93899 77142
L93899 76917
L93871 76861
L93843 76833
L93787 76805
L93674 76805
L93618 76833
L93590 76861
L93562 76917
L93562 77058
L93590 77114
L93618 77142
L93674 77171
L93787 77171
L93843 77142
L93871 77114
L93899 77058
" />
<path d="M94237 77058
L94181 77030
L94153 77002
L94124 76946
L94124 76917
L94153 76861
L94181 76833
L94237 76805
L94349 76805
L94406 76833
L94434 76861
L94462 76917
L94462 76946
L94434 77002
L94406 77030
L94349 77058
L94237 77058
L94181 77086
L94153 77114
L94124 77171
L94124 77283
L94153 77339
L94181 77367
L94237 77395
L94349 77395
L94406 77367
L94434 77339
L94462 77283
L94462 77171
L94434 77114
L94406 77086
L94349 77058
" />
<path d="M94659 76805
L95024 76805
L94827 77030
L94912 77030
L94968 77058
L94996 77086
L95024 77142
L95024 77283
L94996 77339
L94968 77367
L94912 77395
L94743 77395
L94687 77367
L94659 77339
" />
<path d="M95234 76644
L95699 76644
" />
<path d="M95530 77002
L95530 77395
" />
<path d="M95390 76777
L95249 77199
L95615 77199
" />
<path d="M95699 76644
L96262 76644
" />
<path d="M96093 76805
L95980 76805
L95924 76833
L95896 76861
L95840 76946
L95812 77058
L95812 77283
L95840 77339
L95868 77367
L95924 77395
L96037 77395
L96093 77367
L96121 77339
L96149 77283
L96149 77142
L96121 77086
L96093 77058
L96037 77030
L95924 77030
L95868 77058
L95840 77086
L95812 77142
" />
<path d="M96655 77002
L96655 77395
" />
<path d="M96402 77002
L96402 77311
L96430 77367
L96487 77395
L96571 77395
L96627 77367
L96655 77339
" />
<path d="M96937 77395
L96937 76805
" />
<path d="M96937 77030
L96993 77002
L97105 77002
L97162 77030
L97190 77058
L97218 77114
L97218 77283
L97190 77339
L97162 77367
L97105 77395
L96993 77395
L96937 77367
" />
<path d="M97724 77002
L97724 77395
" />
<path d="M97471 77002
L97471 77311
L97499 77367
L97555 77395
L97640 77395
L97696 77367
L97724 77339
" />
<path d="M98005 77002
L98005 77395
" />
<path d="M98005 77058
L98033 77030
L98090 77002
L98174 77002
L98230 77030
L98258 77086
L98258 77395
" />
<path d="M98455 77002
L98680 77002
" />
<path d="M98539 76805
L98539 77311
L98568 77367
L98624 77395
L98680 77395
" />
<path d="M99130 77002
L99130 77395
" />
<path d="M98877 77002
L98877 77311
L98905 77367
L98961 77395
L99046 77395
L99102 77367
L99130 77339
" />
<path d="M99721 77395
L99383 77395
" />
<path d="M99552 77395
L99552 76805
L99496 76889
L99439 76946
L99383 76974
" />
<path d="M100227 77002
L100227 77395
" />
<path d="M100086 76777
L99946 77199
L100311 77199
" />
<path d="M100536 77339
L100564 77367
L100536 77395
L100508 77367
L100536 77339
L100536 77395
" />
<path d="M100930 76805
L100986 76805
L101042 76833
L101070 76861
L101099 76917
L101127 77030
L101127 77171
L101099 77283
L101070 77339
L101042 77367
L100986 77395
L100930 77395
L100874 77367
L100845 77339
L100817 77283
L100789 77171
L100789 77030
L100817 76917
L100845 76861
L100874 76833
L100930 76805
" />
<path d="M101633 77002
L101633 77395
" />
<path d="M101492 76777
L101352 77199
L101717 77199
" />
<path d="M101942 77339
L101970 77367
L101942 77395
L101914 77367
L101942 77339
L101942 77395
" />
<path d="M102533 77395
L102195 77395
" />
<path d="M102364 77395
L102364 76805
L102308 76889
L102251 76946
L102195 76974
" />
<path d="M102786 77171
L103236 77171
" />
<path d="M103517 77002
L103517 77592
" />
<path d="M103517 77030
L103573 77002
L103686 77002
L103742 77030
L103770 77058
L103798 77114
L103798 77283
L103770 77339
L103742 77367
L103686 77395
L103573 77395
L103517 77367
" />
<path d="M104051 77395
L104051 77002
" />
<path d="M104051 77114
L104079 77058
L104108 77030
L104164 77002
L104220 77002
" />
<path d="M104501 77395
L104445 77367
L104417 77339
L104389 77283
L104389 77114
L104417 77058
L104445 77030
L104501 77002
L104586 77002
L104642 77030
L104670 77058
L104698 77114
L104698 77283
L104670 77339
L104642 77367
L104586 77395
L104501 77395
" />
<path d="M105204 77395
L105204 76805
" />
<path d="M105204 77367
L105148 77395
L105036 77395
L104979 77367
L104951 77339
L104923 77283
L104923 77114
L104951 77058
L104979 77030
L105036 77002
L105148 77002
L105204 77030
" />
<path d="M105739 77002
L105739 77395
" />
<path d="M105485 77002
L105485 77311
L105514 77367
L105570 77395
L105654 77395
L105710 77367
L105739 77339
" />
<path d="M106273 77367
L106217 77395
L106104 77395
L106048 77367
L106020 77339
L105992 77283
L105992 77114
L106020 77058
L106048 77030
L106104 77002
L106217 77002
L106273 77030
" />
<path d="M106442 77002
L106667 77002
" />
<path d="M106526 76805
L106526 77311
L106554 77367
L106610 77395
L106667 77395
" />
</g>
<g style="fill:#000000; fill-opacity:0.0; 
stroke:#000000; stroke-width:39.3701; stroke-opacity:1; 
stroke-linecap:round; stroke-linejoin:round;">
</g>
<g style="fill:#000000; fill-opacity:0.0; 
stroke:#000000; stroke-width:59.0551; stroke-opacity:1; 
stroke-linecap:round; stroke-linejoin:round;">
<path d="M69685 75396
L112205 75396
" />
</g>
<g style="fill:#000000; fill-opacity:0.0; 
stroke:#000000; stroke-width:39.3701; stroke-opacity:1; 
stroke-linecap:round; stroke-linejoin:round;">
</g>
<g style="fill:#000000; fill-opacity:0.0; 
stroke:#000000; stroke-width:118.11; stroke-opacity:1; 
stroke-linecap:round; stroke-linejoin:round;">
<path d="M104099 76293
L103902 76012
" />
<path d="M103761 76293
L103761 75703
L103986 75703
L104042 75731
L104070 75759
L104099 75815
L104099 75899
L104070 75956
L104042 75984
L103986 76012
L103761 76012
" />
<path d="M104577 76265
L104520 76293
L104408 76293
L104352 76265
L104323 76209
L104323 75984
L104352 75928
L104408 75899
L104520 75899
L104577 75928
L104605 75984
L104605 76040
L104323 76096
" />
<path d="M104802 75899
L104942 76293
L105083 75899
" />
<path d="M105308 76237
L105336 76265
L105308 76293
L105280 76265
L105308 76237
L105308 76293
" />
<path d="M105308 75928
L105336 75956
L105308 75984
L105280 75956
L105308 75928
L105308 75984
" />
</g>
<g style="fill:#000000; fill-opacity:0.0; 
stroke:#000000; stroke-width:39.3701; stroke-opacity:1; 
stroke-linecap:round; stroke-linejoin:round;">
</g>
<g style="fill:#000000; fill-opacity:0.0; 
stroke:#000000; stroke-width:59.0551; stroke-opacity:1; 
stroke-linecap:round; stroke-linejoin:round;">
<path d="M70221 76265
L70305 76293
L70446 76293
L70502 76265
L70530 76237
L70559 76181
L70559 76124
L70530 76068
L70502 76040
L70446 76012
L70334 75984
L70277 75956
L70249 75928
L70221 75871
L70221 75815
L70249 75759
L70277 75731
L70334 75703
L70474 75703
L70559 75731
" />
<path d="M70812 76293
L70812 75899
" />
<path d="M70812 75703
L70784 75731
L70812 75759
L70840 75731
L70812 75703
L70812 75759
" />
<path d="M71037 75899
L71346 75899
L71037 76293
L71346 76293
" />
<path d="M71796 76265
L71740 76293
L71627 76293
L71571 76265
L71543 76209
L71543 75984
L71571 75928
L71627 75899
L71740 75899
L71796 75928
L71824 75984
L71824 76040
L71543 76096
" />
<path d="M72077 76237
L72105 76265
L72077 76293
L72049 76265
L72077 76237
L72077 76293
" />
<path d="M72077 75928
L72105 75956
L72077 75984
L72049 75956
L72077 75928
L72077 75984
" />
<path d="M72780 76124
L73061 76124
" />
<path d="M72724 76293
L72921 75703
L73118 76293
" />
<path d="M73568 75899
L73568 76293
" />
<path d="M73427 75674
L73286 76096
L73652 76096
" />
</g>
<g style="fill:#000000; fill-opacity:0.0; 
stroke:#000000; stroke-width:39.3701; stroke-opacity:1; 
stroke-linecap:round; stroke-linejoin:round;">
</g>
<g style="fill:#000000; fill-opacity:0.0; 
stroke:#000000; stroke-width:59.0551; stroke-opacity:1; 
stroke-linecap:round; stroke-linejoin:round;">
<path d="M103714 77395
L103714 76805
" />
<path d="M104248 77395
L104248 76805
" />
<path d="M104248 77367
L104192 77395
L104079 77395
L104023 77367
L103995 77339
L103967 77283
L103967 77114
L103995 77058
L104023 77030
L104079 77002
L104192 77002
L104248 77030
" />
<path d="M104529 77339
L104557 77367
L104529 77395
L104501 77367
L104529 77339
L104529 77395
" />
<path d="M104529 77030
L104557 77058
L104529 77086
L104501 77058
L104529 77030
L104529 77086
" />
<path d="M105570 77395
L105232 77395
" />
<path d="M105401 77395
L105401 76805
L105345 76889
L105289 76946
L105232 76974
" />
<path d="M106245 76777
L105739 77536
" />
<path d="M106751 77395
L106413 77395
" />
<path d="M106582 77395
L106582 76805
L106526 76889
L106470 76946
L106413 76974
" />
</g>
<g style="fill:#000000; fill-opacity:0.0; 
stroke:#000000; stroke-width:39.3701; stroke-opacity:1; 
stroke-linecap:round; stroke-linejoin:round;">
</g>
<g style="fill:#000000; fill-opacity:0.0; 
stroke:#000000; stroke-width:59.0551; stroke-opacity:1; 
stroke-linecap:round; stroke-linejoin:round;">
<path d="M69685 73821
L112205 73821
" />
</g>
<g style="fill:#000000; fill-opacity:0.0; 
stroke:#000000; stroke-width:39.3701; stroke-opacity:1; 
stroke-linecap:round; stroke-linejoin:round;">
</g>
<g style="fill:#000000; fill-opacity:0.0; 
stroke:#000000; stroke-width:157.48; stroke-opacity:1; 
stroke-linecap:round; stroke-linejoin:round;">
<path d="M70360 74099
L70810 74099
" />
<path d="M70486 74886
L70585 74099
" />
<path d="M70974 74886
L71039 74361
" />
<path d="M71072 74099
L71030 74136
L71063 74174
L71105 74136
L71072 74099
L71063 74174
" />
<path d="M71302 74361
L71602 74361
" />
<path d="M71447 74099
L71363 74774
L71391 74849
L71461 74886
L71536 74886
" />
<path d="M71911 74886
L71841 74849
L71813 74774
L71897 74099
" />
<path d="M72516 74849
L72436 74886
L72286 74886
L72216 74849
L72187 74774
L72225 74474
L72272 74399
L72352 74361
L72501 74361
L72572 74399
L72600 74474
L72591 74549
L72206 74624
" />
<path d="M72895 74811
L72928 74849
L72886 74886
L72853 74849
L72895 74811
L72886 74886
" />
<path d="M72947 74399
L72980 74436
L72937 74474
L72905 74436
L72947 74399
L72937 74474
" />
</g>
<g style="fill:#000000; fill-opacity:0.0; 
stroke:#000000; stroke-width:39.3701; stroke-opacity:1; 
stroke-linecap:round; stroke-linejoin:round;">
</g>
<g style="fill:#000000; fill-opacity:0.0; 
stroke:#000000; stroke-width:59.0551; stroke-opacity:1; 
stroke-linecap:round; stroke-linejoin:round;">
<path d="M70446 73070
L70249 73070
" />
<path d="M70249 73380
L70249 72789
L70530 72789
" />
<path d="M70755 73380
L70755 72986
" />
<path d="M70755 72789
L70727 72817
L70755 72845
L70784 72817
L70755 72789
L70755 72845
" />
<path d="M71121 73380
L71065 73352
L71037 73295
L71037 72789
" />
<path d="M71571 73352
L71515 73380
L71402 73380
L71346 73352
L71318 73295
L71318 73070
L71346 73014
L71402 72986
L71515 72986
L71571 73014
L71599 73070
L71599 73127
L71318 73183
" />
<path d="M71852 73323
L71880 73352
L71852 73380
L71824 73352
L71852 73323
L71852 73380
" />
<path d="M71852 73014
L71880 73042
L71852 73070
L71824 73042
L71852 73014
L71852 73070
" />
<path d="M72499 72789
L72836 72789
" />
<path d="M72668 73380
L72668 72789
" />
<path d="M73286 72986
L73286 73380
" />
<path d="M73033 72986
L73033 73295
L73061 73352
L73118 73380
L73202 73380
L73258 73352
L73286 73323
" />
<path d="M73568 73380
L73568 72986
" />
<path d="M73568 73099
L73596 73042
L73624 73014
L73680 72986
L73736 72986
" />
<path d="M73933 73380
L73933 72789
" />
<path d="M73933 73014
L73989 72986
L74102 72986
L74158 73014
L74186 73042
L74214 73099
L74214 73267
L74186 73323
L74158 73352
L74102 73380
L73989 73380
L73933 73352
" />
<path d="M74467 73380
L74467 72986
" />
<path d="M74467 72789
L74439 72817
L74467 72845
L74496 72817
L74467 72789
L74467 72845
" />
<path d="M75002 73380
L75002 72789
" />
<path d="M75002 73352
L74946 73380
L74833 73380
L74777 73352
L74749 73323
L74721 73267
L74721 73099
L74749 73042
L74777 73014
L74833 72986
L74946 72986
L75002 73014
" />
<path d="M75283 73380
L75283 72986
" />
<path d="M75283 72789
L75255 72817
L75283 72845
L75311 72817
L75283 72789
L75283 72845
" />
<path d="M75817 72986
L75817 73464
L75789 73520
L75761 73548
L75705 73577
L75620 73577
L75564 73548
" />
<path d="M75817 73352
L75761 73380
L75649 73380
L75592 73352
L75564 73323
L75536 73267
L75536 73099
L75564 73042
L75592 73014
L75649 72986
L75761 72986
L75817 73014
" />
<path d="M76099 72986
L76099 73380
" />
<path d="M76099 73042
L76127 73014
L76183 72986
L76267 72986
L76323 73014
L76352 73070
L76352 73380
" />
<path d="M76886 72986
L76886 73380
" />
<path d="M76633 72986
L76633 73295
L76661 73352
L76717 73380
L76802 73380
L76858 73352
L76886 73323
" />
<path d="M77139 73352
L77195 73380
L77308 73380
L77364 73352
L77392 73295
L77392 73267
L77364 73211
L77308 73183
L77223 73183
L77167 73155
L77139 73099
L77139 73070
L77167 73014
L77223 72986
L77308 72986
L77364 73014
" />
<path d="M77645 73380
L77645 72789
" />
<path d="M77645 73014
L77701 72986
L77814 72986
L77870 73014
L77898 73042
L77926 73099
L77926 73267
L77898 73323
L77870 73352
L77814 73380
L77701 73380
L77645 73352
" />
<path d="M78180 73323
L78208 73352
L78180 73380
L78151 73352
L78180 73323
L78180 73380
" />
<path d="M78461 73380
L78461 72789
" />
<path d="M78517 73155
L78686 73380
" />
<path d="M78686 72986
L78461 73211
" />
<path d="M78939 73380
L78939 72986
" />
<path d="M78939 72789
L78911 72817
L78939 72845
L78967 72817
L78939 72789
L78939 72845
" />
<path d="M79473 73352
L79417 73380
L79304 73380
L79248 73352
L79220 73323
L79192 73267
L79192 73099
L79220 73042
L79248 73014
L79304 72986
L79417 72986
L79473 73014
" />
<path d="M79979 73380
L79979 73070
L79951 73014
L79895 72986
L79782 72986
L79726 73014
" />
<path d="M79979 73352
L79923 73380
L79782 73380
L79726 73352
L79698 73295
L79698 73239
L79726 73183
L79782 73155
L79923 73155
L79979 73127
" />
<path d="M80514 73380
L80514 72789
" />
<path d="M80514 73352
L80457 73380
L80345 73380
L80289 73352
L80260 73323
L80232 73267
L80232 73099
L80260 73042
L80289 73014
L80345 72986
L80457 72986
L80514 73014
" />
<path d="M80654 73436
L81104 73436
" />
<path d="M81245 72986
L81245 73577
" />
<path d="M81245 73014
L81301 72986
L81413 72986
L81470 73014
L81498 73042
L81526 73099
L81526 73267
L81498 73323
L81470 73352
L81413 73380
L81301 73380
L81245 73352
" />
<path d="M82032 73352
L81976 73380
L81863 73380
L81807 73352
L81779 73323
L81751 73267
L81751 73099
L81779 73042
L81807 73014
L81863 72986
L81976 72986
L82032 73014
" />
<path d="M82285 73380
L82285 72789
" />
<path d="M82285 73014
L82341 72986
L82454 72986
L82510 73014
L82538 73042
L82566 73099
L82566 73267
L82538 73323
L82510 73352
L82454 73380
L82341 73380
L82285 73352
" />
</g>
<g style="fill:#000000; fill-opacity:0.0; 
stroke:#000000; stroke-width:39.3701; stroke-opacity:1; 
stroke-linecap:round; stroke-linejoin:round;">
</g>
<g style="fill:#000000; fill-opacity:0.0; 
stroke:#000000; stroke-width:59.0551; stroke-opacity:1; 
stroke-linecap:round; stroke-linejoin:round;">
<path d="M69685 71459
L112205 71459
" />
</g>
<g style="fill:#000000; fill-opacity:0.0; 
stroke:#000000; stroke-width:39.3701; stroke-opacity:1; 
stroke-linecap:round; stroke-linejoin:round;">
</g>
<g style="fill:#000000; fill-opacity:0.0; 
stroke:#000000; stroke-width:59.0551; stroke-opacity:1; 
stroke-linecap:round; stroke-linejoin:round;">
<path d="M70221 72289
L70305 72317
L70446 72317
L70502 72289
L70530 72260
L70559 72204
L70559 72148
L70530 72092
L70502 72064
L70446 72036
L70334 72007
L70277 71979
L70249 71951
L70221 71895
L70221 71839
L70249 71782
L70277 71754
L70334 71726
L70474 71726
L70559 71754
" />
<path d="M70812 72317
L70812 71726
" />
<path d="M71065 72317
L71065 72007
L71037 71951
L70980 71923
L70896 71923
L70840 71951
L70812 71979
" />
<path d="M71571 72289
L71515 72317
L71402 72317
L71346 72289
L71318 72232
L71318 72007
L71346 71951
L71402 71923
L71515 71923
L71571 71951
L71599 72007
L71599 72064
L71318 72120
" />
<path d="M72077 72289
L72021 72317
L71908 72317
L71852 72289
L71824 72232
L71824 72007
L71852 71951
L71908 71923
L72021 71923
L72077 71951
L72105 72007
L72105 72064
L71824 72120
" />
<path d="M72274 71923
L72499 71923
" />
<path d="M72358 71726
L72358 72232
L72386 72289
L72443 72317
L72499 72317
" />
<path d="M72696 72260
L72724 72289
L72696 72317
L72668 72289
L72696 72260
L72696 72317
" />
<path d="M72696 71951
L72724 71979
L72696 72007
L72668 71979
L72696 71951
L72696 72007
" />
</g>
<g style="fill:#000000; fill-opacity:0.0; 
stroke:#000000; stroke-width:39.3701; stroke-opacity:1; 
stroke-linecap:round; stroke-linejoin:round;">
</g>
<g style="fill:#000000; fill-opacity:0.0; 
stroke:#000000; stroke-width:59.0551; stroke-opacity:1; 
stroke-linecap:round; stroke-linejoin:round;">
<path d="M77559 75396
L77559 76577
" />
</g>
<g style="fill:#000000; fill-opacity:0.0; 
stroke:#000000; stroke-width:39.3701; stroke-opacity:1; 
stroke-linecap:round; stroke-linejoin:round;">
</g>
<g style="fill:#000000; fill-opacity:0.0; 
stroke:#000000; stroke-width:59.0551; stroke-opacity:1; 
stroke-linecap:round; stroke-linejoin:round;">
<path d="M102756 75396
L102756 77955
" />
</g>
<g style="fill:#000000; fill-opacity:0.0; 
stroke:#000000; stroke-width:39.3701; stroke-opacity:1; 
stroke-linecap:round; stroke-linejoin:round;">
<path d="M37793 54717
L29135 54717
" />
<path d="M27570 53327
L27562 53168
" />
<path d="M27594 53481
L27570 53327
" />
<path d="M27633 53629
L27594 53481
" />
<path d="M27685 53771
L27633 53629
" />
<path d="M27752 53907
L27685 53771
" />
<path d="M27830 54034
L27752 53907
" />
<path d="M27921 54154
L27830 54034
" />
<path d="M28023 54264
L27921 54154
" />
<path d="M28134 54364
L28023 54264
" />
<path d="M28255 54453
L28134 54364
" />
<path d="M28385 54530
L28255 54453
" />
<path d="M28523 54596
L28385 54530
" />
<path d="M28667 54648
L28523 54596
" />
<path d="M28818 54686
L28667 54648
" />
<path d="M28974 54709
L28818 54686
" />
<path d="M29135 54717
L28974 54709
" />
<path d="M37954 54709
L37793 54717
" />
<path d="M38110 54686
L37954 54709
" />
<path d="M38261 54648
L38110 54686
" />
<path d="M38406 54596
L38261 54648
" />
<path d="M38543 54530
L38406 54596
" />
<path d="M38673 54453
L38543 54530
" />
<path d="M38794 54364
L38673 54453
" />
<path d="M38906 54264
L38794 54364
" />
<path d="M39007 54154
L38906 54264
" />
<path d="M39098 54034
L39007 54154
" />
<path d="M39177 53907
L39098 54034
" />
<path d="M39243 53771
L39177 53907
" />
<path d="M39296 53629
L39243 53771
" />
<path d="M39335 53481
L39296 53629
" />
<path d="M39359 53327
L39335 53481
" />
<path d="M39367 53168
L39359 53327
" />
<path d="M29129 23221
L37787 23221
" />
<path d="M39353 24612
L39361 24770
" />
<path d="M39329 24458
L39353 24612
" />
<path d="M39290 24310
L39329 24458
" />
<path d="M39237 24167
L39290 24310
" />
<path d="M39171 24032
L39237 24167
" />
<path d="M39092 23904
L39171 24032
" />
<path d="M39002 23785
L39092 23904
" />
<path d="M38900 23675
L39002 23785
" />
<path d="M38788 23575
L38900 23675
" />
<path d="M38667 23486
L38788 23575
" />
<path d="M38537 23408
L38667 23486
" />
<path d="M38400 23343
L38537 23408
" />
<path d="M38255 23291
L38400 23343
" />
<path d="M38104 23253
L38255 23291
" />
<path d="M37948 23229
L38104 23253
" />
<path d="M37787 23221
L37948 23229
" />
<path d="M28968 23229
L29129 23221
" />
<path d="M28812 23253
L28968 23229
" />
<path d="M28661 23291
L28812 23253
" />
<path d="M28517 23343
L28661 23291
" />
<path d="M28379 23408
L28517 23343
" />
<path d="M28250 23486
L28379 23408
" />
<path d="M28128 23575
L28250 23486
" />
<path d="M28017 23675
L28128 23575
" />
<path d="M27915 23785
L28017 23675
" />
<path d="M27825 23904
L27915 23785
" />
<path d="M27746 24032
L27825 23904
" />
<path d="M27679 24167
L27746 24032
" />
<path d="M27627 24310
L27679 24167
" />
<path d="M27588 24458
L27627 24310
" />
<path d="M27564 24612
L27588 24458
" />
<path d="M27556 24770
L27564 24612
" />
<path d="M39361 24771
L39361 53171
" />
<path d="M27561 53172
L27556 24770
" />
</g>
<g style="fill:#000000; fill-opacity:0.0; 
stroke:#000000; stroke-width:0; stroke-opacity:1; 
stroke-linecap:round; stroke-linejoin:round;">
</g>
<g style="fill:#000000; fill-opacity:1.0; 
stroke:#000000; stroke-width:0; stroke-opacity:1; 
stroke-linecap:round; stroke-linejoin:round;">
<polyline style="fill-rule:evenodd;"
points="36846,24930
35802,24930
35802,24131
36846,24131
36846,24930
" /> 
<polyline style="fill-rule:evenodd;"
points="38488,24930
37444,24930
37444,24131
38488,24131
38488,24930
" /> 
<polyline style="fill-rule:evenodd;"
points="30028,34499
30028,35543
29229,35543
29229,34499
30028,34499
" /> 
<polyline style="fill-rule:evenodd;"
points="30028,32857
30028,33901
29229,33901
29229,32857
30028,32857
" /> 
<polyline style="fill-rule:evenodd;"
points="33897,24597
34055,24597
34055,25128
33897,25128
33897,24597
" /> 
<polyline style="fill-rule:evenodd;"
points="33642,24597
33799,24597
33799,25128
33642,25128
33642,24597
" /> 
<polyline style="fill-rule:evenodd;"
points="33386,24597
33543,24597
33543,25128
33386,25128
33386,24597
" /> 
<polyline style="fill-rule:evenodd;"
points="33130,24597
33287,24597
33287,25128
33130,25128
33130,24597
" /> 
<polyline style="fill-rule:evenodd;"
points="32874,24597
33031,24597
33031,25128
32874,25128
32874,24597
" /> 
</g>
<g style="fill:#000000; fill-opacity:1.0; 
stroke:#000000; stroke-width:374.016; stroke-opacity:1; 
stroke-linecap:round; stroke-linejoin:round;">
</g>
<g style="fill:#000000; fill-opacity:0.0; 
stroke:#000000; stroke-width:374.016; stroke-opacity:1; 
stroke-linecap:round; stroke-linejoin:round;">
<path d="M34508 24863
L34390 24863
" />
<path d="M32539 24863
L32421 24863
" />
</g>
<g style="fill:#000000; fill-opacity:0.0; 
stroke:#000000; stroke-width:393.701; stroke-opacity:1; 
stroke-linecap:round; stroke-linejoin:round;">
<path d="M34842 23691
L34842 23908
" />
<path d="M32086 23691
L32086 23908
" />
</g>
<g style="fill:#000000; fill-opacity:1.0; 
stroke:#000000; stroke-width:0; stroke-opacity:1; 
stroke-linecap:round; stroke-linejoin:round;">
<circle cx="38200" cy="29550" r="300" /> 
</g>
<g style="fill:#000000; fill-opacity:1.0; 
stroke:#000000; stroke-width:39.3701; stroke-opacity:1; 
stroke-linecap:round; stroke-linejoin:round;">
</g>
<g style="fill:#000000; fill-opacity:1.0; 
stroke:#000000; stroke-width:0; stroke-opacity:1; 
stroke-linecap:round; stroke-linejoin:round;">
<circle cx="37200" cy="30550" r="300" /> 
</g>
<g style="fill:#000000; fill-opacity:1.0; 
stroke:#000000; stroke-width:39.3701; stroke-opacity:1; 
stroke-linecap:round; stroke-linejoin:round;">
</g>
<g style="fill:#000000; fill-opacity:1.0; 
stroke:#000000; stroke-width:0; stroke-opacity:1; 
stroke-linecap:round; stroke-linejoin:round;">
<circle cx="37200" cy="28550" r="300" /> 
</g>
<g style="fill:#000000; fill-opacity:1.0; 
stroke:#000000; stroke-width:39.3701; stroke-opacity:1; 
stroke-linecap:round; stroke-linejoin:round;">
</g>
<g style="fill:#000000; fill-opacity:1.0; 
stroke:#000000; stroke-width:0; stroke-opacity:1; 
stroke-linecap:round; stroke-linejoin:round;">
<polyline style="fill-rule:evenodd;"
points="37910,35755
38461,35755
38461,36581
37910,36581
37910,35755
" /> 
<polyline style="fill-rule:evenodd;"
points="36138,35755
36689,35755
36689,36581
36138,36581
36138,35755
" /> 
<polyline style="fill-rule:evenodd;"
points="37910,31818
38461,31818
38461,32644
37910,32644
37910,31818
" /> 
<polyline style="fill-rule:evenodd;"
points="36138,31818
36689,31818
36689,32644
36138,32644
36138,31818
" /> 
<polyline style="fill-rule:evenodd;"
points="37719,26504
38229,26504
38229,27095
37719,27095
37719,26504
" /> 
<polyline style="fill-rule:evenodd;"
points="36970,26504
37480,26504
37480,27095
36970,27095
36970,26504
" /> 
<polyline style="fill-rule:evenodd;"
points="36395,28719
36395,29229
35804,29229
35804,28719
36395,28719
" /> 
<polyline style="fill-rule:evenodd;"
points="36395,27970
36395,28480
35804,28480
35804,27970
36395,27970
" /> 
<polyline style="fill-rule:evenodd;"
points="32380,27695
31870,27695
31870,27104
32380,27104
32380,27695
" /> 
<polyline style="fill-rule:evenodd;"
points="33129,27695
32619,27695
32619,27104
33129,27104
33129,27695
" /> 
<polyline style="fill-rule:evenodd;"
points="34619,27104
35129,27104
35129,27695
34619,27695
34619,27104
" /> 
<polyline style="fill-rule:evenodd;"
points="33870,27104
34380,27104
34380,27695
33870,27695
33870,27104
" /> 
<polyline style="fill-rule:evenodd;"
points="37719,25504
38229,25504
38229,26095
37719,26095
37719,25504
" /> 
<polyline style="fill-rule:evenodd;"
points="36970,25504
37480,25504
37480,26095
36970,26095
36970,25504
" /> 
<polyline style="fill-rule:evenodd;"
points="29819,31504
30329,31504
30329,32095
29819,32095
29819,31504
" /> 
<polyline style="fill-rule:evenodd;"
points="29070,31504
29580,31504
29580,32095
29070,32095
29070,31504
" /> 
<polyline style="fill-rule:evenodd;"
points="29819,30104
30329,30104
30329,30695
29819,30695
29819,30104
" /> 
<polyline style="fill-rule:evenodd;"
points="29070,30104
29580,30104
29580,30695
29070,30695
29070,30104
" /> 
<polyline style="fill-rule:evenodd;"
points="29580,28695
29070,28695
29070,28104
29580,28104
29580,28695
" /> 
<polyline style="fill-rule:evenodd;"
points="30329,28695
29819,28695
29819,28104
30329,28104
30329,28695
" /> 
<polyline style="fill-rule:evenodd;"
points="29819,29104
30329,29104
30329,29695
29819,29695
29819,29104
" /> 
<polyline style="fill-rule:evenodd;"
points="29070,29104
29580,29104
29580,29695
29070,29695
29070,29104
" /> 
<polyline style="fill-rule:evenodd;"
points="36395,30519
36395,31029
35804,31029
35804,30519
36395,30519
" /> 
<polyline style="fill-rule:evenodd;"
points="36395,29770
36395,30280
35804,30280
35804,29770
36395,29770
" /> 
<polyline style="fill-rule:evenodd;"
points="33718,26614
33718,25985
34506,25985
34506,26614
33718,26614
" /> 
<polyline style="fill-rule:evenodd;"
points="35293,26614
35293,25985
36081,25985
36081,26614
35293,26614
" /> 
<polyline style="fill-rule:evenodd;"
points="33281,25985
33281,26614
32493,26614
32493,25985
33281,25985
" /> 
<polyline style="fill-rule:evenodd;"
points="31706,25985
31706,26614
30918,26614
30918,25985
31706,25985
" /> 
<circle cx="37795.3" cy="38582.7" r="1377.95" /> 
</g>
<g style="fill:#000000; fill-opacity:1.0; 
stroke:#000000; stroke-width:39.3701; stroke-opacity:1; 
stroke-linecap:round; stroke-linejoin:round;">
</g>
<g style="fill:#000000; fill-opacity:1.0; 
stroke:#000000; stroke-width:0; stroke-opacity:1; 
stroke-linecap:round; stroke-linejoin:round;">
<circle cx="29133.9" cy="38582.7" r="1377.95" /> 
</g>
<g style="fill:#000000; fill-opacity:1.0; 
stroke:#000000; stroke-width:39.3701; stroke-opacity:1; 
stroke-linecap:round; stroke-linejoin:round;">
</g>
<g style="fill:#000000; fill-opacity:1.0; 
stroke:#000000; stroke-width:748.031; stroke-opacity:1; 
stroke-linecap:round; stroke-linejoin:round;">
</g>
<g style="fill:#000000; fill-opacity:0.0; 
stroke:#000000; stroke-width:748.031; stroke-opacity:1; 
stroke-linecap:round; stroke-linejoin:round;">
<path d="M32964 38267
L32964 38897
" />
<path d="M33964 38267
L33964 38897
" />
<path d="M33964 53464
L33964 52834
" />
<path d="M32964 53464
L32964 52834
" />
</g>
<g style="fill:#000000; fill-opacity:1.0; 
stroke:#000000; stroke-width:0; stroke-opacity:1; 
stroke-linecap:round; stroke-linejoin:round;">
<circle cx="29133.9" cy="53149.6" r="1377.95" /> 
</g>
<g style="fill:#000000; fill-opacity:1.0; 
stroke:#000000; stroke-width:39.3701; stroke-opacity:1; 
stroke-linecap:round; stroke-linejoin:round;">
</g>
<g style="fill:#000000; fill-opacity:1.0; 
stroke:#000000; stroke-width:0; stroke-opacity:1; 
stroke-linecap:round; stroke-linejoin:round;">
<circle cx="37795.3" cy="53149.6" r="1377.95" /> 
</g>
<g style="fill:#000000; fill-opacity:1.0; 
stroke:#000000; stroke-width:39.3701; stroke-opacity:1; 
stroke-linecap:round; stroke-linejoin:round;">
</g>
<g style="fill:#000000; fill-opacity:1.0; 
stroke:#000000; stroke-width:0; stroke-opacity:1; 
stroke-linecap:round; stroke-linejoin:round;">
<polyline style="fill-rule:evenodd;"
points="32804,35940
32124,35940
32124,35260
32804,35260
32804,35940
" /> 
</g>
<g style="fill:#000000; fill-opacity:1.0; 
stroke:#000000; stroke-width:680; stroke-opacity:1; 
stroke-linecap:round; stroke-linejoin:round;">
</g>
<g style="fill:#000000; fill-opacity:0.0; 
stroke:#000000; stroke-width:680; stroke-opacity:1; 
stroke-linecap:round; stroke-linejoin:round;">
<path d="M32464 34600
L32464 34600
" />
<path d="M33464 35600
L33464 35600
" />
<path d="M33464 34600
L33464 34600
" />
<path d="M34464 35600
L34464 35600
" />
<path d="M34464 34600
L34464 34600
" />
</g>
<g style="fill:#000000; fill-opacity:0.0; 
stroke:#000000; stroke-width:0; stroke-opacity:1; 
stroke-linecap:round; stroke-linejoin:round;">
</g>
<g style="fill:#000000; fill-opacity:1.0; 
stroke:#000000; stroke-width:0; stroke-opacity:1; 
stroke-linecap:round; stroke-linejoin:round;">
<polyline style="fill-rule:evenodd;"
points="28680,26610
28680,27410
28420,27410
28420,26610
28680,26610
" /> 
<polyline style="fill-rule:evenodd;"
points="29180,26610
29180,27410
28920,27410
28920,26610
29180,26610
" /> 
<polyline style="fill-rule:evenodd;"
points="29680,26610
29680,27410
29420,27410
29420,26610
29680,26610
" /> 
<polyline style="fill-rule:evenodd;"
points="30180,26610
30180,27410
29920,27410
29920,26610
30180,26610
" /> 
<polyline style="fill-rule:evenodd;"
points="30180,24190
30180,24990
29920,24990
29920,24190
30180,24190
" /> 
<polyline style="fill-rule:evenodd;"
points="29680,24190
29680,24990
29420,24990
29420,24190
29680,24190
" /> 
<polyline style="fill-rule:evenodd;"
points="29180,24190
29180,24990
28920,24990
28920,24190
29180,24190
" /> 
<polyline style="fill-rule:evenodd;"
points="28680,24190
28680,24990
28420,24990
28420,24190
28680,24190
" /> 
</g>
<g style="fill:#000000; fill-opacity:1.0; 
stroke:#000000; stroke-width:629.921; stroke-opacity:1; 
stroke-linecap:round; stroke-linejoin:round;">
</g>
<g style="fill:#000000; fill-opacity:0.0; 
stroke:#000000; stroke-width:629.921; stroke-opacity:1; 
stroke-linecap:round; stroke-linejoin:round;">
<path d="M31960 29488
L31960 29488
" />
<path d="M31960 30488
L31960 30488
" />
<path d="M31960 31488
L31960 31488
" />
<path d="M31960 32488
L31960 32488
" />
<path d="M34960 32488
L34960 32488
" />
<path d="M34960 31488
L34960 31488
" />
<path d="M34960 30488
L34960 30488
" />
<path d="M34960 29488
L34960 29488
" />
</g>
<g style="fill:#000000; fill-opacity:1.0; 
stroke:#000000; stroke-width:0; stroke-opacity:1; 
stroke-linecap:round; stroke-linejoin:round;">
<circle cx="35023.6" cy="26311" r="157.48" /> 
</g>
<g style="fill:#000000; fill-opacity:1.0; 
stroke:#000000; stroke-width:39.3701; stroke-opacity:1; 
stroke-linecap:round; stroke-linejoin:round;">
</g>
<g style="fill:#000000; fill-opacity:1.0; 
stroke:#000000; stroke-width:0; stroke-opacity:1; 
stroke-linecap:round; stroke-linejoin:round;">
<circle cx="30515.7" cy="29381.9" r="157.48" /> 
</g>
<g style="fill:#000000; fill-opacity:1.0; 
stroke:#000000; stroke-width:39.3701; stroke-opacity:1; 
stroke-linecap:round; stroke-linejoin:round;">
</g>
<g style="fill:#000000; fill-opacity:1.0; 
stroke:#000000; stroke-width:0; stroke-opacity:1; 
stroke-linecap:round; stroke-linejoin:round;">
<circle cx="35550" cy="30800" r="157.48" /> 
</g>
<g style="fill:#000000; fill-opacity:1.0; 
stroke:#000000; stroke-width:39.3701; stroke-opacity:1; 
stroke-linecap:round; stroke-linejoin:round;">
</g>
<g style="fill:#000000; fill-opacity:1.0; 
stroke:#000000; stroke-width:0; stroke-opacity:1; 
stroke-linecap:round; stroke-linejoin:round;">
<circle cx="35704.7" cy="32011.8" r="157.48" /> 
</g>
<g style="fill:#000000; fill-opacity:1.0; 
stroke:#000000; stroke-width:39.3701; stroke-opacity:1; 
stroke-linecap:round; stroke-linejoin:round;">
</g>
<g style="fill:#000000; fill-opacity:1.0; 
stroke:#000000; stroke-width:0; stroke-opacity:1; 
stroke-linecap:round; stroke-linejoin:round;">
<circle cx="31330.7" cy="28165.4" r="157.48" /> 
</g>
<g style="fill:#000000; fill-opacity:1.0; 
stroke:#000000; stroke-width:39.3701; stroke-opacity:1; 
stroke-linecap:round; stroke-linejoin:round;">
</g>
<g style="fill:#000000; fill-opacity:1.0; 
stroke:#000000; stroke-width:0; stroke-opacity:1; 
stroke-linecap:round; stroke-linejoin:round;">
<circle cx="36800" cy="25300" r="157.48" /> 
</g>
<g style="fill:#000000; fill-opacity:1.0; 
stroke:#000000; stroke-width:39.3701; stroke-opacity:1; 
stroke-linecap:round; stroke-linejoin:round;">
</g>
<g style="fill:#000000; fill-opacity:1.0; 
stroke:#000000; stroke-width:0; stroke-opacity:1; 
stroke-linecap:round; stroke-linejoin:round;">
<circle cx="31200" cy="33800" r="157.48" /> 
</g>
<g style="fill:#000000; fill-opacity:1.0; 
stroke:#000000; stroke-width:39.3701; stroke-opacity:1; 
stroke-linecap:round; stroke-linejoin:round;">
</g>
<g style="fill:#000000; fill-opacity:1.0; 
stroke:#000000; stroke-width:98.4252; stroke-opacity:1; 
stroke-linecap:round; stroke-linejoin:round;">
</g>
<g style="fill:#000000; fill-opacity:0.0; 
stroke:#000000; stroke-width:98.4252; stroke-opacity:1; 
stroke-linecap:round; stroke-linejoin:round;">
<path d="M32960 24863
L32960 25511
" />
<path d="M32960 25511
L32956 25515
" />
<path d="M32960 24863
L32960 24046
" />
<path d="M32960 24046
L32964 24043
" />
<path d="M35687 26300
L35034 26300
" />
<path d="M35034 26300
L35023 26311
" />
<path d="M30074 29400
L30493 29403
" />
<path d="M30493 29403
L30515 29381
" />
<path d="M37966 24531
L37966 25792
" />
<path d="M37966 25792
L37974 25800
" />
<path d="M30074 31800
L30074 32934
" />
<path d="M30074 32934
L29629 33379
" />
<path d="M35550 30800
L36074 30800
" />
<path d="M36074 30800
L36100 30774
" />
<path d="M35704 32011
L35728 32035
" />
<path d="M35728 32035
L35728 36559
" />
<path d="M35728 36559
L33964 38322
" />
<path d="M36000 27400
L35900 27400
" />
<path d="M36000 27400
L37800 27400
" />
<path d="M37800 27400
L37974 27225
" />
<path d="M37974 26800
L37974 27225
" />
<path d="M34960 29039
L34960 29488
" />
<path d="M35250 28750
L34960 29039
" />
<path d="M35250 28050
L35250 28750
" />
<path d="M35900 27400
L35250 28050
" />
<path d="M32464 34600
L31300 34600
" />
<path d="M30800 34100
L30800 31000
" />
<path d="M31300 34600
L30800 34100
" />
<path d="M29400 31000
L29400 31725
" />
<path d="M29400 31725
L29325 31800
" />
<path d="M34960 29488
L34211 29488
" />
<path d="M34211 29488
L32700 31000
" />
<path d="M32700 31000
L30800 31000
" />
<path d="M29325 30925
L29325 30400
" />
<path d="M29400 31000
L29325 30925
" />
<path d="M30000 31000
L29400 31000
" />
<path d="M30800 31000
L30000 31000
" />
<path d="M33984 24863
L33984 25484
" />
<path d="M37474 26300
L37974 26800
" />
<path d="M36600 26300
L37474 26300
" />
<path d="M36500 26200
L36600 26300
" />
<path d="M36500 25900
L36500 26200
" />
<path d="M36200 25600
L36500 25900
" />
<path d="M34100 25600
L36200 25600
" />
<path d="M33984 25484
L34100 25600
" />
<path d="M30074 28400
L30074 27034
" />
<path d="M30074 27034
L30050 27010
" />
<path d="M37200 28550
L38200 29550
" />
<path d="M31274 28222
L31330 28165
" />
<path d="M31100 28400
L30900 28400
" />
<path d="M31274 28225
L31100 28400
" />
<path d="M31274 28225
L31274 28222
" />
<path d="M37200 28550
L37050 28550
" />
<path d="M37050 28550
L36725 28225
" />
<path d="M36725 28225
L36100 28225
" />
<path d="M30074 30400
L30600 30400
" />
<path d="M30600 30400
L30900 30100
" />
<path d="M30900 30100
L30900 28400
" />
<path d="M30900 28400
L30074 28400
" />
<path d="M29325 28400
L29325 29400
" />
<path d="M28550 27624
L29325 28400
" />
<path d="M28550 27010
L28550 27624
" />
<path d="M37200 30550
L36700 30050
" />
<path d="M36700 30050
L36124 30050
" />
<path d="M36124 30050
L36100 30025
" />
<path d="M34112 26900
L37125 26900
" />
<path d="M37125 26900
L37225 26800
" />
<path d="M34112 26300
L34112 26900
" />
<path d="M34112 26900
L34112 27386
" />
<path d="M34112 27386
L34125 27400
" />
<path d="M33728 24863
L33728 25916
" />
<path d="M33728 25916
L34112 26300
" />
<path d="M32887 26300
L32887 27386
" />
<path d="M32887 27386
L32874 27400
" />
<path d="M33472 24863
L33472 25927
" />
<path d="M33472 25927
L33100 26300
" />
<path d="M33100 26300
L32887 26300
" />
<path d="M32964 35600
L32464 35600
" />
<path d="M34960 31488
L34411 31488
" />
<path d="M32964 32935
L32964 35600
" />
<path d="M32964 35600
L32964 38322
" />
<path d="M34411 31488
L32964 32935
" />
<path d="M34960 31488
L34811 31488
" />
<path d="M32964 37935
L32964 38322
" />
<path d="M31960 29488
L33611 29488
" />
<path d="M34874 28225
L34874 27400
" />
<path d="M33611 29488
L34874 28225
" />
<path d="M37225 25725
L36800 25300
" />
<path d="M33464 34600
L33464 33435
" />
<path d="M34411 32488
L34960 32488
" />
<path d="M33464 33435
L34411 32488
" />
<path d="M37225 25725
L37225 25800
" />
<path d="M38185 32231
L38185 32085
" />
<path d="M38185 32085
L37500 31400
" />
<path d="M37500 31400
L35700 31400
" />
<path d="M35700 31400
L34960 30660
" />
<path d="M34960 30660
L34960 30488
" />
<path d="M34200 30000
L35300 30000
" />
<path d="M32711 31488
L34200 30000
" />
<path d="M32700 31488
L32711 31488
" />
<path d="M31960 31488
L32700 31488
" />
<path d="M35725 28974
L36100 28974
" />
<path d="M35500 29200
L35725 28974
" />
<path d="M35500 29800
L35500 29200
" />
<path d="M35300 30000
L35500 29800
" />
<path d="M31611 31488
L31200 31900
" />
<path d="M31200 31900
L31200 33800
" />
<path d="M31960 31488
L31611 31488
" />
<path d="M31960 31488
L32543 31488
" />
<path d="M31960 30488
L31960 30460
" />
<path d="M31960 30460
L31300 29800
" />
<path d="M31300 29800
L31300 29300
" />
<path d="M31300 29300
L32125 28474
" />
<path d="M32125 28474
L32125 27400
" />
</g>
<g style="fill:#000000; fill-opacity:1.0; 
stroke:#000000; stroke-width:39.3701; stroke-opacity:1; 
stroke-linecap:round; stroke-linejoin:round;">
<polyline style="fill-rule:evenodd;"
points="31741,23539
31712,23682
31712,23917
31741,24061
31822,24182
31943,24263
32086,24291
32230,24263
32351,24182
32432,24061
32460,23917
32460,23682
32432,23539
32351,23418
34577,23418
34497,23539
34468,23682
34468,23917
34497,24061
34578,24182
34699,24263
34842,24291
34986,24263
35107,24182
35159,24104
35664,24104
35664,24297
35699,24331
36063,24331
36063,24028
36585,24028
36585,24331
36950,24331
36984,24297
36984,24104
36963,24053
36924,24015
36874,23994
36620,23994
36585,24028
36063,24028
36029,23994
35775,23994
35724,24015
35685,24053
35664,24104
35159,24104
35188,24061
35216,23917
35216,23682
35188,23539
35107,23418
37782,23418
37929,23426
38066,23446
38198,23480
38324,23525
38444,23582
38558,23650
38664,23728
38762,23816
38850,23912
38930,24016
38998,24127
39056,24245
39102,24369
39136,24498
39157,24632
39164,24781
39164,24781
39164,37824
39114,37702
38677,37265
38105,37027
37487,37027
36915,37263
36477,37700
36240,38271
36239,38890
36476,39462
36913,39900
37484,40137
38103,40138
38675,39901
39112,39464
39164,39339
39164,52391
39114,52269
38677,51832
38105,51594
37487,51594
36915,51830
36477,52267
36240,52838
36239,53457
36476,54029
36913,54467
37042,54520
29887,54520
30013,54468
30451,54031
30688,53460
30689,52841
30679,52817
32413,52817
32413,53481
32455,53692
32574,53871
32753,53990
32964,54032
33175,53990
33354,53871
33455,53720
33538,53720
33552,53751
33693,53887
33705,53905
33777,53903
33777,53494
34151,53494
34151,53903
34223,53905
34235,53887
34376,53751
34455,53572
34431,53494
34151,53494
33777,53494
33590,53494
33590,52805
33777,52805
33777,52395
34151,52395
34151,52805
34431,52805
34455,52726
34376,52547
34235,52411
34223,52393
34151,52395
33777,52395
33705,52393
33693,52411
33552,52547
33538,52578
33455,52578
33354,52427
33175,52308
32964,52266
32753,52308
32574,52427
32455,52606
32413,52817
30679,52817
30452,52269
30015,51832
29444,51594
28825,51594
28254,51830
27816,52267
27758,52406
27755,39319
27814,39462
28251,39900
28823,40137
29441,40138
30013,39901
30451,39464
30688,38893
30689,38274
30452,37702
30015,37265
29444,37027
28825,37027
28254,37263
27816,37700
27755,37846
27754,35316
29091,35316
29091,35570
29112,35621
29151,35659
29202,35680
29394,35680
29429,35646
29429,35282
29828,35282
29828,35646
29863,35680
30056,35680
30106,35659
30145,35621
30166,35570
30166,35316
30131,35282
29828,35282
29429,35282
29126,35282
29091,35316
27754,35316
27754,34471
29091,34471
29091,34725
29126,34760
29429,34760
29429,34395
29828,34395
29828,34760
30131,34760
30166,34725
30166,34471
30145,34420
30106,34382
30056,34361
29863,34361
29828,34395
29429,34395
29394,34361
29202,34361
29151,34382
29112,34420
29091,34471
27754,34471
27753,26610
28239,26610
28239,27410
28253,27479
28292,27537
28323,27558
28323,27624
28337,27695
28340,27710
28389,27784
28890,28284
28890,28695
28904,28764
28943,28823
29001,28862
29070,28875
29099,28875
29099,28924
29070,28924
29001,28937
28943,28976
28904,29035
28890,29104
28890,29695
28904,29764
28943,29823
29001,29862
29070,29875
29580,29875
29650,29862
29681,29841
29681,29958
29650,29937
29580,29924
29070,29924
29001,29937
28943,29976
28904,30035
28890,30104
28890,30695
28904,30764
28943,30823
29001,30862
29070,30875
29099,30875
29099,30925
29113,30996
29116,31012
29165,31086
29173,31093
29173,31324
29070,31324
29001,31337
28943,31376
28904,31435
28890,31504
28890,32095
28904,32164
28943,32223
29001,32262
29070,32275
29580,32275
29650,32262
29700,32228
29749,32262
29819,32275
29847,32275
29847,32676
29229,32676
29160,32690
29101,32729
29062,32787
29048,32857
29048,33901
29062,33970
29101,34028
29160,34067
29229,34081
30028,34081
30097,34067
30156,34028
30195,33970
30209,33901
30209,33119
30234,33094
30283,33020
30300,32934
30300,32275
30329,32275
30398,32262
30456,32223
30495,32164
30509,32095
30509,31504
30495,31435
30456,31376
30398,31337
30329,31324
29819,31324
29749,31337
29700,31371
29650,31337
29626,31333
29626,31226
30573,31226
30573,34100
30590,34185
30590,34186
30639,34260
31139,34760
31211,34808
31213,34809
31300,34826
31999,34826
32098,34975
32253,35079
32124,35079
32055,35093
31996,35132
31957,35190
31943,35260
31943,35940
31957,36009
31996,36067
32055,36106
32124,36120
32738,36120
32738,37751
32574,37861
32455,38039
32413,38250
32413,38914
32455,39125
32574,39304
32753,39423
32964,39465
33175,39423
33354,39304
33464,39139
33574,39304
33753,39423
33964,39465
34175,39423
34354,39304
34473,39125
34515,38914
34515,38250
34489,38118
35888,36719
35937,36645
35954,36559
35954,35755
35957,35755
35957,36581
35971,36651
36010,36709
36069,36748
36138,36762
36689,36762
36758,36748
36817,36709
36856,36651
36870,36581
36870,35755
37729,35755
37729,36581
37743,36651
37782,36709
37841,36748
37910,36762
38461,36762
38530,36748
38589,36709
38628,36651
38642,36581
38642,35755
38628,35685
38589,35627
38530,35588
38461,35574
37910,35574
37841,35588
37782,35627
37743,35685
37729,35755
36870,35755
36856,35685
36817,35627
36758,35588
36689,35574
36138,35574
36069,35588
36010,35627
35971,35685
35957,35755
35954,35755
35954,32472
36000,32472
36000,32672
36021,32722
36060,32761
36111,32782
36241,32782
36276,32748
36276,32438
36551,32438
36551,32748
36586,32782
36717,32782
36767,32761
36806,32722
36827,32672
36827,32472
36793,32438
36551,32438
36276,32438
36035,32438
36000,32472
35954,32472
35954,32235
35988,32201
36039,32078
36039,32024
36276,32024
36276,31714
36551,31714
36551,32024
36793,32024
36827,31990
36827,31790
36806,31740
36767,31701
36717,31680
36586,31680
36551,31714
36276,31714
36241,31680
36111,31680
36060,31701
36021,31740
36000,31790
36000,31852
35988,31822
35894,31728
35771,31677
35638,31677
35515,31727
35421,31822
35370,31944
35370,32078
35420,32201
35501,32282
35501,36465
34205,37761
34175,37741
33964,37699
33753,37741
33574,37861
33464,38026
33354,37861
33190,37751
33190,36037
33266,36087
33464,36127
33662,36087
33830,35975
33942,35808
33964,35696
33986,35808
34098,35975
34266,36087
34464,36127
34662,36087
34830,35975
34942,35808
34981,35610
34981,35589
34942,35391
34830,35224
34662,35112
34490,35077
35035,35077
35035,34940
34789,34940
34879,34837
34876,34770
34634,34770
34634,34940
34294,34940
34294,34770
34052,34770
34050,34837
34139,34940
33893,34940
33893,35077
34438,35077
34266,35112
34098,35224
33986,35391
33964,35503
33942,35391
33830,35224
33662,35112
33601,35100
33662,35087
33830,34975
33942,34808
33981,34610
33981,34589
33942,34391
33922,34362
34050,34362
34052,34430
34294,34430
34294,34190
34634,34190
34634,34430
34876,34430
34879,34362
34756,34221
34702,34185
34634,34190
34294,34190
34226,34185
34172,34221
34050,34362
33922,34362
33830,34224
33690,34131
33690,33529
34505,32714
34521,32714
34603,32836
34762,32942
34950,32980
34970,32980
35158,32942
35318,32836
35424,32676
35462,32488
35424,32299
35318,32140
35158,32033
34970,31996
34950,31996
34762,32033
34603,32140
34521,32261
34411,32261
34325,32279
34251,32328
33304,33275
33255,33348
33238,33435
33238,34131
33190,34162
33190,33029
34505,31714
34521,31714
34603,31836
34762,31942
34950,31980
34970,31980
35158,31942
35318,31836
35424,31676
35462,31488
35460,31481
35539,31560
35613,31609
35700,31626
37406,31626
37729,31949
37729,32644
37743,32714
37782,32772
37841,32811
37910,32825
38461,32825
38530,32811
38589,32772
38628,32714
38642,32644
38642,31818
38628,31748
38589,31690
38530,31651
38461,31637
38057,31637
37660,31239
37586,31190
37500,31173
36497,31173
36523,31156
36562,31098
36575,31029
36575,30519
36562,30449
36528,30400
36562,30350
36575,30280
36575,30276
36606,30276
36740,30411
36722,30454
36722,30644
36795,30819
36929,30954
37104,31027
37294,31027
37469,30954
37604,30820
37677,30645
37677,30455
37604,30280
37470,30145
37295,30072
37105,30072
37061,30091
36860,29889
36786,29840
36700,29823
36575,29823
36575,29770
36562,29701
36523,29643
36464,29604
36395,29590
35804,29590
35735,29604
35726,29610
35726,29389
35735,29395
35804,29409
36395,29409
36464,29395
36523,29356
36562,29298
36575,29229
36575,28719
36562,28649
36528,28600
36562,28550
36575,28480
36575,28452
36632,28452
36722,28542
36722,28644
36795,28819
36929,28954
37104,29027
37294,29027
37338,29008
37740,29411
37722,29454
37722,29644
37795,29819
37929,29954
38104,30027
38294,30027
38469,29954
38604,29820
38677,29645
38677,29455
38604,29280
38470,29145
38295,29072
38105,29072
38061,29091
37659,28688
37677,28645
37677,28455
37604,28280
37470,28145
37295,28072
37105,28072
36955,28134
36886,28065
36812,28016
36725,27999
36575,27999
36575,27970
36562,27901
36523,27843
36464,27804
36395,27790
35829,27790
35993,27626
37800,27626
37886,27609
37960,27560
38134,27386
38183,27312
38185,27299
38190,27275
38229,27275
38298,27262
38356,27223
38395,27164
38409,27095
38409,26504
38395,26435
38356,26376
38298,26337
38229,26324
37818,26324
37770,26275
38229,26275
38298,26262
38356,26223
38395,26164
38409,26095
38409,25504
38395,25435
38356,25376
38298,25337
38229,25324
38193,25324
38193,25111
38488,25111
38557,25097
38616,25058
38655,25000
38669,24930
38669,24131
38655,24062
38616,24004
38557,23965
38488,23951
37444,23951
37375,23965
37316,24004
37277,24062
37264,24131
37264,24930
37277,25000
37316,25058
37375,25097
37444,25111
37740,25111
37740,25324
37719,25324
37649,25337
37600,25371
37550,25337
37480,25324
37144,25324
37134,25314
37134,25233
37083,25110
36989,25016
36964,25006
36984,24958
36984,24765
36950,24731
36585,24731
36585,25034
36589,25037
36516,25110
36465,25233
36465,25366
36516,25489
36610,25583
36733,25634
36790,25634
36790,26073
36726,26073
36726,25900
36709,25813
36706,25809
36660,25739
36360,25439
36286,25390
36200,25373
34210,25373
34210,25215
34222,25198
34224,25187
34242,25199
34381,25227
34516,25227
34655,25199
34774,25120
34852,25002
34880,24863
34861,24765
35664,24765
35664,24958
35685,25009
35724,25047
35775,25068
36029,25068
36063,25034
36063,24731
35699,24731
35664,24765
34861,24765
34852,24723
34774,24605
34655,24526
34516,24499
34381,24499
34242,24526
34224,24538
34222,24528
34183,24469
34124,24430
34055,24416
33897,24416
33848,24426
33799,24416
33642,24416
33592,24426
33543,24416
33386,24416
33336,24426
33287,24416
33169,24416
33169,24292
33031,24292
33031,24450
33002,24469
32963,24528
32949,24597
32949,25128
32963,25198
33002,25256
33031,25276
33031,25434
33169,25434
33169,25309
33246,25309
33246,25804
32493,25804
32424,25818
32365,25857
32326,25915
32313,25985
32313,26614
32326,26684
32365,26742
32424,26781
32493,26795
32661,26795
32661,26924
32619,26924
32549,26937
32500,26971
32450,26937
32380,26924
31870,26924
31801,26937
31743,26976
31704,27035
31690,27104
31690,27695
31704,27764
31743,27823
31801,27862
31870,27875
31899,27875
31899,28380
31139,29139
31126,29160
31126,28621
31186,28609
31260,28560
31320,28499
31396,28500
31520,28449
31614,28355
31665,28232
31665,28099
31614,27976
31520,27881
31397,27830
31264,27830
31141,27881
31047,27975
30996,28098
30996,28173
30509,28173
30509,28104
30495,28035
30456,27976
30398,27937
30329,27924
30300,27924
30300,27542
30307,27537
30346,27479
30360,27410
30360,26610
30346,26540
30314,26491
30781,26491
30781,26642
30802,26693
30840,26731
30891,26752
31081,26752
31115,26718
31115,26457
31509,26457
31509,26718
31543,26752
31733,26752
31784,26731
31823,26693
31844,26642
31844,26491
31809,26457
31509,26457
31115,26457
30815,26457
30781,26491
30314,26491
30307,26482
30249,26443
30180,26429
29920,26429
29850,26443
29800,26477
29749,26443
29680,26429
29420,26429
29350,26443
29300,26477
29249,26443
29180,26429
28920,26429
28850,26443
28800,26477
28749,26443
28680,26429
28420,26429
28350,26443
28292,26482
28253,26540
28239,26610
27753,26610
27753,25957
30781,25957
30781,26108
30815,26142
31115,26142
31115,25881
31509,25881
31509,26142
31809,26142
31844,26108
31844,25957
31823,25906
31784,25868
31733,25847
31543,25847
31509,25881
31115,25881
31081,25847
30891,25847
30840,25868
30802,25906
30781,25957
27753,25957
27752,24824
28282,24824
28282,25017
28303,25068
28341,25106
28392,25127
28450,25127
28485,25093
28485,24790
28316,24790
28282,24824
27752,24824
27752,24781
27752,24781
27760,24632
27781,24498
27815,24369
27861,24245
27901,24162
28282,24162
28282,24355
28316,24390
28485,24390
28485,24086
28615,24086
28615,24390
28680,24390
28680,24790
28615,24790
28615,25093
28649,25127
28680,25127
28680,25160
28817,25160
28817,25134
28850,25156
28920,25170
29180,25170
29249,25156
29300,25122
29350,25156
29420,25170
29680,25170
29749,25156
29800,25122
29850,25156
29920,25170
30180,25170
30249,25156
30307,25117
30346,25059
30360,24990
30360,24863
32049,24863
32076,25002
32155,25120
32273,25199
32413,25227
32548,25227
32687,25199
32736,25166
32736,25434
32874,25434
32874,25266
32879,25266
32913,25232
32913,24996
32885,24996
32912,24863
32885,24730
32913,24730
32913,24494
32879,24459
32874,24459
32874,24292
32736,24292
32736,24559
32687,24526
32548,24499
32413,24499
32273,24526
32155,24605
32076,24723
32049,24863
30360,24863
30360,24190
30346,24120
30307,24062
30249,24023
30180,24009
29920,24009
29850,24023
29800,24057
29749,24023
29680,24009
29420,24009
29350,24023
29300,24057
29249,24023
29180,24009
28920,24009
28850,24023
28817,24045
28817,24019
28680,24019
28680,24052
28649,24052
28615,24086
28485,24086
28450,24052
28392,24052
28341,24073
28303,24111
28282,24162
27901,24162
27918,24127
27987,24016
28066,23912
28155,23816
28253,23728
28359,23650
28472,23582
28593,23525
28719,23480
28851,23446
28988,23426
29134,23418
31821,23418
31741,23539
" /> 
<polyline style="fill-rule:evenodd;"
points="34496,30299
34458,30488
34496,30676
34603,30836
34762,30942
34950,30980
34960,30980
34977,30997
34970,30996
34950,30996
34762,31033
34603,31140
34521,31261
34411,31261
34325,31279
34251,31328
32804,32775
32755,32848
32738,32935
32738,34162
32662,34112
32464,34072
32266,34112
32098,34224
31999,34373
31393,34373
31154,34134
31266,34134
31389,34083
31483,33989
31534,33866
31534,33733
31483,33610
31426,33553
31426,32710
31566,32710
31604,32767
31738,32882
31803,32878
31803,32645
32118,32645
32118,32878
32182,32882
32316,32767
32355,32710
32348,32645
32118,32645
31803,32645
31573,32645
31566,32710
31426,32710
31426,32266
31566,32266
31573,32330
31803,32330
31803,32098
32118,32098
32118,32330
32348,32330
32355,32266
32316,32208
32182,32093
32118,32098
31803,32098
31738,32093
31604,32208
31566,32266
31426,32266
31426,31993
31595,31824
31603,31836
31762,31942
31950,31980
31970,31980
32158,31942
32318,31836
32399,31714
32711,31714
32798,31697
32871,31648
34293,30226
34545,30226
34496,30299
" /> 
<polyline style="fill-rule:evenodd;"
points="30673,30006
30509,30170
30509,30104
30495,30035
30456,29976
30398,29937
30329,29924
29819,29924
29819,29833
29912,29833
29946,29798
29946,29547
30201,29547
30201,29798
30235,29833
30356,29833
30407,29812
30445,29773
30466,29722
30466,29582
30432,29547
30201,29547
29946,29547
29819,29547
29819,29252
29946,29252
29946,29001
30201,29001
30201,29252
30432,29252
30466,29217
30466,29077
30445,29026
30407,28987
30356,28966
30235,28966
30201,29001
29946,29001
29912,28966
29819,28966
29819,28875
30329,28875
30398,28862
30456,28823
30495,28764
30509,28695
30509,28626
30673,28626
30673,30006
" /> 
<polyline style="fill-rule:evenodd;"
points="36140,25860
36108,25847
35918,25847
35884,25881
35884,26142
36184,26142
36218,26108
36218,25957
36205,25925
36273,25993
36273,26200
36288,26275
36290,26286
36339,26360
36439,26460
36487,26491
36513,26509
36600,26526
36790,26526
36790,26673
36258,26673
36258,26614
36218,26614
36218,26491
36184,26457
35884,26457
35884,26614
35490,26614
35490,26457
35190,26457
35155,26491
35155,26614
35116,26614
35116,26673
34675,26673
34686,26614
34686,25985
34681,25957
35155,25957
35155,26108
35190,26142
35490,26142
35490,25881
35456,25847
35266,25847
35215,25868
35176,25906
35155,25957
34681,25957
34673,25915
34634,25857
34587,25826
36106,25826
36140,25860
" /> 
</g>
<g style="fill:#FFFFFF; fill-opacity:1.0; 
stroke:#FFFFFF; stroke-width:39.3701; stroke-opacity:1; 
stroke-linecap:round; stroke-linejoin:round;">
</g>
<g style="fill:#FFFFFF; fill-opacity:1.0; 
stroke:#FFFFFF; stroke-width:0; stroke-opacity:1; 
stroke-linecap:round; stroke-linejoin:round;">
<circle cx="35023.6" cy="26311" r="78.7402" /> 
</g>
<g style="fill:#FFFFFF; fill-opacity:1.0; 
stroke:#FFFFFF; stroke-width:39.3701; stroke-opacity:1; 
stroke-linecap:round; stroke-linejoin:round;">
</g>
<g style="fill:#FFFFFF; fill-opacity:1.0; 
stroke:#FFFFFF; stroke-width:0; stroke-opacity:1; 
stroke-linecap:round; stroke-linejoin:round;">
<circle cx="30515.7" cy="29381.9" r="78.7402" /> 
</g>
<g style="fill:#FFFFFF; fill-opacity:1.0; 
stroke:#FFFFFF; stroke-width:39.3701; stroke-opacity:1; 
stroke-linecap:round; stroke-linejoin:round;">
</g>
<g style="fill:#FFFFFF; fill-opacity:1.0; 
stroke:#FFFFFF; stroke-width:0; stroke-opacity:1; 
stroke-linecap:round; stroke-linejoin:round;">
<circle cx="35550" cy="30800" r="78.7402" /> 
</g>
<g style="fill:#FFFFFF; fill-opacity:1.0; 
stroke:#FFFFFF; stroke-width:39.3701; stroke-opacity:1; 
stroke-linecap:round; stroke-linejoin:round;">
</g>
<g style="fill:#FFFFFF; fill-opacity:1.0; 
stroke:#FFFFFF; stroke-width:0; stroke-opacity:1; 
stroke-linecap:round; stroke-linejoin:round;">
<circle cx="35704.7" cy="32011.8" r="78.7402" /> 
</g>
<g style="fill:#FFFFFF; fill-opacity:1.0; 
stroke:#FFFFFF; stroke-width:39.3701; stroke-opacity:1; 
stroke-linecap:round; stroke-linejoin:round;">
</g>
<g style="fill:#FFFFFF; fill-opacity:1.0; 
stroke:#FFFFFF; stroke-width:0; stroke-opacity:1; 
stroke-linecap:round; stroke-linejoin:round;">
<circle cx="31330.7" cy="28165.4" r="78.7402" /> 
</g>
<g style="fill:#FFFFFF; fill-opacity:1.0; 
stroke:#FFFFFF; stroke-width:39.3701; stroke-opacity:1; 
stroke-linecap:round; stroke-linejoin:round;">
</g>
<g style="fill:#FFFFFF; fill-opacity:1.0; 
stroke:#FFFFFF; stroke-width:0; stroke-opacity:1; 
stroke-linecap:round; stroke-linejoin:round;">
<circle cx="36800" cy="25300" r="78.7402" /> 
</g>
<g style="fill:#FFFFFF; fill-opacity:1.0; 
stroke:#FFFFFF; stroke-width:39.3701; stroke-opacity:1; 
stroke-linecap:round; stroke-linejoin:round;">
</g>
<g style="fill:#FFFFFF; fill-opacity:1.0; 
stroke:#FFFFFF; stroke-width:0; stroke-opacity:1; 
stroke-linecap:round; stroke-linejoin:round;">
<circle cx="31200" cy="33800" r="78.7402" /> 
</g>
<g style="fill:#FFFFFF; fill-opacity:1.0; 
stroke:#FFFFFF; stroke-width:39.3701; stroke-opacity:1; 
stroke-linecap:round; stroke-linejoin:round;">
</g>
<g style="fill:#FFFFFF; fill-opacity:1.0; 
stroke:#FFFFFF; stroke-width:216.535; stroke-opacity:1; 
stroke-linecap:round; stroke-linejoin:round;">
</g>
<g style="fill:#FFFFFF; fill-opacity:0.0; 
stroke:#FFFFFF; stroke-width:216.535; stroke-opacity:1; 
stroke-linecap:round; stroke-linejoin:round;">
<path d="M34508 24863
L34390 24863
" />
<path d="M32539 24863
L32421 24863
" />
</g>
<g style="fill:#FFFFFF; fill-opacity:0.0; 
stroke:#FFFFFF; stroke-width:196.85; stroke-opacity:1; 
stroke-linecap:round; stroke-linejoin:round;">
<path d="M34842 23672
L34842 23928
" />
<path d="M32086 23672
L32086 23928
" />
</g>
<g style="fill:#FFFFFF; fill-opacity:1.0; 
stroke:#FFFFFF; stroke-width:0; stroke-opacity:1; 
stroke-linecap:round; stroke-linejoin:round;">
<circle cx="38200" cy="29550" r="160" /> 
</g>
<g style="fill:#FFFFFF; fill-opacity:1.0; 
stroke:#FFFFFF; stroke-width:39.3701; stroke-opacity:1; 
stroke-linecap:round; stroke-linejoin:round;">
</g>
<g style="fill:#FFFFFF; fill-opacity:1.0; 
stroke:#FFFFFF; stroke-width:0; stroke-opacity:1; 
stroke-linecap:round; stroke-linejoin:round;">
<circle cx="37200" cy="30550" r="160" /> 
</g>
<g style="fill:#FFFFFF; fill-opacity:1.0; 
stroke:#FFFFFF; stroke-width:39.3701; stroke-opacity:1; 
stroke-linecap:round; stroke-linejoin:round;">
</g>
<g style="fill:#FFFFFF; fill-opacity:1.0; 
stroke:#FFFFFF; stroke-width:0; stroke-opacity:1; 
stroke-linecap:round; stroke-linejoin:round;">
<circle cx="37200" cy="28550" r="160" /> 
</g>
<g style="fill:#FFFFFF; fill-opacity:1.0; 
stroke:#FFFFFF; stroke-width:39.3701; stroke-opacity:1; 
stroke-linecap:round; stroke-linejoin:round;">
</g>
<g style="fill:#FFFFFF; fill-opacity:1.0; 
stroke:#FFFFFF; stroke-width:0; stroke-opacity:1; 
stroke-linecap:round; stroke-linejoin:round;">
<circle cx="37795.3" cy="38582.7" r="649.606" /> 
</g>
<g style="fill:#FFFFFF; fill-opacity:1.0; 
stroke:#FFFFFF; stroke-width:39.3701; stroke-opacity:1; 
stroke-linecap:round; stroke-linejoin:round;">
</g>
<g style="fill:#FFFFFF; fill-opacity:1.0; 
stroke:#FFFFFF; stroke-width:0; stroke-opacity:1; 
stroke-linecap:round; stroke-linejoin:round;">
<circle cx="29133.9" cy="38582.7" r="649.606" /> 
</g>
<g style="fill:#FFFFFF; fill-opacity:1.0; 
stroke:#FFFFFF; stroke-width:39.3701; stroke-opacity:1; 
stroke-linecap:round; stroke-linejoin:round;">
</g>
<g style="fill:#FFFFFF; fill-opacity:1.0; 
stroke:#FFFFFF; stroke-width:0; stroke-opacity:1; 
stroke-linecap:round; stroke-linejoin:round;">
<circle cx="32964.6" cy="38582.7" r="157.48" /> 
</g>
<g style="fill:#FFFFFF; fill-opacity:1.0; 
stroke:#FFFFFF; stroke-width:39.3701; stroke-opacity:1; 
stroke-linecap:round; stroke-linejoin:round;">
</g>
<g style="fill:#FFFFFF; fill-opacity:1.0; 
stroke:#FFFFFF; stroke-width:0; stroke-opacity:1; 
stroke-linecap:round; stroke-linejoin:round;">
<circle cx="33964.6" cy="38582.7" r="157.48" /> 
</g>
<g style="fill:#FFFFFF; fill-opacity:1.0; 
stroke:#FFFFFF; stroke-width:39.3701; stroke-opacity:1; 
stroke-linecap:round; stroke-linejoin:round;">
</g>
<g style="fill:#FFFFFF; fill-opacity:1.0; 
stroke:#FFFFFF; stroke-width:0; stroke-opacity:1; 
stroke-linecap:round; stroke-linejoin:round;">
<circle cx="33964.6" cy="53149.6" r="157.48" /> 
</g>
<g style="fill:#FFFFFF; fill-opacity:1.0; 
stroke:#FFFFFF; stroke-width:39.3701; stroke-opacity:1; 
stroke-linecap:round; stroke-linejoin:round;">
</g>
<g style="fill:#FFFFFF; fill-opacity:1.0; 
stroke:#FFFFFF; stroke-width:0; stroke-opacity:1; 
stroke-linecap:round; stroke-linejoin:round;">
<circle cx="32964.6" cy="53149.6" r="157.48" /> 
</g>
<g style="fill:#FFFFFF; fill-opacity:1.0; 
stroke:#FFFFFF; stroke-width:39.3701; stroke-opacity:1; 
stroke-linecap:round; stroke-linejoin:round;">
</g>
<g style="fill:#FFFFFF; fill-opacity:1.0; 
stroke:#FFFFFF; stroke-width:0; stroke-opacity:1; 
stroke-linecap:round; stroke-linejoin:round;">
<circle cx="29133.9" cy="53149.6" r="649.606" /> 
</g>
<g style="fill:#FFFFFF; fill-opacity:1.0; 
stroke:#FFFFFF; stroke-width:39.3701; stroke-opacity:1; 
stroke-linecap:round; stroke-linejoin:round;">
</g>
<g style="fill:#FFFFFF; fill-opacity:1.0; 
stroke:#FFFFFF; stroke-width:0; stroke-opacity:1; 
stroke-linecap:round; stroke-linejoin:round;">
<circle cx="37795.3" cy="53149.6" r="649.606" /> 
</g>
<g style="fill:#FFFFFF; fill-opacity:1.0; 
stroke:#FFFFFF; stroke-width:39.3701; stroke-opacity:1; 
stroke-linecap:round; stroke-linejoin:round;">
</g>
<g style="fill:#FFFFFF; fill-opacity:1.0; 
stroke:#FFFFFF; stroke-width:0; stroke-opacity:1; 
stroke-linecap:round; stroke-linejoin:round;">
<circle cx="32464.6" cy="35600" r="200" /> 
</g>
<g style="fill:#FFFFFF; fill-opacity:1.0; 
stroke:#FFFFFF; stroke-width:39.3701; stroke-opacity:1; 
stroke-linecap:round; stroke-linejoin:round;">
</g>
<g style="fill:#FFFFFF; fill-opacity:1.0; 
stroke:#FFFFFF; stroke-width:0; stroke-opacity:1; 
stroke-linecap:round; stroke-linejoin:round;">
<circle cx="32464.6" cy="34600" r="200" /> 
</g>
<g style="fill:#FFFFFF; fill-opacity:1.0; 
stroke:#FFFFFF; stroke-width:39.3701; stroke-opacity:1; 
stroke-linecap:round; stroke-linejoin:round;">
</g>
<g style="fill:#FFFFFF; fill-opacity:1.0; 
stroke:#FFFFFF; stroke-width:0; stroke-opacity:1; 
stroke-linecap:round; stroke-linejoin:round;">
<circle cx="33464.6" cy="35600" r="200" /> 
</g>
<g style="fill:#FFFFFF; fill-opacity:1.0; 
stroke:#FFFFFF; stroke-width:39.3701; stroke-opacity:1; 
stroke-linecap:round; stroke-linejoin:round;">
</g>
<g style="fill:#FFFFFF; fill-opacity:1.0; 
stroke:#FFFFFF; stroke-width:0; stroke-opacity:1; 
stroke-linecap:round; stroke-linejoin:round;">
<circle cx="33464.6" cy="34600" r="200" /> 
</g>
<g style="fill:#FFFFFF; fill-opacity:1.0; 
stroke:#FFFFFF; stroke-width:39.3701; stroke-opacity:1; 
stroke-linecap:round; stroke-linejoin:round;">
</g>
<g style="fill:#FFFFFF; fill-opacity:1.0; 
stroke:#FFFFFF; stroke-width:0; stroke-opacity:1; 
stroke-linecap:round; stroke-linejoin:round;">
<circle cx="34464.6" cy="35600" r="200" /> 
</g>
<g style="fill:#FFFFFF; fill-opacity:1.0; 
stroke:#FFFFFF; stroke-width:39.3701; stroke-opacity:1; 
stroke-linecap:round; stroke-linejoin:round;">
</g>
<g style="fill:#FFFFFF; fill-opacity:1.0; 
stroke:#FFFFFF; stroke-width:0; stroke-opacity:1; 
stroke-linecap:round; stroke-linejoin:round;">
<circle cx="34464.6" cy="34600" r="200" /> 
</g>
<g style="fill:#FFFFFF; fill-opacity:1.0; 
stroke:#FFFFFF; stroke-width:39.3701; stroke-opacity:1; 
stroke-linecap:round; stroke-linejoin:round;">
</g>
<g style="fill:#FFFFFF; fill-opacity:1.0; 
stroke:#FFFFFF; stroke-width:0; stroke-opacity:1; 
stroke-linecap:round; stroke-linejoin:round;">
<circle cx="31960.6" cy="29488.2" r="157.48" /> 
</g>
<g style="fill:#FFFFFF; fill-opacity:1.0; 
stroke:#FFFFFF; stroke-width:39.3701; stroke-opacity:1; 
stroke-linecap:round; stroke-linejoin:round;">
</g>
<g style="fill:#FFFFFF; fill-opacity:1.0; 
stroke:#FFFFFF; stroke-width:0; stroke-opacity:1; 
stroke-linecap:round; stroke-linejoin:round;">
<circle cx="31960.6" cy="30488.2" r="157.48" /> 
</g>
<g style="fill:#FFFFFF; fill-opacity:1.0; 
stroke:#FFFFFF; stroke-width:39.3701; stroke-opacity:1; 
stroke-linecap:round; stroke-linejoin:round;">
</g>
<g style="fill:#FFFFFF; fill-opacity:1.0; 
stroke:#FFFFFF; stroke-width:0; stroke-opacity:1; 
stroke-linecap:round; stroke-linejoin:round;">
<circle cx="31960.6" cy="31488.2" r="157.48" /> 
</g>
<g style="fill:#FFFFFF; fill-opacity:1.0; 
stroke:#FFFFFF; stroke-width:39.3701; stroke-opacity:1; 
stroke-linecap:round; stroke-linejoin:round;">
</g>
<g style="fill:#FFFFFF; fill-opacity:1.0; 
stroke:#FFFFFF; stroke-width:0; stroke-opacity:1; 
stroke-linecap:round; stroke-linejoin:round;">
<circle cx="31960.6" cy="32488.2" r="157.48" /> 
</g>
<g style="fill:#FFFFFF; fill-opacity:1.0; 
stroke:#FFFFFF; stroke-width:39.3701; stroke-opacity:1; 
stroke-linecap:round; stroke-linejoin:round;">
</g>
<g style="fill:#FFFFFF; fill-opacity:1.0; 
stroke:#FFFFFF; stroke-width:0; stroke-opacity:1; 
stroke-linecap:round; stroke-linejoin:round;">
<circle cx="34960.6" cy="32488.2" r="157.48" /> 
</g>
<g style="fill:#FFFFFF; fill-opacity:1.0; 
stroke:#FFFFFF; stroke-width:39.3701; stroke-opacity:1; 
stroke-linecap:round; stroke-linejoin:round;">
</g>
<g style="fill:#FFFFFF; fill-opacity:1.0; 
stroke:#FFFFFF; stroke-width:0; stroke-opacity:1; 
stroke-linecap:round; stroke-linejoin:round;">
<circle cx="34960.6" cy="31488.2" r="157.48" /> 
</g>
<g style="fill:#FFFFFF; fill-opacity:1.0; 
stroke:#FFFFFF; stroke-width:39.3701; stroke-opacity:1; 
stroke-linecap:round; stroke-linejoin:round;">
</g>
<g style="fill:#FFFFFF; fill-opacity:1.0; 
stroke:#FFFFFF; stroke-width:0; stroke-opacity:1; 
stroke-linecap:round; stroke-linejoin:round;">
<circle cx="34960.6" cy="30488.2" r="157.48" /> 
</g>
<g style="fill:#FFFFFF; fill-opacity:1.0; 
stroke:#FFFFFF; stroke-width:39.3701; stroke-opacity:1; 
stroke-linecap:round; stroke-linejoin:round;">
</g>
<g style="fill:#FFFFFF; fill-opacity:1.0; 
stroke:#FFFFFF; stroke-width:0; stroke-opacity:1; 
stroke-linecap:round; stroke-linejoin:round;">
<circle cx="34960.6" cy="29488.2" r="157.48" /> 
</g>
<g style="fill:#FFFFFF; fill-opacity:1.0; 
stroke:#FFFFFF; stroke-width:39.3701; stroke-opacity:1; 
stroke-linecap:round; stroke-linejoin:round;">
</g>
<g style="fill:#000000; fill-opacity:1.0; 
stroke:#000000; stroke-width:39.3701; stroke-opacity:1; 
stroke-linecap:round; stroke-linejoin:round;">
</g> 
</svg>
